<svg xmlns="http://www.w3.org/2000/svg" viewBox="0 0 1200 660" width="1200" height="660" role="img" aria-labelledby="t d">
<title id="t">SenseBridge knowledge graph</title>
<desc id="d">340 of the most connected symbols in the SenseBridge repository, laid out as a force-directed graph and joined by 679 extracted relationships — imports, calls, definitions, and references. Nodes are coloured by subsystem: app · Swift/SwiftUI, website · Astro, docs, tools · scripts · CI, audits · legal · models · security, root orientation docs. The 16 most connected are named. Pulses travel the edges to show how the subsystems connect. Generated by tools/graph-visual.mjs from the Graphify knowledge graph at commit f501795.</desc>
<style>
.w{fill:none;stroke:#7f8ca0;stroke-opacity:.28;stroke-width:.9}
.l{font:600 12px ui-sans-serif,-apple-system,"Segoe UI",Roboto,sans-serif}
.ll{stroke-width:.8;stroke-opacity:.5}
.g{font:500 11px ui-sans-serif,-apple-system,"Segoe UI",Roboto,sans-serif;opacity:.85}
.f{fill:none;stroke:#8fa4c0;stroke-opacity:.55;stroke-width:1.1;stroke-dasharray:3 15;animation:flow 2.4s linear infinite}
circle{animation:wake .9s ease-out both,breathe 4s ease-in-out infinite}
.s{animation:none;opacity:.9}
.l{animation:fade .8s ease-out both}
.ll{animation:fade .8s ease-out both}
@keyframes flow{to{stroke-dashoffset:-18}}
@keyframes wake{from{opacity:0;transform:scale(0)}to{opacity:1;transform:scale(1)}}
@keyframes breathe{0%,100%{opacity:.72}50%{opacity:1}}
@keyframes fade{from{opacity:0}to{opacity:1}}
@keyframes sway{0%,100%{transform:translate(0,0) scale(1)}50%{transform:translate(0,-6px) scale(1.008)}}
#brain{transform-origin:600px 330px;animation:sway 16s ease-in-out infinite}
@media (prefers-reduced-motion:reduce){
*{animation:none!important}
.f{display:none}
.s{display:none}
}
</style>
<g id="brain">
<g><path class="w" d="M521.9 411.3Q505.5 403.4 492.2 391.1M579 386.5Q535.9 395.3 492.2 391.1M681.4 451.7Q656.5 439 636.5 419.5M518.3 330.4Q491.6 310.8 471.9 284.3M495.2 296Q482.7 291.9 471.9 284.3M465.3 193.3Q486.9 216.1 500.9 244.3M513.2 162.1Q471.3 186.9 424 198.4M463.4 235.3Q477.4 215.6 496.5 200.9M497.2 150.1Q534.9 178.2 562.6 216.1M448.7 257.3Q474.5 239.8 504.3 230.7M488.4 172.3Q500.7 200.3 504.3 230.7M551.3 241.3Q507.7 262 459.9 269M651 131.7Q657.9 152.4 658.5 174.3M912.7 446.6Q901.8 456.7 888.4 463.2M548.6 397.6Q575.2 416.8 595 443M580.6 418.4Q602.2 422.8 621.6 433.4M711.1 454Q664.8 450.4 621.6 433.4M579 386.5Q603.8 406.8 621.6 433.4M617.1 412.4Q680.4 435.2 734.3 475.6M541.9 416.1Q579.2 408.6 617.1 412.4M667.9 426.1Q661.6 418.4 657.8 409.2M699.6 428.4Q648.4 443.5 595 443M609.8 388.2Q679.2 377.3 748.8 387.3M602.8 243.5Q625.8 264.5 641.7 291.3M609.5 137.5Q639.9 144.9 666.8 160.9M624.6 126.3Q648 131.2 668.9 142.8M608.4 111.6Q595.7 133.9 577 151.4M520.8 142.3Q549.6 142.6 577 151.4M338.1 365.7Q363.1 368.7 386.2 379M710.7 168.1Q726.3 192.3 734.1 220M391 283.7Q405.4 298.1 415 316M690.2 291.6Q657.4 286.9 627.4 272.8M535.7 192.1Q554.5 210.1 567.1 232.8M543.8 311.7Q550.7 283.9 565.4 259.3M475.9 134Q454.9 157.3 427.9 173.4M579.7 208.8Q603.4 218 623.4 233.7M578.8 280.2Q607.6 259.6 641.1 248.3M640.3 170.6Q655.8 182.9 667.1 199.2M487.6 220.9Q461.8 207.4 441.1 187M535.2 291.9Q562.7 289.3 589.8 294.8M584.8 236.4Q553.2 256.6 517.1 266.7M587 103.6Q628.5 101 669 110.8M448.7 257.3Q449.6 277.6 444.5 297.3M532.7 276.1Q555.3 297.7 570.5 324.9M468.6 174.6Q505.1 169.4 541.5 175.2M626.2 182.5Q625.8 146.1 636.2 111.1M651 131.7Q651.2 113.9 656.6 97M478.1 205.4Q482.8 194.6 490.4 185.7M557.9 124.2Q570.9 111.7 587 103.6M475.9 134Q490.3 127 506.2 124.6M513 211.9Q533 199.8 555.7 194.2M555.7 194.2Q523.7 212.7 487.6 220.9M506.3 177.1Q474.8 161.5 449.2 137.4M490.4 185.7Q502.3 161.7 520.8 142.3M514.9 190.1Q537 175.8 562.3 168.7M674.7 257.7Q673.7 237.8 678.6 218.5M644.8 343.6Q631.8 348.9 617.8 350.1M548.4 575.1Q569 572.5 589.4 576M814.1 309.1Q830.4 297.9 849.3 292M915.9 319.5Q893 313.6 872.8 301.3M849.3 292Q835.2 257.9 831.8 221.2M794.3 295.4Q802.1 312 804.7 330.1M908.1 243.9Q900.8 230.4 897.8 215.4M889.4 254.9Q908.5 253.5 927.2 257.7M863.7 253.3Q844.4 250.8 826.7 242.7M875.2 270.7Q882.4 241.4 897.8 215.4M883.8 235Q870 235.6 856.6 232.1M513.3 393.6Q524 427.6 524.3 463.2M521.9 411.3Q559.8 414.1 595.2 427.9M419.2 406.4Q498.1 410.2 572.5 436.9M513.3 393.6Q453.8 376.5 401.9 342.7M463.4 366.5Q392.4 339.7 332.3 293.2M481.1 408.8Q528.9 416 572.5 436.9M541.9 416.1Q561.4 414.3 580.6 418.4M541.9 416.1Q498.5 422.9 455.1 416.6M482.6 373.4Q403.3 358.1 332 320.2M579 386.5Q516.1 396.6 453 387.7M580.6 418.4Q589.6 429.6 595 443M658.8 440.9Q670.9 444.6 681.4 451.7M641.8 456Q633.3 428.7 633.1 400M426.3 444.6Q510.5 431.1 595 443M658.8 440.9Q655.9 425.1 657.8 409.2M658.8 440.9Q626.6 430.9 598.7 411.9M800.4 440.5Q813.2 446.8 823.5 456.5M448.1 464.5Q404.6 478.5 358.8 479.2"/><path class="w" d="M617.1 412.4Q553.1 411.1 492.2 391.1M350.9 336.6Q320.8 334.7 292.6 324.1M711.1 454Q671.2 442.3 636.5 419.5M543.8 311.7Q505.8 303.4 471.9 284.3M338.1 365.7Q398.9 315 471.9 284.3M441.1 187Q453.7 188.3 465.3 193.3M463.4 235.3Q440.9 219.8 424 198.4M464.6 218.6Q479.2 207.4 496.5 200.9M448.7 257.3Q485.3 246.3 523.5 246.5M555.5 275.8Q526.5 257.1 504.3 230.7M495.2 296Q494.9 262.7 504.3 230.7M463.4 235.3Q464.2 252.4 459.9 269M692.8 102.3Q681.1 140.9 658.5 174.3M548.6 397.6Q477.2 391.3 410.7 364.3M548.6 397.6Q591 392.5 633.1 400M621.6 433.4Q680.8 423.6 740.2 431.5M641.8 456Q630 446.2 621.6 433.4M526.9 371.7Q575.1 385.3 617.1 412.4M617.1 412.4Q608.3 429.4 595 443M667.9 426.1Q631.7 432.5 595.2 427.9M667.9 426.1Q621 438.7 572.5 436.9M699.6 428.4Q740.3 414.3 783.4 412.8M535.8 386.5Q572.9 381.8 609.8 388.2M613.6 324.5Q625.2 305.8 641.7 291.3M626.2 182.5Q614.5 161.3 609.5 137.5M626.2 182.5Q644.6 159.4 668.9 142.8M677.8 126.1Q629.3 146.3 577 151.4M468.6 174.6Q521.1 154.9 577 151.4M710.7 168.1Q698.5 162.3 688.5 153.1M710.7 168.1Q733.6 162.6 757.1 164.1M418.2 294.8Q403.8 291.3 391 283.7M579.9 192.2Q609.7 228.9 627.4 272.8M370.7 190.2Q387.3 184.3 404.9 183.6M555.5 275.8Q559.2 266.8 565.4 259.3M513 211.9Q467.6 199 427.9 173.4M481.3 245.2Q511.8 231.1 545.1 226.6M578.8 280.2Q565.9 249.4 562.6 216.1M626.2 182.5Q647.9 187.8 667.1 199.2M543.8 311.7Q561.3 283.3 586.3 261.3M535.2 291.9Q559.8 297.3 581.7 309.6M581.7 309.6Q567.4 323.9 549.5 333.3M649.4 149Q605.1 126.5 569.3 92M418.2 294.8Q431.5 294.1 444.5 297.3M555.5 275.8Q602.3 265.1 650.2 268.7M562.3 168.7Q552.4 173.5 541.5 175.2M602.3 206.6Q612.4 192.8 626.2 182.5M651 131.7Q642.1 122.5 636.2 111.1M478.1 205.4Q495.4 195 514.9 190.1M537.7 132.5Q560.2 114.4 587 103.6M540.9 105.6Q531.3 135.9 513.2 162.1M513 211.9Q490.9 186 477.4 154.8M539.8 158.3Q508.3 161.2 477.4 154.8M506.3 177.1Q459.2 202 406.9 212M557.9 124.2Q573.4 146.1 581.7 171.6M537.7 132.5Q506.3 158.7 468.6 174.6M678.6 218.5Q658.3 212.2 640.8 200.3M644.8 343.6Q618.7 345.7 593.1 340.1M622.9 559.9Q613 547.4 607.2 532.5M843.3 338.3Q855.3 317.6 872.8 301.3M915.9 319.5Q934.6 308.2 955.8 302.8M798.4 357.2Q776.5 347.3 758.5 331.4M824.6 355.4Q812.8 344.2 804.7 330.1M908.1 243.9Q910.4 258.5 908.4 273.2M889.4 254.9Q894.8 273.1 894.6 292.1M863.7 253.3Q864.1 233.1 870.4 214M923.1 227.9Q909.5 223.5 897.8 215.4M875.2 270.7Q863 252.8 856.6 232.1M541.9 416.1Q536.6 441 524.3 463.2M521.9 411.3Q551.8 410.4 580.6 418.4M419.2 406.4Q434.7 394.5 453 387.7M513.3 393.6Q556.8 404.6 595.2 427.9M463.4 366.5Q525.9 383.7 580.6 418.4M481.1 408.8Q465.5 400.4 453 387.7M541.9 416.1Q578.8 430.7 609.8 455.5M541.9 416.1Q460.1 419.3 381 398.3M426.3 444.6Q462.8 430 501.9 426.7M595.2 427.9Q668.1 429.9 737.2 453.2M641.8 456Q608.4 441.8 580.6 418.4M711.1 454Q742.1 472.9 766.1 500M641.8 456Q605.7 451.6 572.5 436.9M487.2 449.8Q540.6 438.3 595 443M657.8 409.2Q617.2 429.4 572.5 436.9M598.7 411.9Q661.5 399.3 725.2 405.6M800.4 440.5Q816.1 432.4 833.5 429.2M448.1 464.5Q435.7 456.2 426.3 444.6"/><path class="w" d="M451.6 435.8Q468.5 410.4 492.2 391.1M548.6 397.6Q594.2 402 636.5 419.5M667.9 426.1Q651.7 425.2 636.5 419.5M448.7 257.3Q462.3 269.1 471.9 284.3M424 198.4Q432.4 177.5 446.6 159.9M513.2 162.1Q491.6 181.3 465.3 193.3M464.6 218.6Q442.8 211.5 424 198.4M500.9 244.3Q529.6 225.6 562.6 216.1M555.5 275.8Q537.3 263.5 523.5 246.5M532.7 276.1Q515.1 255.5 504.3 230.7M383.3 219.9Q425.3 238.7 459.9 269M468.6 174.6Q471.3 222.5 459.9 269M678.6 218.5Q665.2 197.9 658.5 174.3M548.6 397.6Q536.3 406.5 521.9 411.3M548.6 397.6Q574.7 401 598.7 411.9M621.6 433.4Q617.4 445.3 609.8 455.5M667.9 426.1Q645.3 433.2 621.6 433.4M513.3 393.6Q566.6 395.2 617.1 412.4M617.1 412.4Q611.6 400.8 609.8 388.2M667.9 426.1Q623.7 428.8 580.6 418.4M667.9 426.1Q632.2 424.2 598.7 411.9M521.9 411.3Q564.1 393.2 609.8 388.2M541.9 416.1Q573.8 397.1 609.8 388.2M602.8 243.5Q613.4 269.5 616 297.5M651 131.7Q630.7 137.7 609.5 137.5M696.7 186.8Q679.5 166.9 668.9 142.8M513.2 162.1Q544.3 152 577 151.4M562.3 168.7Q568.4 158.9 577 151.4M651 131.7Q671.4 139.6 688.5 153.1M626.2 182.5Q667.4 169 710.7 168.1M411.4 259.2Q403 273 391 283.7M549.5 333.3Q590 317.5 633.3 314.2M397.2 160.1Q402.8 171.3 404.9 183.6M532.7 276.1Q547.8 265.2 565.4 259.3M514.9 190.1Q470.1 188.3 427.9 173.4M513 211.9Q499.6 230.9 481.3 245.2M562.6 216.1Q604.3 226.3 641.1 248.3M696.7 186.8Q682.8 195.2 667.1 199.2M543.8 311.7Q538 302.4 535.2 291.9M535.2 291.9Q545.5 311.5 549.5 333.3M736.6 147Q700.1 134 669 110.8M649.4 149Q688.2 166.3 720.2 194.2M711 276.7Q690.5 283.3 668.9 283.6M513.2 162.1Q528.3 166.5 541.5 175.2M464.6 218.6Q499.8 191.1 541.5 175.2M551.3 241.3Q584.3 206.3 626.2 182.5M636.2 111.1Q663.8 102.5 692.8 102.3M478.1 205.4Q448.8 237.3 411.4 259.2M535.7 84.6Q519 78 504.9 66.7M540.9 105.6Q525 117.7 506.2 124.6M513 211.9Q550.7 218.8 584.8 236.4M584.8 236.4Q568.4 241.4 551.3 241.3M523.4 227.7Q529.5 216.4 538.6 207.3M557.9 124.2Q540.7 136 520.8 142.3M537.7 132.5Q552.7 148.8 562.3 168.7M488.4 172.3Q480.7 142.5 482 111.8M593.1 340.1Q606.2 343.2 617.8 350.1M789.8 270.9Q776.2 269.2 763.7 263.5M843.3 338.3Q822.3 351.1 798.4 357.2M921.8 296.6Q920.6 308.5 915.9 319.5M849.3 292Q861.7 294.9 872.8 301.3M821.3 287.8Q816.2 310.2 804.7 330.1M908.1 243.9Q905 269 894.6 292.1M889.4 254.9Q876.8 235.9 870.4 214M863.7 253.3Q858.6 243.2 856.6 232.1M883.8 235Q899 252.3 908.4 273.2M923.1 227.9Q890.2 235 856.6 232.1M561.3 465.9Q537.5 441.6 521.9 411.3M521.9 411.3Q560.8 421.7 595 443M426.3 444.6Q419.9 426 419.2 406.4M513.3 393.6Q548.8 401 580.6 418.4M463.4 366.5Q463 392.2 455.1 416.6M541.9 416.1Q511 417 481.1 408.8M541.9 416.1Q594.8 428.6 641.8 456M541.9 416.1Q522.7 424.4 501.9 426.7M487.2 449.8Q492.8 437.1 501.9 426.7M595.2 427.9Q595.8 419.6 598.7 411.9M658.8 440.9Q618 435.5 580.6 418.4M658.8 440.9Q685.9 443.5 711.1 454M641.8 456Q616.9 437.2 598.7 411.9M579 386.5Q591.2 413.6 595 443M657.8 409.2Q628.5 415 598.7 411.9M448.1 464.5Q519.5 426.9 598.7 411.9M800.4 440.5Q817.7 458.8 828.8 481.3M448.1 464.5Q466.5 454.2 487.2 449.8"/><path class="w" d="M535.8 386.5Q514.3 392.1 492.2 391.1M521.9 411.3Q579.8 406.8 636.5 419.5M658.8 440.9Q646 431.9 636.5 419.5M555.5 275.8Q514.3 286.3 471.9 284.3M496.5 200.9Q468.5 184.1 446.6 159.9M513 211.9Q487.8 206.2 465.3 193.3M496.5 200.9Q493 175.4 497.2 150.1M441.2 239.2Q471.4 237.3 500.9 244.3M532.7 276.1Q525.9 262 523.5 246.5M443.7 207.4Q475.7 214.5 504.3 230.7M459.9 269Q477 296.7 485.2 328.2M557.7 297Q506.7 290.3 459.9 269M640.8 200.3Q647.7 186 658.5 174.3M548.6 397.6Q535.8 386.3 526.9 371.7M548.6 397.6Q578.5 388.3 609.8 388.2M621.6 433.4Q617.8 423.2 617.1 412.4M658.8 440.9Q639.6 439.9 621.6 433.4M697.1 403Q657.8 413.7 617.1 412.4M617.1 412.4Q596.1 402.3 579 386.5M667.9 426.1Q676.6 437.9 681.4 451.7M667.9 426.1Q683.9 424.9 699.6 428.4M526.9 371.7Q569.6 373.7 609.8 388.2M579 386.5Q594.5 385 609.8 388.2M613.6 324.5Q612.8 310.8 616 297.5M559 147.8Q568.3 148.3 577 151.4M577 151.4Q593.3 168.1 604 188.8M506.2 124.6Q543.6 132.7 577 151.4M464.6 218.6Q515.8 176.6 577 151.4M656.6 97Q676.8 122.7 688.5 153.1M651 131.7Q683.6 145.4 710.7 168.1M633.3 314.2Q627.2 293.9 627.4 272.8M668.9 283.6Q653.4 301.6 633.3 314.2M513 211.9Q456.8 205.9 404.9 183.6M535.7 192.1Q555.6 223.5 565.4 259.3M397.2 160.1Q386.2 177.1 370.7 190.2M523.4 227.7Q503.7 239.6 481.3 245.2M544.3 255.9Q580.3 250 616.5 255M541.5 175.2Q590.6 165.5 640.3 170.6M517.1 266.7Q551.3 258.8 586.3 261.3M513 211.9Q530.1 250.2 535.2 291.9M719.8 118.3Q730.4 131.4 736.6 147M649.4 149Q682.3 128.4 719.8 118.3M711 276.7Q701.7 285.7 690.2 291.6M506.2 124.6Q527.6 147.3 541.5 175.2M443.7 207.4Q430.9 178.3 427.2 146.7M539.8 158.3Q584.8 163.9 626.2 182.5M587 103.6Q612.2 103.7 636.2 111.1M677.8 126.1Q697.1 105.7 721.5 91.9M540.9 105.6Q536.7 95.5 535.7 84.6M443.7 207.4Q478.7 204.5 513 211.9M513 211.9Q510.2 245 497.8 275.9M584.8 236.4Q580.2 223 579.7 208.8M457.7 93.2Q458.8 81.2 463.4 70.1M487.6 220.9Q476.6 229.9 463.4 235.3M411.4 259.2Q435 234.9 464.6 218.6M495.2 296Q547.5 278.2 602.7 276.5M694.6 318.6Q679.2 315.1 665.5 307.3M789.8 270.9Q786.4 293.2 776.6 313.5M843.3 338.3Q842.8 314.7 849.3 292M921.8 296.6Q933 283.7 947.4 274.6M849.3 292Q857.1 305.3 860.6 320.2M860.6 320.2Q846.8 321.1 833.4 318M908.1 243.9Q887 231.8 870.4 214M889.4 254.9Q871.3 246 856.6 232.1M883.8 235Q875.1 245.7 863.7 253.3M875.2 270.7Q892 269.5 908.4 273.2M875.2 270.7Q886.5 279.9 894.6 292.1M561.3 465.9Q575.4 444.4 595.2 427.9M521.9 411.3Q576.7 397.3 633.1 400M487.2 449.8Q449.9 433.2 419.2 406.4M513.3 393.6Q557.4 396.3 598.7 411.9M463.4 366.5Q459.8 377.9 453 387.7M501.9 426.7Q490.2 419.3 481.1 408.8M541.9 416.1Q570.5 425.6 595 443M541.9 416.1Q495.3 408.6 453 387.7M501.9 426.7Q540.6 416.6 580.6 418.4M658.8 440.9Q626 439.2 595.2 427.9M572.5 436.9Q575.2 427 580.6 418.4M609.8 455.5Q589.8 449 572.5 436.9M658.8 440.9Q651.4 449.7 641.8 456M658.8 440.9Q642.9 422.4 633.1 400M658.8 440.9Q615.4 445.4 572.5 436.9M487.2 449.8Q540.1 422.5 598.7 411.9M658.8 440.9Q714.3 435 769.1 445.7M426.3 444.6Q381.2 454.7 335.2 451.2"/><path class="w" d="M492.2 391.1Q555.8 414.5 609.8 455.5M526.9 371.7Q585.3 387.4 636.5 419.5M636.5 419.5Q626.3 417.4 617.1 412.4M532.7 276.1Q502.9 284.8 471.9 284.3M497.2 150.1Q472.6 158.8 446.6 159.9M523.4 227.7Q491.8 214.9 465.3 193.3M441.2 239.2Q466 215.9 496.5 200.9M513.2 162.1Q513.2 204.1 500.9 244.3M535.7 192.1Q533.7 220.2 523.5 246.5M506.3 177.1Q509.3 204 504.3 230.7M381.5 242.7Q422.7 250 459.9 269M658.5 174.3Q640.9 133.1 636.1 88.6M656 220.8Q636.5 190.9 626.7 156.7M548.6 397.6Q574.2 409.3 595.2 427.9M548.6 397.6Q503.3 414.1 455.1 416.6M621.6 433.4Q609 440.2 595 443M699.6 428.4Q661 436.8 621.6 433.4M681.4 451.7Q646.3 436.9 617.1 412.4M667.9 426.1Q641.5 423.1 617.1 412.4M667.9 426.1Q691.6 436.8 711.1 454M658.8 440.9Q662.2 432.8 667.9 426.1M463.4 366.5Q538.2 366.4 609.8 388.2M748.8 387.3Q780.9 392.1 810.2 406.1M602.8 243.5Q599.3 216.1 604 188.8M668.9 142.8Q669.2 152 666.8 160.9M602.3 206.6Q601.8 197.6 604 188.8M602.3 206.6Q585.5 180.9 577 151.4M710.7 168.1Q688.2 167.8 666.8 160.9M710.7 168.1Q729.2 176.4 744.5 189.7M678.2 181.3Q712 180.5 744.5 189.7M586.3 261.3Q607.7 264 627.4 272.8M517.1 266.7Q464.2 262.2 415 242.3M449.2 137.4Q430.5 163.8 404.9 183.6M490.4 185.7Q491.7 224.9 481.4 262.7M468.6 174.6Q431.8 172.7 397.2 160.1M584.8 236.4Q564.2 234.5 545.1 226.6M513 211.9Q531.9 231.6 544.3 255.9M626.2 182.5Q632.4 175.5 640.3 170.6M589.8 294.8Q585.5 278.3 586.3 261.3M503.4 314.9Q517.6 301 535.2 291.9M649.4 149Q656.3 128.4 669 110.8M649.4 149Q679.9 175.2 701.4 209.2M613.2 87.6Q612.6 100 608.4 111.6M602.3 206.6Q569.5 195.5 541.5 175.2M506.3 177.1Q464.5 167.8 427.2 146.7M579.7 208.8Q601 192.2 626.2 182.5M677.8 126.1Q712.8 119.6 748.1 123.7M608.8 169.1Q640.1 142.4 677.8 126.1M557.9 124.2Q543.8 106.1 535.7 84.6M513 211.9Q557.3 202.6 602.3 206.6M513 211.9Q501 218.3 487.6 220.9M579.7 208.8Q590.8 206 602.3 206.6M457.7 93.2Q439.7 98.9 420.8 99M514.9 190.1Q503.6 207.5 487.6 220.9M535.7 192.1Q524.6 155.4 524.8 117M602.7 276.5Q581.7 290.1 557.7 297M541.3 521.5Q530.2 540 514.2 554.5M789.8 270.9Q790.9 245.9 799.2 222.4M842.6 269Q860.1 282.9 872.8 301.3M921.8 296.6Q885.2 299.7 849.3 292M849.3 292Q822.1 297.8 794.3 295.4M794.3 295.4Q815.5 303.8 833.4 318M908.1 243.9Q881.5 241.9 856.6 232.1M863.7 253.3Q877.9 231.8 897.8 215.4M875.2 270.7Q868.1 262.9 863.7 253.3M923.1 227.9Q919.1 251.7 908.4 273.2M883.8 235Q855.8 243.1 826.7 242.7M561.3 465.9Q576.4 451.9 595 443M521.9 411.3Q560.3 405.8 598.7 411.9M526.9 371.7Q449 373 374.1 351.4M513.3 393.6Q498.3 403.6 481.1 408.8M463.4 366.5Q522.7 367.8 579 386.5M535.8 386.5Q613.5 408.2 681.4 451.7M541.9 416.1Q586.3 401.2 633.1 400M579 386.5Q562.7 404.1 541.9 416.1M501.9 426.7Q558 433 609.8 455.5M657.8 409.2Q627.9 423.2 595.2 427.9M455.1 416.6Q518 408.1 580.6 418.4M658.8 440.9Q635.4 451.9 609.8 455.5M658.8 440.9Q627.1 446.7 595 443M633.1 400Q695 396.3 755.2 411M572.5 436.9Q583.7 422.4 598.7 411.9M579 386.5Q590.8 397.7 598.7 411.9M451.6 435.8Q402.6 440.7 354.4 431M487.2 449.8Q456.4 451.8 426.3 444.6"/><path class="w" d="M492.2 391.1Q535.8 408 572.5 436.9M513.3 393.6Q576.8 397.3 636.5 419.5M636.5 419.5Q617 418.5 598.7 411.9M443.7 207.4Q463.6 243.7 471.9 284.3M465.3 193.3Q445 198.9 424 198.4M487.6 220.9Q474.4 208.8 465.3 193.3M513.2 162.1Q507.8 182.8 496.5 200.9M538.6 207.3Q522.5 228.6 500.9 244.3M602.4 224.5Q564.6 241.4 523.5 246.5M430.6 225.9Q467.8 222.8 504.3 230.7M441.2 239.2Q452.8 252.7 459.9 269M658.5 174.3Q686 199.6 704.9 231.9M626.2 182.5Q624.5 169.6 626.7 156.7M548.6 397.6Q566.2 405.6 580.6 418.4M521.9 411.3Q573.4 414.9 621.6 433.4M621.6 433.4Q624.8 415.8 633.1 400M487.2 449.8Q553.2 431.5 621.6 433.4M609.8 455.5Q610.2 433.4 617.1 412.4M658.8 440.9Q635.8 429.8 617.1 412.4M667.9 426.1Q657.1 443 641.8 456M711.1 454Q703.4 442.1 699.6 428.4M697.1 403Q652.3 402.1 609.8 388.2M271.7 292.2Q264.9 307.6 253.8 320.3M559 147.8Q588.1 192.4 602.8 243.5M668.9 142.8Q656.7 158.8 640.3 170.6M678.2 181.3Q625.4 173.9 577 151.4M539.8 158.3Q557.9 152.1 577 151.4M608.4 111.6Q641.3 131.9 666.8 160.9M710.7 168.1Q704.4 150.6 703.5 132M678.2 181.3Q687.2 154.8 703.5 132M589.8 294.8Q606.9 281 627.4 272.8M555.5 275.8Q558.1 253.4 567.1 232.8M406.9 212Q403.8 198 404.9 183.6M427.9 173.4Q400.6 186.1 370.7 190.2M444.5 297.3Q431.2 308.9 415 316M538.6 207.3Q543.3 216.5 545.1 226.6M555.7 194.2Q554.6 225.9 544.3 255.9M696.7 186.8Q667.3 182.9 640.3 170.6M551.3 241.3Q570.3 248.7 586.3 261.3M584.8 236.4Q591.7 265.2 589.8 294.8M636.2 111.1Q652.6 108.5 669 110.8M377.3 263.9Q403.4 264.9 428.1 273.5M624.6 126.3Q615.4 120.2 608.4 111.6M538.6 207.3Q537.6 191 541.5 175.2M626.2 182.5Q634.8 155.2 651 131.7M555.7 194.2Q590.1 183.1 626.2 182.5M478.1 205.4Q540.7 177.4 608.8 169.1M608.8 169.1Q657 152.3 708 150.3M537.7 132.5Q533.1 108.7 535.7 84.6M513 211.9Q534.4 223.7 551.3 241.3M523.4 227.7Q517 220.6 513 211.9M551.3 241.3Q574.2 220.1 602.3 206.6M463.4 70.1Q444.3 87.7 420.8 99M468.6 174.6Q470.6 205.3 463.4 235.3M524.8 117Q558 150.5 579.9 192.2M602.7 276.5Q614 245.8 633.8 219.7M541.3 521.5Q562.8 508.5 587.2 502.4M789.8 270.9Q776.3 284.7 759.3 294M849.3 292Q844.2 281 842.6 269M947.4 274.6Q912.1 293.5 872.8 301.3M849.3 292Q835 292 821.3 287.8M824.6 355.4Q826.2 336 833.4 318M889.4 254.9Q876.4 256 863.7 253.3M863.7 253.3Q887.5 259.9 908.4 273.2M821.3 287.8Q839.9 267.4 863.7 253.3M883.8 235Q875.5 225.5 870.4 214M883.8 235Q907.2 243.1 927.2 257.7M561.3 465.9Q576 436.1 598.7 411.9M521.9 411.3Q476.6 435.1 426.3 444.6M526.9 371.7Q582.1 377.9 633.1 400M513.3 393.6Q482.7 395.2 453 387.7M541.9 416.1Q498.9 397.2 463.4 366.5M535.8 386.5Q585.5 386 633.1 400M541.9 416.1Q599.3 404 657.8 409.2M482.6 373.4Q543 392.2 595.2 427.9M501.9 426.7Q549.7 427.9 595 443M451.6 435.8Q522.8 421.1 595.2 427.9M681.4 451.7Q727.8 455 771.1 471.8M657.8 409.2Q637.3 436 609.8 455.5M595 443Q659.3 461.5 715.3 498M633.1 400Q605.6 423 572.5 436.9M448.1 464.5Q508.2 441.4 572.5 436.9M697.1 403Q751.6 414 800.4 440.5M451.6 435.8Q470.5 440.1 487.2 449.8M487.2 449.8Q435.8 461.7 383.2 457.9"/><path class="w" d="M492.2 391.1Q550.8 380.8 609.8 388.2M595.2 427.9Q615.2 420.6 636.5 419.5M541.9 416.1Q589.5 410.7 636.5 419.5M430.6 225.9Q455.6 252 471.9 284.3M465.3 193.3Q481.5 194.8 496.5 200.9M464.6 218.6Q463.1 205.9 465.3 193.3M579.7 208.8Q537.5 211.1 496.5 200.9M463.4 235.3Q482.8 237 500.9 244.3M488.4 172.3Q511.5 206.8 523.5 246.5M535.7 192.1Q522.9 213.8 504.3 230.7M418.2 294.8Q437.1 278.8 459.9 269M658.5 174.3Q619.1 155.8 586.8 126.5M651 131.7Q640.7 146 626.7 156.7M548.6 397.6Q587.8 410 621.6 433.4M526.9 371.7Q578.9 395.4 621.6 433.4M621.6 433.4Q597.3 438.8 572.5 436.9M541.9 416.1Q583 418.8 621.6 433.4M617.1 412.4Q569.4 419 521.9 411.3M657.8 409.2Q637.7 413.9 617.1 412.4M667.9 426.1Q632.7 440 595 443M658.8 440.9Q678.3 431.6 699.6 428.4M658.8 440.9Q630.3 418.2 609.8 388.2M271.7 292.2Q277.3 276.7 287.1 263.6M443.7 207.4Q417.2 175.1 401.4 136.5M668.9 142.8Q672.2 171.1 667.1 199.2M613.2 87.6Q599.9 122.2 577 151.4M538.6 207.3Q553.6 176.5 577 151.4M626.2 182.5Q644.9 168.7 666.8 160.9M710.7 168.1Q695.4 177.1 678.2 181.3M378.4 300.1Q397.9 305.3 415 316M581.7 309.6Q601.8 287.8 627.4 272.8M532.7 276.1Q546.7 251.9 567.1 232.8M518.6 302.6Q497 285.4 481.4 262.7M427.9 173.4Q411.6 169.1 397.2 160.1M708 150.3Q733.6 153.5 757.1 164.1M518.3 330.4Q489.8 336.2 460.8 333.4M602.3 206.6Q613 229.7 616.5 255M708 150.3Q675.7 165.5 640.3 170.6M579.9 192.2Q588.3 226.3 586.3 261.3M503.4 314.9Q545.1 298.4 589.8 294.8M692.8 102.3Q681.5 108.3 669 110.8M411.4 259.2Q394.7 264.1 377.3 263.9M588.9 75.2Q602 79.6 613.2 87.6M581.7 171.6Q561.9 176.4 541.5 175.2M626.2 182.5Q635 137.5 656.6 97M584.8 236.4Q601.5 206.3 626.2 182.5M478.1 205.4Q471.6 169.9 475.9 134M677.8 126.1Q694.7 135.9 708 150.3M475.9 134Q506.3 114.9 540.9 105.6M513 211.9Q522.4 183.1 539.8 158.3M555.7 194.2Q545.1 177.4 539.8 158.3M551.3 241.3Q506.9 244.9 463.4 235.3M490.4 185.7Q519.5 149.9 557.9 124.2M514.9 190.1Q522 159.6 537.7 132.5M602.4 224.5Q641 235.7 674.7 257.7M494.8 88.9Q511.8 71.1 533.2 59.1M541.3 521.5Q530.5 510.3 523.5 496.4M882.3 363.9Q866.3 368.1 849.8 367.5M817.6 265.8Q847.9 279.4 872.8 301.3M876.5 335.3Q872.1 318.6 872.8 301.3M804.7 330.1Q818.1 321.9 833.4 318M821.3 287.8Q829.6 302 833.4 318M889.4 254.9Q890.6 234.5 897.8 215.4M863.7 253.3Q895.8 250.7 927.2 257.7M923.1 227.9Q895.3 245.1 863.7 253.3M875.2 270.7Q868.5 242.7 870.4 214M875.2 270.7Q900.2 260.3 927.2 257.7M521.9 411.3Q435.3 410.8 352.7 385M526.9 371.7Q527.4 391.9 521.9 411.3M482.6 373.4Q504.6 369.2 526.9 371.7M513.3 393.6Q545.6 385.1 579 386.5M481.1 408.8Q539.6 409.8 595.2 427.9M535.8 386.5Q494.5 393.3 453 387.7M541.9 416.1Q558.8 424.2 572.5 436.9M482.6 373.4Q544 399.8 595 443M501.9 426.7Q474.5 410.9 453 387.7M579 386.5Q590.2 406 595.2 427.9M681.4 451.7Q645.9 459 609.8 455.5M487.2 449.8Q548.9 443.5 609.8 455.5M633.1 400Q617.3 424.4 595 443M633.1 400Q616.8 408.5 598.7 411.9M579 386.5Q579.5 412.2 572.5 436.9M800.4 440.5Q830.2 437 859.8 442.5M448.1 464.5Q447.7 449.9 451.6 435.8M579 386.5Q645.6 359 717.3 352.2"/><path class="w" d="M492.2 391.1Q417.5 374.4 350.9 336.6M697.1 403Q668 415.8 636.5 419.5M518.6 302.6Q493.9 297 471.9 284.3M488.4 172.3Q488.6 229.5 471.9 284.3M465.3 193.3Q478 169.3 497.2 150.1M441.2 239.2Q429.5 220.1 424 198.4M538.6 207.3Q517.1 207.3 496.5 200.9M464.6 218.6Q484.7 228.7 500.9 244.3M495.2 296Q505.6 269.1 523.5 246.5M602.4 224.5Q553.8 235 504.3 230.7M444.5 297.3Q450.1 282 459.9 269M626.2 182.5Q641.7 176 658.5 174.3M640.8 200.3Q630.5 179.6 626.7 156.7M548.6 397.6Q584 399.9 617.1 412.4M595.2 427.9Q608.8 428.7 621.6 433.4M621.6 433.4Q608.5 424.4 598.7 411.9M501.9 426.7Q562.3 421.1 621.6 433.4M617.1 412.4Q599.3 418.1 580.6 418.4M535.8 386.5Q578.4 393.4 617.1 412.4M667.9 426.1Q648.5 415.7 633.1 400M699.6 428.4Q639.4 432.3 580.6 418.4M609.8 388.2Q622.3 392.4 633.1 400M616 297.5Q628.4 292.5 641.7 291.3M609.5 137.5Q585 146.4 559 147.8M613.2 87.6Q645.2 111 668.9 142.8M624.6 126.3Q602.7 142.4 577 151.4M581.7 171.6Q577.8 161.9 577 151.4M495.2 296Q446.9 345.7 386.2 379M710.7 168.1Q689.2 126.1 681 79.6M411.4 259.2Q398 282.1 378.4 300.1M668.9 283.6Q647.3 281.3 627.4 272.8M506.3 177.1Q540.9 200.4 567.1 232.8M518.6 302.6Q538.8 277.4 565.4 259.3M427.9 173.4Q409.1 200 383.3 219.9M545.1 226.6Q584.8 224.3 623.4 233.7M518.3 330.4Q544.8 300.8 578.8 280.2M551.3 241.3Q584.9 243.3 616.5 255M441.1 187Q445.1 213.1 441.2 239.2M535.2 291.9Q524.3 280.7 517.1 266.7M517.1 266.7Q552.6 283.3 581.7 309.6M708 150.3Q685.5 133.5 669 110.8M464.6 218.6Q450.5 248.8 428.1 273.5M588.9 75.2Q610.6 98.1 624.6 126.3M520.8 142.3Q533.6 157.2 541.5 175.2M626.2 182.5Q661.8 179.4 696.7 186.8M678.6 218.5Q649.7 204.4 626.2 182.5M478.1 205.4Q502.4 213.2 523.4 227.7M540.9 105.6Q563.8 101.1 587 103.6M475.9 134Q496.7 145.3 513.2 162.1M513 211.9Q546.1 205.3 579.7 208.8M555.7 194.2Q513.6 180.4 477.4 154.8M497.8 275.9Q503.5 295 503.4 314.9M490.4 185.7Q535 171.8 581.7 171.6M514.9 190.1Q490.6 185.8 468.6 174.6M602.4 224.5Q619.8 209.5 640.8 200.3M494.8 88.9Q472.1 104.6 445.7 112.9M489.2 496.8Q506.3 494 523.5 496.4M814.1 309.1Q842.9 300.8 872.8 301.3M849.3 292Q831.5 281.3 817.6 265.8M876.5 335.3Q859.7 315.7 849.3 292M860.6 320.2Q833.4 329.3 804.7 330.1M908.1 243.9Q886.6 251.9 863.7 253.3M889.4 254.9Q900.3 262.6 908.4 273.2M863.7 253.3Q882.1 270.4 894.6 292.1M883.8 235Q889.3 224.2 897.8 215.4M923.1 227.9Q895.7 224.9 870.4 214M923.1 227.9Q927.4 242.5 927.2 257.7M521.9 411.3Q489.3 393.3 463.4 366.5M482.6 373.4Q505.1 389.4 521.9 411.3M579 386.5Q551.8 383 526.9 371.7M541.9 416.1Q525.9 407 513.3 393.6M481.1 408.8Q531.6 406.1 580.6 418.4M541.9 416.1Q569.4 418 595.2 427.9M541.9 416.1Q570 409.7 598.7 411.9M482.6 373.4Q543.5 383.9 598.7 411.9M455.1 416.6Q451.9 402.3 453 387.7M580.6 418.4Q641.6 439.6 693.8 477.7M711.1 454Q696.1 455.1 681.4 451.7M641.8 456Q617.4 453 595 443M657.8 409.2Q628.9 430.8 595 443M579 386.5Q607.1 389.2 633.1 400M697.1 403Q648.6 414.8 598.7 411.9M800.4 440.5Q828.3 449.4 852.4 466M579 386.5Q519 420.7 451.6 435.8"/></g>
<g><path class="f" style="animation-delay:-0.0s" d="M521.9 411.3Q505.5 403.4 492.2 391.1M579 386.5Q535.9 395.3 492.2 391.1M681.4 451.7Q656.5 439 636.5 419.5M518.3 330.4Q491.6 310.8 471.9 284.3M495.2 296Q482.7 291.9 471.9 284.3M465.3 193.3Q486.9 216.1 500.9 244.3M513.2 162.1Q471.3 186.9 424 198.4M463.4 235.3Q477.4 215.6 496.5 200.9M497.2 150.1Q534.9 178.2 562.6 216.1M448.7 257.3Q474.5 239.8 504.3 230.7M488.4 172.3Q500.7 200.3 504.3 230.7M551.3 241.3Q507.7 262 459.9 269M651 131.7Q657.9 152.4 658.5 174.3M912.7 446.6Q901.8 456.7 888.4 463.2M548.6 397.6Q575.2 416.8 595 443M580.6 418.4Q602.2 422.8 621.6 433.4M711.1 454Q664.8 450.4 621.6 433.4M579 386.5Q603.8 406.8 621.6 433.4M617.1 412.4Q680.4 435.2 734.3 475.6M541.9 416.1Q579.2 408.6 617.1 412.4M667.9 426.1Q661.6 418.4 657.8 409.2M699.6 428.4Q648.4 443.5 595 443M609.8 388.2Q679.2 377.3 748.8 387.3M602.8 243.5Q625.8 264.5 641.7 291.3M609.5 137.5Q639.9 144.9 666.8 160.9M624.6 126.3Q648 131.2 668.9 142.8M608.4 111.6Q595.7 133.9 577 151.4M520.8 142.3Q549.6 142.6 577 151.4M338.1 365.7Q363.1 368.7 386.2 379M710.7 168.1Q726.3 192.3 734.1 220M391 283.7Q405.4 298.1 415 316M690.2 291.6Q657.4 286.9 627.4 272.8M535.7 192.1Q554.5 210.1 567.1 232.8M543.8 311.7Q550.7 283.9 565.4 259.3M475.9 134Q454.9 157.3 427.9 173.4M579.7 208.8Q603.4 218 623.4 233.7M578.8 280.2Q607.6 259.6 641.1 248.3M640.3 170.6Q655.8 182.9 667.1 199.2M487.6 220.9Q461.8 207.4 441.1 187M535.2 291.9Q562.7 289.3 589.8 294.8M584.8 236.4Q553.2 256.6 517.1 266.7M587 103.6Q628.5 101 669 110.8M448.7 257.3Q449.6 277.6 444.5 297.3M532.7 276.1Q555.3 297.7 570.5 324.9M468.6 174.6Q505.1 169.4 541.5 175.2M626.2 182.5Q625.8 146.1 636.2 111.1M651 131.7Q651.2 113.9 656.6 97M478.1 205.4Q482.8 194.6 490.4 185.7M557.9 124.2Q570.9 111.7 587 103.6M475.9 134Q490.3 127 506.2 124.6M513 211.9Q533 199.8 555.7 194.2M555.7 194.2Q523.7 212.7 487.6 220.9M506.3 177.1Q474.8 161.5 449.2 137.4M490.4 185.7Q502.3 161.7 520.8 142.3M514.9 190.1Q537 175.8 562.3 168.7M674.7 257.7Q673.7 237.8 678.6 218.5M644.8 343.6Q631.8 348.9 617.8 350.1M548.4 575.1Q569 572.5 589.4 576M814.1 309.1Q830.4 297.9 849.3 292M915.9 319.5Q893 313.6 872.8 301.3M849.3 292Q835.2 257.9 831.8 221.2M794.3 295.4Q802.1 312 804.7 330.1M908.1 243.9Q900.8 230.4 897.8 215.4M889.4 254.9Q908.5 253.5 927.2 257.7M863.7 253.3Q844.4 250.8 826.7 242.7M875.2 270.7Q882.4 241.4 897.8 215.4M883.8 235Q870 235.6 856.6 232.1M513.3 393.6Q524 427.6 524.3 463.2M521.9 411.3Q559.8 414.1 595.2 427.9M419.2 406.4Q498.1 410.2 572.5 436.9M513.3 393.6Q453.8 376.5 401.9 342.7M463.4 366.5Q392.4 339.7 332.3 293.2M481.1 408.8Q528.9 416 572.5 436.9M541.9 416.1Q561.4 414.3 580.6 418.4M541.9 416.1Q498.5 422.9 455.1 416.6M482.6 373.4Q403.3 358.1 332 320.2M579 386.5Q516.1 396.6 453 387.7M580.6 418.4Q589.6 429.6 595 443M658.8 440.9Q670.9 444.6 681.4 451.7M641.8 456Q633.3 428.7 633.1 400M426.3 444.6Q510.5 431.1 595 443M658.8 440.9Q655.9 425.1 657.8 409.2M658.8 440.9Q626.6 430.9 598.7 411.9M800.4 440.5Q813.2 446.8 823.5 456.5M448.1 464.5Q404.6 478.5 358.8 479.2"/><path class="f" style="animation-delay:-0.9s" d="M617.1 412.4Q553.1 411.1 492.2 391.1M350.9 336.6Q320.8 334.7 292.6 324.1M711.1 454Q671.2 442.3 636.5 419.5M543.8 311.7Q505.8 303.4 471.9 284.3M338.1 365.7Q398.9 315 471.9 284.3M441.1 187Q453.7 188.3 465.3 193.3M463.4 235.3Q440.9 219.8 424 198.4M464.6 218.6Q479.2 207.4 496.5 200.9M448.7 257.3Q485.3 246.3 523.5 246.5M555.5 275.8Q526.5 257.1 504.3 230.7M495.2 296Q494.9 262.7 504.3 230.7M463.4 235.3Q464.2 252.4 459.9 269M692.8 102.3Q681.1 140.9 658.5 174.3M548.6 397.6Q477.2 391.3 410.7 364.3M548.6 397.6Q591 392.5 633.1 400M621.6 433.4Q680.8 423.6 740.2 431.5M641.8 456Q630 446.2 621.6 433.4M526.9 371.7Q575.1 385.3 617.1 412.4M617.1 412.4Q608.3 429.4 595 443M667.9 426.1Q631.7 432.5 595.2 427.9M667.9 426.1Q621 438.7 572.5 436.9M699.6 428.4Q740.3 414.3 783.4 412.8M535.8 386.5Q572.9 381.8 609.8 388.2M613.6 324.5Q625.2 305.8 641.7 291.3M626.2 182.5Q614.5 161.3 609.5 137.5M626.2 182.5Q644.6 159.4 668.9 142.8M677.8 126.1Q629.3 146.3 577 151.4M468.6 174.6Q521.1 154.9 577 151.4M710.7 168.1Q698.5 162.3 688.5 153.1M710.7 168.1Q733.6 162.6 757.1 164.1M418.2 294.8Q403.8 291.3 391 283.7M579.9 192.2Q609.7 228.9 627.4 272.8M370.7 190.2Q387.3 184.3 404.9 183.6M555.5 275.8Q559.2 266.8 565.4 259.3M513 211.9Q467.6 199 427.9 173.4M481.3 245.2Q511.8 231.1 545.1 226.6M578.8 280.2Q565.9 249.4 562.6 216.1M626.2 182.5Q647.9 187.8 667.1 199.2M543.8 311.7Q561.3 283.3 586.3 261.3M535.2 291.9Q559.8 297.3 581.7 309.6M581.7 309.6Q567.4 323.9 549.5 333.3M649.4 149Q605.1 126.5 569.3 92M418.2 294.8Q431.5 294.1 444.5 297.3M555.5 275.8Q602.3 265.1 650.2 268.7M562.3 168.7Q552.4 173.5 541.5 175.2M602.3 206.6Q612.4 192.8 626.2 182.5M651 131.7Q642.1 122.5 636.2 111.1M478.1 205.4Q495.4 195 514.9 190.1M537.7 132.5Q560.2 114.4 587 103.6M540.9 105.6Q531.3 135.9 513.2 162.1M513 211.9Q490.9 186 477.4 154.8M539.8 158.3Q508.3 161.2 477.4 154.8M506.3 177.1Q459.2 202 406.9 212M557.9 124.2Q573.4 146.1 581.7 171.6M537.7 132.5Q506.3 158.7 468.6 174.6M678.6 218.5Q658.3 212.2 640.8 200.3M644.8 343.6Q618.7 345.7 593.1 340.1M622.9 559.9Q613 547.4 607.2 532.5M843.3 338.3Q855.3 317.6 872.8 301.3M915.9 319.5Q934.6 308.2 955.8 302.8M798.4 357.2Q776.5 347.3 758.5 331.4M824.6 355.4Q812.8 344.2 804.7 330.1M908.1 243.9Q910.4 258.5 908.4 273.2M889.4 254.9Q894.8 273.1 894.6 292.1M863.7 253.3Q864.1 233.1 870.4 214M923.1 227.9Q909.5 223.5 897.8 215.4M875.2 270.7Q863 252.8 856.6 232.1M541.9 416.1Q536.6 441 524.3 463.2M521.9 411.3Q551.8 410.4 580.6 418.4M419.2 406.4Q434.7 394.5 453 387.7M513.3 393.6Q556.8 404.6 595.2 427.9M463.4 366.5Q525.9 383.7 580.6 418.4M481.1 408.8Q465.5 400.4 453 387.7M541.9 416.1Q578.8 430.7 609.8 455.5M541.9 416.1Q460.1 419.3 381 398.3M426.3 444.6Q462.8 430 501.9 426.7M595.2 427.9Q668.1 429.9 737.2 453.2M641.8 456Q608.4 441.8 580.6 418.4M711.1 454Q742.1 472.9 766.1 500M641.8 456Q605.7 451.6 572.5 436.9M487.2 449.8Q540.6 438.3 595 443M657.8 409.2Q617.2 429.4 572.5 436.9M598.7 411.9Q661.5 399.3 725.2 405.6M800.4 440.5Q816.1 432.4 833.5 429.2M448.1 464.5Q435.7 456.2 426.3 444.6"/><path class="f" style="animation-delay:-1.8s" d="M451.6 435.8Q468.5 410.4 492.2 391.1M548.6 397.6Q594.2 402 636.5 419.5M667.9 426.1Q651.7 425.2 636.5 419.5M448.7 257.3Q462.3 269.1 471.9 284.3M424 198.4Q432.4 177.5 446.6 159.9M513.2 162.1Q491.6 181.3 465.3 193.3M464.6 218.6Q442.8 211.5 424 198.4M500.9 244.3Q529.6 225.6 562.6 216.1M555.5 275.8Q537.3 263.5 523.5 246.5M532.7 276.1Q515.1 255.5 504.3 230.7M383.3 219.9Q425.3 238.7 459.9 269M468.6 174.6Q471.3 222.5 459.9 269M678.6 218.5Q665.2 197.9 658.5 174.3M548.6 397.6Q536.3 406.5 521.9 411.3M548.6 397.6Q574.7 401 598.7 411.9M621.6 433.4Q617.4 445.3 609.8 455.5M667.9 426.1Q645.3 433.2 621.6 433.4M513.3 393.6Q566.6 395.2 617.1 412.4M617.1 412.4Q611.6 400.8 609.8 388.2M667.9 426.1Q623.7 428.8 580.6 418.4M667.9 426.1Q632.2 424.2 598.7 411.9M521.9 411.3Q564.1 393.2 609.8 388.2M541.9 416.1Q573.8 397.1 609.8 388.2M602.8 243.5Q613.4 269.5 616 297.5M651 131.7Q630.7 137.7 609.5 137.5M696.7 186.8Q679.5 166.9 668.9 142.8M513.2 162.1Q544.3 152 577 151.4M562.3 168.7Q568.4 158.9 577 151.4M651 131.7Q671.4 139.6 688.5 153.1M626.2 182.5Q667.4 169 710.7 168.1M411.4 259.2Q403 273 391 283.7M549.5 333.3Q590 317.5 633.3 314.2M397.2 160.1Q402.8 171.3 404.9 183.6M532.7 276.1Q547.8 265.2 565.4 259.3M514.9 190.1Q470.1 188.3 427.9 173.4M513 211.9Q499.6 230.9 481.3 245.2M562.6 216.1Q604.3 226.3 641.1 248.3M696.7 186.8Q682.8 195.2 667.1 199.2M543.8 311.7Q538 302.4 535.2 291.9M535.2 291.9Q545.5 311.5 549.5 333.3M736.6 147Q700.1 134 669 110.8M649.4 149Q688.2 166.3 720.2 194.2M711 276.7Q690.5 283.3 668.9 283.6M513.2 162.1Q528.3 166.5 541.5 175.2M464.6 218.6Q499.8 191.1 541.5 175.2M551.3 241.3Q584.3 206.3 626.2 182.5M636.2 111.1Q663.8 102.5 692.8 102.3M478.1 205.4Q448.8 237.3 411.4 259.2M535.7 84.6Q519 78 504.9 66.7M540.9 105.6Q525 117.7 506.2 124.6M513 211.9Q550.7 218.8 584.8 236.4M584.8 236.4Q568.4 241.4 551.3 241.3M523.4 227.7Q529.5 216.4 538.6 207.3M557.9 124.2Q540.7 136 520.8 142.3M537.7 132.5Q552.7 148.8 562.3 168.7M488.4 172.3Q480.7 142.5 482 111.8M593.1 340.1Q606.2 343.2 617.8 350.1M789.8 270.9Q776.2 269.2 763.7 263.5M843.3 338.3Q822.3 351.1 798.4 357.2M921.8 296.6Q920.6 308.5 915.9 319.5M849.3 292Q861.7 294.9 872.8 301.3M821.3 287.8Q816.2 310.2 804.7 330.1M908.1 243.9Q905 269 894.6 292.1M889.4 254.9Q876.8 235.9 870.4 214M863.7 253.3Q858.6 243.2 856.6 232.1M883.8 235Q899 252.3 908.4 273.2M923.1 227.9Q890.2 235 856.6 232.1M561.3 465.9Q537.5 441.6 521.9 411.3M521.9 411.3Q560.8 421.7 595 443M426.3 444.6Q419.9 426 419.2 406.4M513.3 393.6Q548.8 401 580.6 418.4M463.4 366.5Q463 392.2 455.1 416.6M541.9 416.1Q511 417 481.1 408.8M541.9 416.1Q594.8 428.6 641.8 456M541.9 416.1Q522.7 424.4 501.9 426.7M487.2 449.8Q492.8 437.1 501.9 426.7M595.2 427.9Q595.8 419.6 598.7 411.9M658.8 440.9Q618 435.5 580.6 418.4M658.8 440.9Q685.9 443.5 711.1 454M641.8 456Q616.9 437.2 598.7 411.9M579 386.5Q591.2 413.6 595 443M657.8 409.2Q628.5 415 598.7 411.9M448.1 464.5Q519.5 426.9 598.7 411.9M800.4 440.5Q817.7 458.8 828.8 481.3M448.1 464.5Q466.5 454.2 487.2 449.8"/><path class="f" style="animation-delay:-2.7s" d="M535.8 386.5Q514.3 392.1 492.2 391.1M521.9 411.3Q579.8 406.8 636.5 419.5M658.8 440.9Q646 431.9 636.5 419.5M555.5 275.8Q514.3 286.3 471.9 284.3M496.5 200.9Q468.5 184.1 446.6 159.9M513 211.9Q487.8 206.2 465.3 193.3M496.5 200.9Q493 175.4 497.2 150.1M441.2 239.2Q471.4 237.3 500.9 244.3M532.7 276.1Q525.9 262 523.5 246.5M443.7 207.4Q475.7 214.5 504.3 230.7M459.9 269Q477 296.7 485.2 328.2M557.7 297Q506.7 290.3 459.9 269M640.8 200.3Q647.7 186 658.5 174.3M548.6 397.6Q535.8 386.3 526.9 371.7M548.6 397.6Q578.5 388.3 609.8 388.2M621.6 433.4Q617.8 423.2 617.1 412.4M658.8 440.9Q639.6 439.9 621.6 433.4M697.1 403Q657.8 413.7 617.1 412.4M617.1 412.4Q596.1 402.3 579 386.5M667.9 426.1Q676.6 437.9 681.4 451.7M667.9 426.1Q683.9 424.9 699.6 428.4M526.9 371.7Q569.6 373.7 609.8 388.2M579 386.5Q594.5 385 609.8 388.2M613.6 324.5Q612.8 310.8 616 297.5M559 147.8Q568.3 148.3 577 151.4M577 151.4Q593.3 168.1 604 188.8M506.2 124.6Q543.6 132.7 577 151.4M464.6 218.6Q515.8 176.6 577 151.4M656.6 97Q676.8 122.7 688.5 153.1M651 131.7Q683.6 145.4 710.7 168.1M633.3 314.2Q627.2 293.9 627.4 272.8M668.9 283.6Q653.4 301.6 633.3 314.2M513 211.9Q456.8 205.9 404.9 183.6M535.7 192.1Q555.6 223.5 565.4 259.3M397.2 160.1Q386.2 177.1 370.7 190.2M523.4 227.7Q503.7 239.6 481.3 245.2M544.3 255.9Q580.3 250 616.5 255M541.5 175.2Q590.6 165.5 640.3 170.6M517.1 266.7Q551.3 258.8 586.3 261.3M513 211.9Q530.1 250.2 535.2 291.9M719.8 118.3Q730.4 131.4 736.6 147M649.4 149Q682.3 128.4 719.8 118.3M711 276.7Q701.7 285.7 690.2 291.6M506.2 124.6Q527.6 147.3 541.5 175.2M443.7 207.4Q430.9 178.3 427.2 146.7M539.8 158.3Q584.8 163.9 626.2 182.5M587 103.6Q612.2 103.7 636.2 111.1M677.8 126.1Q697.1 105.7 721.5 91.9M540.9 105.6Q536.7 95.5 535.7 84.6M443.7 207.4Q478.7 204.5 513 211.9M513 211.9Q510.2 245 497.8 275.9M584.8 236.4Q580.2 223 579.7 208.8M457.7 93.2Q458.8 81.2 463.4 70.1M487.6 220.9Q476.6 229.9 463.4 235.3M411.4 259.2Q435 234.9 464.6 218.6M495.2 296Q547.5 278.2 602.7 276.5M694.6 318.6Q679.2 315.1 665.5 307.3M789.8 270.9Q786.4 293.2 776.6 313.5M843.3 338.3Q842.8 314.7 849.3 292M921.8 296.6Q933 283.7 947.4 274.6M849.3 292Q857.1 305.3 860.6 320.2M860.6 320.2Q846.8 321.1 833.4 318M908.1 243.9Q887 231.8 870.4 214M889.4 254.9Q871.3 246 856.6 232.1M883.8 235Q875.1 245.7 863.7 253.3M875.2 270.7Q892 269.5 908.4 273.2M875.2 270.7Q886.5 279.9 894.6 292.1M561.3 465.9Q575.4 444.4 595.2 427.9M521.9 411.3Q576.7 397.3 633.1 400M487.2 449.8Q449.9 433.2 419.2 406.4M513.3 393.6Q557.4 396.3 598.7 411.9M463.4 366.5Q459.8 377.9 453 387.7M501.9 426.7Q490.2 419.3 481.1 408.8M541.9 416.1Q570.5 425.6 595 443M541.9 416.1Q495.3 408.6 453 387.7M501.9 426.7Q540.6 416.6 580.6 418.4M658.8 440.9Q626 439.2 595.2 427.9M572.5 436.9Q575.2 427 580.6 418.4M609.8 455.5Q589.8 449 572.5 436.9M658.8 440.9Q651.4 449.7 641.8 456M658.8 440.9Q642.9 422.4 633.1 400M658.8 440.9Q615.4 445.4 572.5 436.9M487.2 449.8Q540.1 422.5 598.7 411.9M658.8 440.9Q714.3 435 769.1 445.7M426.3 444.6Q381.2 454.7 335.2 451.2"/><path class="f" style="animation-delay:-3.6s" d="M492.2 391.1Q555.8 414.5 609.8 455.5M526.9 371.7Q585.3 387.4 636.5 419.5M636.5 419.5Q626.3 417.4 617.1 412.4M532.7 276.1Q502.9 284.8 471.9 284.3M497.2 150.1Q472.6 158.8 446.6 159.9M523.4 227.7Q491.8 214.9 465.3 193.3M441.2 239.2Q466 215.9 496.5 200.9M513.2 162.1Q513.2 204.1 500.9 244.3M535.7 192.1Q533.7 220.2 523.5 246.5M506.3 177.1Q509.3 204 504.3 230.7M381.5 242.7Q422.7 250 459.9 269M658.5 174.3Q640.9 133.1 636.1 88.6M656 220.8Q636.5 190.9 626.7 156.7M548.6 397.6Q574.2 409.3 595.2 427.9M548.6 397.6Q503.3 414.1 455.1 416.6M621.6 433.4Q609 440.2 595 443M699.6 428.4Q661 436.8 621.6 433.4M681.4 451.7Q646.3 436.9 617.1 412.4M667.9 426.1Q641.5 423.1 617.1 412.4M667.9 426.1Q691.6 436.8 711.1 454M658.8 440.9Q662.2 432.8 667.9 426.1M463.4 366.5Q538.2 366.4 609.8 388.2M748.8 387.3Q780.9 392.1 810.2 406.1M602.8 243.5Q599.3 216.1 604 188.8M668.9 142.8Q669.2 152 666.8 160.9M602.3 206.6Q601.8 197.6 604 188.8M602.3 206.6Q585.5 180.9 577 151.4M710.7 168.1Q688.2 167.8 666.8 160.9M710.7 168.1Q729.2 176.4 744.5 189.7M678.2 181.3Q712 180.5 744.5 189.7M586.3 261.3Q607.7 264 627.4 272.8M517.1 266.7Q464.2 262.2 415 242.3M449.2 137.4Q430.5 163.8 404.9 183.6M490.4 185.7Q491.7 224.9 481.4 262.7M468.6 174.6Q431.8 172.7 397.2 160.1M584.8 236.4Q564.2 234.5 545.1 226.6M513 211.9Q531.9 231.6 544.3 255.9M626.2 182.5Q632.4 175.5 640.3 170.6M589.8 294.8Q585.5 278.3 586.3 261.3M503.4 314.9Q517.6 301 535.2 291.9M649.4 149Q656.3 128.4 669 110.8M649.4 149Q679.9 175.2 701.4 209.2M613.2 87.6Q612.6 100 608.4 111.6M602.3 206.6Q569.5 195.5 541.5 175.2M506.3 177.1Q464.5 167.8 427.2 146.7M579.7 208.8Q601 192.2 626.2 182.5M677.8 126.1Q712.8 119.6 748.1 123.7M608.8 169.1Q640.1 142.4 677.8 126.1M557.9 124.2Q543.8 106.1 535.7 84.6M513 211.9Q557.3 202.6 602.3 206.6M513 211.9Q501 218.3 487.6 220.9M579.7 208.8Q590.8 206 602.3 206.6M457.7 93.2Q439.7 98.9 420.8 99M514.9 190.1Q503.6 207.5 487.6 220.9M535.7 192.1Q524.6 155.4 524.8 117M602.7 276.5Q581.7 290.1 557.7 297M541.3 521.5Q530.2 540 514.2 554.5M789.8 270.9Q790.9 245.9 799.2 222.4M842.6 269Q860.1 282.9 872.8 301.3M921.8 296.6Q885.2 299.7 849.3 292M849.3 292Q822.1 297.8 794.3 295.4M794.3 295.4Q815.5 303.8 833.4 318M908.1 243.9Q881.5 241.9 856.6 232.1M863.7 253.3Q877.9 231.8 897.8 215.4M875.2 270.7Q868.1 262.9 863.7 253.3M923.1 227.9Q919.1 251.7 908.4 273.2M883.8 235Q855.8 243.1 826.7 242.7M561.3 465.9Q576.4 451.9 595 443M521.9 411.3Q560.3 405.8 598.7 411.9M526.9 371.7Q449 373 374.1 351.4M513.3 393.6Q498.3 403.6 481.1 408.8M463.4 366.5Q522.7 367.8 579 386.5M535.8 386.5Q613.5 408.2 681.4 451.7M541.9 416.1Q586.3 401.2 633.1 400M579 386.5Q562.7 404.1 541.9 416.1M501.9 426.7Q558 433 609.8 455.5M657.8 409.2Q627.9 423.2 595.2 427.9M455.1 416.6Q518 408.1 580.6 418.4M658.8 440.9Q635.4 451.9 609.8 455.5M658.8 440.9Q627.1 446.7 595 443M633.1 400Q695 396.3 755.2 411M572.5 436.9Q583.7 422.4 598.7 411.9M579 386.5Q590.8 397.7 598.7 411.9M451.6 435.8Q402.6 440.7 354.4 431M487.2 449.8Q456.4 451.8 426.3 444.6"/><path class="f" style="animation-delay:-4.5s" d="M492.2 391.1Q535.8 408 572.5 436.9M513.3 393.6Q576.8 397.3 636.5 419.5M636.5 419.5Q617 418.5 598.7 411.9M443.7 207.4Q463.6 243.7 471.9 284.3M465.3 193.3Q445 198.9 424 198.4M487.6 220.9Q474.4 208.8 465.3 193.3M513.2 162.1Q507.8 182.8 496.5 200.9M538.6 207.3Q522.5 228.6 500.9 244.3M602.4 224.5Q564.6 241.4 523.5 246.5M430.6 225.9Q467.8 222.8 504.3 230.7M441.2 239.2Q452.8 252.7 459.9 269M658.5 174.3Q686 199.6 704.9 231.9M626.2 182.5Q624.5 169.6 626.7 156.7M548.6 397.6Q566.2 405.6 580.6 418.4M521.9 411.3Q573.4 414.9 621.6 433.4M621.6 433.4Q624.8 415.8 633.1 400M487.2 449.8Q553.2 431.5 621.6 433.4M609.8 455.5Q610.2 433.4 617.1 412.4M658.8 440.9Q635.8 429.8 617.1 412.4M667.9 426.1Q657.1 443 641.8 456M711.1 454Q703.4 442.1 699.6 428.4M697.1 403Q652.3 402.1 609.8 388.2M271.7 292.2Q264.9 307.6 253.8 320.3M559 147.8Q588.1 192.4 602.8 243.5M668.9 142.8Q656.7 158.8 640.3 170.6M678.2 181.3Q625.4 173.9 577 151.4M539.8 158.3Q557.9 152.1 577 151.4M608.4 111.6Q641.3 131.9 666.8 160.9M710.7 168.1Q704.4 150.6 703.5 132M678.2 181.3Q687.2 154.8 703.5 132M589.8 294.8Q606.9 281 627.4 272.8M555.5 275.8Q558.1 253.4 567.1 232.8M406.9 212Q403.8 198 404.9 183.6M427.9 173.4Q400.6 186.1 370.7 190.2M444.5 297.3Q431.2 308.9 415 316M538.6 207.3Q543.3 216.5 545.1 226.6M555.7 194.2Q554.6 225.9 544.3 255.9M696.7 186.8Q667.3 182.9 640.3 170.6M551.3 241.3Q570.3 248.7 586.3 261.3M584.8 236.4Q591.7 265.2 589.8 294.8M636.2 111.1Q652.6 108.5 669 110.8M377.3 263.9Q403.4 264.9 428.1 273.5M624.6 126.3Q615.4 120.2 608.4 111.6M538.6 207.3Q537.6 191 541.5 175.2M626.2 182.5Q634.8 155.2 651 131.7M555.7 194.2Q590.1 183.1 626.2 182.5M478.1 205.4Q540.7 177.4 608.8 169.1M608.8 169.1Q657 152.3 708 150.3M537.7 132.5Q533.1 108.7 535.7 84.6M513 211.9Q534.4 223.7 551.3 241.3M523.4 227.7Q517 220.6 513 211.9M551.3 241.3Q574.2 220.1 602.3 206.6M463.4 70.1Q444.3 87.7 420.8 99M468.6 174.6Q470.6 205.3 463.4 235.3M524.8 117Q558 150.5 579.9 192.2M602.7 276.5Q614 245.8 633.8 219.7M541.3 521.5Q562.8 508.5 587.2 502.4M789.8 270.9Q776.3 284.7 759.3 294M849.3 292Q844.2 281 842.6 269M947.4 274.6Q912.1 293.5 872.8 301.3M849.3 292Q835 292 821.3 287.8M824.6 355.4Q826.2 336 833.4 318M889.4 254.9Q876.4 256 863.7 253.3M863.7 253.3Q887.5 259.9 908.4 273.2M821.3 287.8Q839.9 267.4 863.7 253.3M883.8 235Q875.5 225.5 870.4 214M883.8 235Q907.2 243.1 927.2 257.7M561.3 465.9Q576 436.1 598.7 411.9M521.9 411.3Q476.6 435.1 426.3 444.6M526.9 371.7Q582.1 377.9 633.1 400M513.3 393.6Q482.7 395.2 453 387.7M541.9 416.1Q498.9 397.2 463.4 366.5M535.8 386.5Q585.5 386 633.1 400M541.9 416.1Q599.3 404 657.8 409.2M482.6 373.4Q543 392.2 595.2 427.9M501.9 426.7Q549.7 427.9 595 443M451.6 435.8Q522.8 421.1 595.2 427.9M681.4 451.7Q727.8 455 771.1 471.8M657.8 409.2Q637.3 436 609.8 455.5M595 443Q659.3 461.5 715.3 498M633.1 400Q605.6 423 572.5 436.9M448.1 464.5Q508.2 441.4 572.5 436.9M697.1 403Q751.6 414 800.4 440.5M451.6 435.8Q470.5 440.1 487.2 449.8M487.2 449.8Q435.8 461.7 383.2 457.9"/><path class="f" style="animation-delay:-5.4s" d="M492.2 391.1Q550.8 380.8 609.8 388.2M595.2 427.9Q615.2 420.6 636.5 419.5M541.9 416.1Q589.5 410.7 636.5 419.5M430.6 225.9Q455.6 252 471.9 284.3M465.3 193.3Q481.5 194.8 496.5 200.9M464.6 218.6Q463.1 205.9 465.3 193.3M579.7 208.8Q537.5 211.1 496.5 200.9M463.4 235.3Q482.8 237 500.9 244.3M488.4 172.3Q511.5 206.8 523.5 246.5M535.7 192.1Q522.9 213.8 504.3 230.7M418.2 294.8Q437.1 278.8 459.9 269M658.5 174.3Q619.1 155.8 586.8 126.5M651 131.7Q640.7 146 626.7 156.7M548.6 397.6Q587.8 410 621.6 433.4M526.9 371.7Q578.9 395.4 621.6 433.4M621.6 433.4Q597.3 438.8 572.5 436.9M541.9 416.1Q583 418.8 621.6 433.4M617.1 412.4Q569.4 419 521.9 411.3M657.8 409.2Q637.7 413.9 617.1 412.4M667.9 426.1Q632.7 440 595 443M658.8 440.9Q678.3 431.6 699.6 428.4M658.8 440.9Q630.3 418.2 609.8 388.2M271.7 292.2Q277.3 276.7 287.1 263.6M443.7 207.4Q417.2 175.1 401.4 136.5M668.9 142.8Q672.2 171.1 667.1 199.2M613.2 87.6Q599.9 122.2 577 151.4M538.6 207.3Q553.6 176.5 577 151.4M626.2 182.5Q644.9 168.7 666.8 160.9M710.7 168.1Q695.4 177.1 678.2 181.3M378.4 300.1Q397.9 305.3 415 316M581.7 309.6Q601.8 287.8 627.4 272.8M532.7 276.1Q546.7 251.9 567.1 232.8M518.6 302.6Q497 285.4 481.4 262.7M427.9 173.4Q411.6 169.1 397.2 160.1M708 150.3Q733.6 153.5 757.1 164.1M518.3 330.4Q489.8 336.2 460.8 333.4M602.3 206.6Q613 229.7 616.5 255M708 150.3Q675.7 165.5 640.3 170.6M579.9 192.2Q588.3 226.3 586.3 261.3M503.4 314.9Q545.1 298.4 589.8 294.8M692.8 102.3Q681.5 108.3 669 110.8M411.4 259.2Q394.7 264.1 377.3 263.9M588.9 75.2Q602 79.6 613.2 87.6M581.7 171.6Q561.9 176.4 541.5 175.2M626.2 182.5Q635 137.5 656.6 97M584.8 236.4Q601.5 206.3 626.2 182.5M478.1 205.4Q471.6 169.9 475.9 134M677.8 126.1Q694.7 135.9 708 150.3M475.9 134Q506.3 114.9 540.9 105.6M513 211.9Q522.4 183.1 539.8 158.3M555.7 194.2Q545.1 177.4 539.8 158.3M551.3 241.3Q506.9 244.9 463.4 235.3M490.4 185.7Q519.5 149.9 557.9 124.2M514.9 190.1Q522 159.6 537.7 132.5M602.4 224.5Q641 235.7 674.7 257.7M494.8 88.9Q511.8 71.1 533.2 59.1M541.3 521.5Q530.5 510.3 523.5 496.4M882.3 363.9Q866.3 368.1 849.8 367.5M817.6 265.8Q847.9 279.4 872.8 301.3M876.5 335.3Q872.1 318.6 872.8 301.3M804.7 330.1Q818.1 321.9 833.4 318M821.3 287.8Q829.6 302 833.4 318M889.4 254.9Q890.6 234.5 897.8 215.4M863.7 253.3Q895.8 250.7 927.2 257.7M923.1 227.9Q895.3 245.1 863.7 253.3M875.2 270.7Q868.5 242.7 870.4 214M875.2 270.7Q900.2 260.3 927.2 257.7M521.9 411.3Q435.3 410.8 352.7 385M526.9 371.7Q527.4 391.9 521.9 411.3M482.6 373.4Q504.6 369.2 526.9 371.7M513.3 393.6Q545.6 385.1 579 386.5M481.1 408.8Q539.6 409.8 595.2 427.9M535.8 386.5Q494.5 393.3 453 387.7M541.9 416.1Q558.8 424.2 572.5 436.9M482.6 373.4Q544 399.8 595 443M501.9 426.7Q474.5 410.9 453 387.7M579 386.5Q590.2 406 595.2 427.9M681.4 451.7Q645.9 459 609.8 455.5M487.2 449.8Q548.9 443.5 609.8 455.5M633.1 400Q617.3 424.4 595 443M633.1 400Q616.8 408.5 598.7 411.9M579 386.5Q579.5 412.2 572.5 436.9M800.4 440.5Q830.2 437 859.8 442.5M448.1 464.5Q447.7 449.9 451.6 435.8M579 386.5Q645.6 359 717.3 352.2"/><path class="f" style="animation-delay:-6.3s" d="M492.2 391.1Q417.5 374.4 350.9 336.6M697.1 403Q668 415.8 636.5 419.5M518.6 302.6Q493.9 297 471.9 284.3M488.4 172.3Q488.6 229.5 471.9 284.3M465.3 193.3Q478 169.3 497.2 150.1M441.2 239.2Q429.5 220.1 424 198.4M538.6 207.3Q517.1 207.3 496.5 200.9M464.6 218.6Q484.7 228.7 500.9 244.3M495.2 296Q505.6 269.1 523.5 246.5M602.4 224.5Q553.8 235 504.3 230.7M444.5 297.3Q450.1 282 459.9 269M626.2 182.5Q641.7 176 658.5 174.3M640.8 200.3Q630.5 179.6 626.7 156.7M548.6 397.6Q584 399.9 617.1 412.4M595.2 427.9Q608.8 428.7 621.6 433.4M621.6 433.4Q608.5 424.4 598.7 411.9M501.9 426.7Q562.3 421.1 621.6 433.4M617.1 412.4Q599.3 418.1 580.6 418.4M535.8 386.5Q578.4 393.4 617.1 412.4M667.9 426.1Q648.5 415.7 633.1 400M699.6 428.4Q639.4 432.3 580.6 418.4M609.8 388.2Q622.3 392.4 633.1 400M616 297.5Q628.4 292.5 641.7 291.3M609.5 137.5Q585 146.4 559 147.8M613.2 87.6Q645.2 111 668.9 142.8M624.6 126.3Q602.7 142.4 577 151.4M581.7 171.6Q577.8 161.9 577 151.4M495.2 296Q446.9 345.7 386.2 379M710.7 168.1Q689.2 126.1 681 79.6M411.4 259.2Q398 282.1 378.4 300.1M668.9 283.6Q647.3 281.3 627.4 272.8M506.3 177.1Q540.9 200.4 567.1 232.8M518.6 302.6Q538.8 277.4 565.4 259.3M427.9 173.4Q409.1 200 383.3 219.9M545.1 226.6Q584.8 224.3 623.4 233.7M518.3 330.4Q544.8 300.8 578.8 280.2M551.3 241.3Q584.9 243.3 616.5 255M441.1 187Q445.1 213.1 441.2 239.2M535.2 291.9Q524.3 280.7 517.1 266.7M517.1 266.7Q552.6 283.3 581.7 309.6M708 150.3Q685.5 133.5 669 110.8M464.6 218.6Q450.5 248.8 428.1 273.5M588.9 75.2Q610.6 98.1 624.6 126.3M520.8 142.3Q533.6 157.2 541.5 175.2M626.2 182.5Q661.8 179.4 696.7 186.8M678.6 218.5Q649.7 204.4 626.2 182.5M478.1 205.4Q502.4 213.2 523.4 227.7M540.9 105.6Q563.8 101.1 587 103.6M475.9 134Q496.7 145.3 513.2 162.1M513 211.9Q546.1 205.3 579.7 208.8M555.7 194.2Q513.6 180.4 477.4 154.8M497.8 275.9Q503.5 295 503.4 314.9M490.4 185.7Q535 171.8 581.7 171.6M514.9 190.1Q490.6 185.8 468.6 174.6M602.4 224.5Q619.8 209.5 640.8 200.3M494.8 88.9Q472.1 104.6 445.7 112.9M489.2 496.8Q506.3 494 523.5 496.4M814.1 309.1Q842.9 300.8 872.8 301.3M849.3 292Q831.5 281.3 817.6 265.8M876.5 335.3Q859.7 315.7 849.3 292M860.6 320.2Q833.4 329.3 804.7 330.1M908.1 243.9Q886.6 251.9 863.7 253.3M889.4 254.9Q900.3 262.6 908.4 273.2M863.7 253.3Q882.1 270.4 894.6 292.1M883.8 235Q889.3 224.2 897.8 215.4M923.1 227.9Q895.7 224.9 870.4 214M923.1 227.9Q927.4 242.5 927.2 257.7M521.9 411.3Q489.3 393.3 463.4 366.5M482.6 373.4Q505.1 389.4 521.9 411.3M579 386.5Q551.8 383 526.9 371.7M541.9 416.1Q525.9 407 513.3 393.6M481.1 408.8Q531.6 406.1 580.6 418.4M541.9 416.1Q569.4 418 595.2 427.9M541.9 416.1Q570 409.7 598.7 411.9M482.6 373.4Q543.5 383.9 598.7 411.9M455.1 416.6Q451.9 402.3 453 387.7M580.6 418.4Q641.6 439.6 693.8 477.7M711.1 454Q696.1 455.1 681.4 451.7M641.8 456Q617.4 453 595 443M657.8 409.2Q628.9 430.8 595 443M579 386.5Q607.1 389.2 633.1 400M697.1 403Q648.6 414.8 598.7 411.9M800.4 440.5Q828.3 449.4 852.4 466M579 386.5Q519 420.7 451.6 435.8"/></g>
<g><circle cx="292.6" cy="324.1" r="9.6" fill="#3fbf8f" style="animation-delay:0.00s,0.00s;animation-duration:.9s,3.40s"/><circle cx="287.1" cy="263.6" r="9.5" fill="#3fbf8f" style="animation-delay:0.06s,0.06s;animation-duration:.9s,3.85s"/><circle cx="471.9" cy="284.3" r="9.3" fill="#f0733a" style="animation-delay:0.11s,0.11s;animation-duration:.9s,4.30s"/><circle cx="759.3" cy="294" r="8.8" fill="#a970ff" style="animation-delay:0.17s,0.17s;animation-duration:.9s,4.75s"/><circle cx="626.2" cy="182.5" r="8.3" fill="#f0733a" style="animation-delay:0.22s,0.22s;animation-duration:.9s,5.20s"/><circle cx="504.3" cy="230.7" r="8.3" fill="#f0733a" style="animation-delay:0.28s,0.28s;animation-duration:.9s,5.65s"/><circle cx="828.8" cy="481.3" r="8.2" fill="#3fa9e0" style="animation-delay:0.33s,0.33s;animation-duration:.9s,6.10s"/><circle cx="383.2" cy="457.9" r="7.7" fill="#e0607a" style="animation-delay:0.39s,0.39s;animation-duration:.9s,3.40s"/><circle cx="863.7" cy="253.3" r="7.3" fill="#a970ff" style="animation-delay:0.44s,0.44s;animation-duration:.9s,3.85s"/><circle cx="649.4" cy="149" r="7.2" fill="#f0733a" style="animation-delay:0.49s,0.49s;animation-duration:.9s,4.30s"/><circle cx="658.5" cy="174.3" r="7.2" fill="#f0733a" style="animation-delay:0.55s,0.55s;animation-duration:.9s,4.75s"/><circle cx="541.9" cy="416.1" r="7.2" fill="#3fbf8f" style="animation-delay:0.60s,0.60s;animation-duration:.9s,5.20s"/><circle cx="459.9" cy="269" r="7.1" fill="#f0733a" style="animation-delay:0.66s,0.66s;animation-duration:.9s,5.65s"/><circle cx="513" cy="211.9" r="7" fill="#f0733a" style="animation-delay:0.71s,0.71s;animation-duration:.9s,6.10s"/><circle cx="807.6" cy="516.2" r="7" fill="#3fa9e0" style="animation-delay:0.77s,0.77s;animation-duration:.9s,3.40s"/><circle cx="799.2" cy="222.4" r="7" fill="#a970ff" style="animation-delay:0.82s,0.82s;animation-duration:.9s,3.85s"/><circle cx="465.3" cy="193.3" r="6.9" fill="#f0733a" style="animation-delay:0.88s,0.88s;animation-duration:.9s,4.30s"/><circle cx="556.8" cy="496.7" r="6.9" fill="#e0a03f" style="animation-delay:0.94s,0.94s;animation-duration:.9s,4.75s"/><circle cx="621.6" cy="433.4" r="6.8" fill="#3fa9e0" style="animation-delay:0.99s,0.99s;animation-duration:.9s,5.20s"/><circle cx="860.6" cy="320.2" r="6.8" fill="#a970ff" style="animation-delay:1.04s,1.04s;animation-duration:.9s,5.65s"/><circle cx="521.9" cy="411.3" r="6.7" fill="#3fbf8f" style="animation-delay:1.10s,1.10s;animation-duration:.9s,6.10s"/><circle cx="577" cy="151.4" r="6.7" fill="#f0733a" style="animation-delay:1.16s,1.16s;animation-duration:.9s,3.40s"/><circle cx="852.4" cy="466" r="6.7" fill="#3fa9e0" style="animation-delay:1.21s,1.21s;animation-duration:.9s,3.85s"/><circle cx="658.8" cy="440.9" r="6.7" fill="#3fa9e0" style="animation-delay:1.26s,1.26s;animation-duration:.9s,4.30s"/><circle cx="523.5" cy="246.5" r="6.7" fill="#f0733a" style="animation-delay:1.32s,1.32s;animation-duration:.9s,4.75s"/><circle cx="617.1" cy="412.4" r="6.5" fill="#3fa9e0" style="animation-delay:1.38s,1.38s;animation-duration:.9s,5.20s"/><circle cx="595" cy="443" r="6.5" fill="#3fa9e0" style="animation-delay:1.43s,1.43s;animation-duration:.9s,5.65s"/><circle cx="598.7" cy="411.9" r="6.5" fill="#3fa9e0" style="animation-delay:1.49s,1.49s;animation-duration:.9s,6.10s"/><circle cx="453" cy="387.7" r="6.5" fill="#3fbf8f" style="animation-delay:1.54s,1.54s;animation-duration:.9s,3.40s"/><circle cx="710.7" cy="168.1" r="6.4" fill="#f0733a" style="animation-delay:1.59s,1.59s;animation-duration:.9s,3.85s"/><circle cx="580.6" cy="418.4" r="6.4" fill="#3fa9e0" style="animation-delay:1.65s,1.65s;animation-duration:.9s,4.30s"/><circle cx="579" cy="386.5" r="6.4" fill="#a970ff" style="animation-delay:1.71s,1.71s;animation-duration:.9s,4.75s"/><circle cx="535.2" cy="291.9" r="6.3" fill="#f0733a" style="animation-delay:1.76s,1.76s;animation-duration:.9s,5.20s"/><circle cx="586.8" cy="126.5" r="6.3" fill="#f0733a" style="animation-delay:1.81s,1.81s;animation-duration:.9s,5.65s"/><circle cx="622.9" cy="559.9" r="6.3" fill="#e0a03f" style="animation-delay:1.87s,1.87s;animation-duration:.9s,6.10s"/><circle cx="789.8" cy="270.9" r="6.3" fill="#a970ff" style="animation-delay:1.93s,1.93s;animation-duration:.9s,3.40s"/><circle cx="415" cy="242.3" r="6.2" fill="#f0733a" style="animation-delay:1.98s,1.98s;animation-duration:.9s,3.85s"/><circle cx="595.2" cy="427.9" r="6.2" fill="#3fa9e0" style="animation-delay:2.04s,2.04s;animation-duration:.9s,4.30s"/><circle cx="358.8" cy="479.2" r="6.2" fill="#e0607a" style="animation-delay:2.09s,2.09s;animation-duration:.9s,4.75s"/><circle cx="427.2" cy="146.7" r="6.2" fill="#f0733a" style="animation-delay:2.15s,2.15s;animation-duration:.9s,5.20s"/><circle cx="872.8" cy="301.3" r="6.2" fill="#a970ff" style="animation-delay:0.00s,0.00s;animation-duration:.9s,5.65s"/><circle cx="843.3" cy="338.3" r="6.2" fill="#a970ff" style="animation-delay:0.06s,0.06s;animation-duration:.9s,6.10s"/><circle cx="548.6" cy="397.6" r="6.1" fill="#3fbf8f" style="animation-delay:0.11s,0.11s;animation-duration:.9s,3.40s"/><circle cx="636.2" cy="111.1" r="6.1" fill="#f0733a" style="animation-delay:0.17s,0.17s;animation-duration:.9s,3.85s"/><circle cx="640.8" cy="200.3" r="6.1" fill="#f0733a" style="animation-delay:0.22s,0.22s;animation-duration:.9s,4.30s"/><circle cx="823.5" cy="456.5" r="6.1" fill="#3fa9e0" style="animation-delay:0.28s,0.28s;animation-duration:.9s,4.75s"/><circle cx="667.9" cy="426.1" r="6.1" fill="#3fa9e0" style="animation-delay:0.33s,0.33s;animation-duration:.9s,5.20s"/><circle cx="633.1" cy="400" r="6.1" fill="#3fa9e0" style="animation-delay:0.39s,0.39s;animation-duration:.9s,5.65s"/><circle cx="572.5" cy="436.9" r="6.1" fill="#3fa9e0" style="animation-delay:0.44s,0.44s;animation-duration:.9s,6.10s"/><circle cx="609.8" cy="388.2" r="6.1" fill="#3fa9e0" style="animation-delay:0.49s,0.49s;animation-duration:.9s,3.40s"/><circle cx="381" cy="398.3" r="6.1" fill="#3fbf8f" style="animation-delay:0.55s,0.55s;animation-duration:.9s,3.85s"/><circle cx="620.5" cy="500.9" r="6.1" fill="#e0a03f" style="animation-delay:0.60s,0.60s;animation-duration:.9s,4.30s"/><circle cx="669" cy="110.8" r="6" fill="#f0733a" style="animation-delay:0.66s,0.66s;animation-duration:.9s,4.75s"/><circle cx="564.5" cy="351.3" r="6" fill="#f0733a" style="animation-delay:0.71s,0.71s;animation-duration:.9s,5.20s"/><circle cx="888.4" cy="463.2" r="6" fill="#3fa9e0" style="animation-delay:0.77s,0.77s;animation-duration:.9s,5.65s"/><circle cx="335.2" cy="451.2" r="6" fill="#e0607a" style="animation-delay:0.82s,0.82s;animation-duration:.9s,6.10s"/><circle cx="668.9" cy="142.8" r="5.8" fill="#f0733a" style="animation-delay:0.88s,0.88s;animation-duration:.9s,3.40s"/><circle cx="427.9" cy="173.4" r="5.8" fill="#f0733a" style="animation-delay:0.94s,0.94s;animation-duration:.9s,3.85s"/><circle cx="544.3" cy="255.9" r="5.8" fill="#f0733a" style="animation-delay:0.99s,0.99s;animation-duration:.9s,4.30s"/><circle cx="664.9" cy="329.7" r="5.8" fill="#f0733a" style="animation-delay:1.04s,1.04s;animation-duration:.9s,4.75s"/><circle cx="636.5" cy="419.5" r="5.8" fill="#3fa9e0" style="animation-delay:1.10s,1.10s;animation-duration:.9s,5.20s"/><circle cx="639.6" cy="521.7" r="5.8" fill="#e0a03f" style="animation-delay:1.16s,1.16s;animation-duration:.9s,5.65s"/><circle cx="776.6" cy="313.5" r="5.8" fill="#a970ff" style="animation-delay:1.21s,1.21s;animation-duration:.9s,6.10s"/><circle cx="921.8" cy="296.6" r="5.8" fill="#a970ff" style="animation-delay:1.26s,1.26s;animation-duration:.9s,3.40s"/><circle cx="771.9" cy="352" r="5.8" fill="#a970ff" style="animation-delay:1.32s,1.32s;animation-duration:.9s,3.85s"/><circle cx="903.9" cy="340.2" r="5.8" fill="#a970ff" style="animation-delay:1.38s,1.38s;animation-duration:.9s,4.30s"/><circle cx="627.4" cy="272.8" r="5.7" fill="#f0733a" style="animation-delay:1.43s,1.43s;animation-duration:.9s,4.75s"/><circle cx="481.3" cy="245.2" r="5.7" fill="#f0733a" style="animation-delay:1.49s,1.49s;animation-duration:.9s,5.20s"/><circle cx="640.3" cy="170.6" r="5.7" fill="#f0733a" style="animation-delay:1.54s,1.54s;animation-duration:.9s,5.65s"/><circle cx="354.4" cy="431" r="5.7" fill="#e0607a" style="animation-delay:1.59s,1.59s;animation-duration:.9s,6.10s"/><circle cx="271.7" cy="292.2" r="5.7" fill="#3fbf8f" style="animation-delay:1.65s,1.65s;animation-duration:.9s,3.40s"/><circle cx="573.7" cy="525" r="5.7" fill="#e0a03f" style="animation-delay:1.71s,1.71s;animation-duration:.9s,3.85s"/><circle cx="849.3" cy="292" r="5.7" fill="#a970ff" style="animation-delay:1.76s,1.76s;animation-duration:.9s,4.30s"/><circle cx="920.4" cy="362" r="5.7" fill="#a970ff" style="animation-delay:1.81s,1.81s;animation-duration:.9s,4.75s"/><circle cx="889.4" cy="254.9" r="5.7" fill="#a970ff" style="animation-delay:1.87s,1.87s;animation-duration:.9s,5.20s"/><circle cx="352.7" cy="385" r="5.6" fill="#3fbf8f" style="animation-delay:1.93s,1.93s;animation-duration:.9s,5.65s"/><circle cx="609.5" cy="137.5" r="5.6" fill="#f0733a" style="animation-delay:1.98s,1.98s;animation-duration:.9s,6.10s"/><circle cx="377.3" cy="263.9" r="5.6" fill="#f0733a" style="animation-delay:2.04s,2.04s;animation-duration:.9s,3.40s"/><circle cx="711" cy="276.7" r="5.6" fill="#f0733a" style="animation-delay:2.09s,2.09s;animation-duration:.9s,3.85s"/><circle cx="541.5" cy="175.2" r="5.6" fill="#f0733a" style="animation-delay:2.15s,2.15s;animation-duration:.9s,4.30s"/><circle cx="587" cy="103.6" r="5.6" fill="#f0733a" style="animation-delay:0.00s,0.00s;animation-duration:.9s,4.75s"/><circle cx="457.7" cy="93.2" r="5.6" fill="#f0733a" style="animation-delay:0.06s,0.06s;animation-duration:.9s,5.20s"/><circle cx="487.6" cy="220.9" r="5.6" fill="#f0733a" style="animation-delay:0.11s,0.11s;animation-duration:.9s,5.65s"/><circle cx="494.8" cy="88.9" r="5.6" fill="#f0733a" style="animation-delay:0.17s,0.17s;animation-duration:.9s,6.10s"/><circle cx="278.6" cy="435.8" r="5.6" fill="#e0607a" style="animation-delay:0.22s,0.22s;animation-duration:.9s,3.40s"/><circle cx="271.3" cy="236.5" r="5.6" fill="#3fbf8f" style="animation-delay:0.28s,0.28s;animation-duration:.9s,3.85s"/><circle cx="513.3" cy="393.6" r="5.6" fill="#3fbf8f" style="animation-delay:0.33s,0.33s;animation-duration:.9s,4.30s"/><circle cx="487.2" cy="449.8" r="5.6" fill="#e0607a" style="animation-delay:0.39s,0.39s;animation-duration:.9s,4.75s"/><circle cx="541.3" cy="521.5" r="5.6" fill="#e0a03f" style="animation-delay:0.44s,0.44s;animation-duration:.9s,5.20s"/><circle cx="548.4" cy="575.1" r="5.6" fill="#e0a03f" style="animation-delay:0.49s,0.49s;animation-duration:.9s,5.65s"/><circle cx="945.7" cy="335.4" r="5.6" fill="#a970ff" style="animation-delay:0.55s,0.55s;animation-duration:.9s,6.10s"/><circle cx="876.5" cy="335.3" r="5.6" fill="#a970ff" style="animation-delay:0.60s,0.60s;animation-duration:.9s,3.40s"/><circle cx="821.3" cy="287.8" r="5.6" fill="#a970ff" style="animation-delay:0.66s,0.66s;animation-duration:.9s,3.85s"/><circle cx="604" cy="188.8" r="5.4" fill="#f0733a" style="animation-delay:0.71s,0.71s;animation-duration:.9s,4.30s"/><circle cx="404.9" cy="183.6" r="5.4" fill="#f0733a" style="animation-delay:0.77s,0.77s;animation-duration:.9s,4.75s"/><circle cx="757.1" cy="164.1" r="5.4" fill="#f0733a" style="animation-delay:0.82s,0.82s;animation-duration:.9s,5.20s"/><circle cx="616.5" cy="255" r="5.4" fill="#f0733a" style="animation-delay:0.88s,0.88s;animation-duration:.9s,5.65s"/><circle cx="464.6" cy="218.6" r="5.4" fill="#f0733a" style="animation-delay:0.94s,0.94s;animation-duration:.9s,6.10s"/><circle cx="674.7" cy="257.7" r="5.4" fill="#f0733a" style="animation-delay:0.99s,0.99s;animation-duration:.9s,3.40s"/><circle cx="526.9" cy="371.7" r="5.4" fill="#3fbf8f" style="animation-delay:1.04s,1.04s;animation-duration:.9s,3.85s"/><circle cx="859.8" cy="442.5" r="5.4" fill="#3fa9e0" style="animation-delay:1.10s,1.10s;animation-duration:.9s,4.30s"/><circle cx="800.9" cy="486.5" r="5.4" fill="#3fa9e0" style="animation-delay:1.16s,1.16s;animation-duration:.9s,4.75s"/><circle cx="609.8" cy="455.5" r="5.4" fill="#3fa9e0" style="animation-delay:1.21s,1.21s;animation-duration:.9s,5.20s"/><circle cx="492.2" cy="391.1" r="5.4" fill="#3fbf8f" style="animation-delay:1.26s,1.26s;animation-duration:.9s,5.65s"/><circle cx="798.4" cy="357.2" r="5.4" fill="#a970ff" style="animation-delay:1.32s,1.32s;animation-duration:.9s,6.10s"/><circle cx="883.8" cy="235" r="5.4" fill="#a970ff" style="animation-delay:1.38s,1.38s;animation-duration:.9s,3.40s"/><circle cx="616" cy="297.5" r="5.3" fill="#f0733a" style="animation-delay:1.43s,1.43s;animation-duration:.9s,3.85s"/><circle cx="545.1" cy="226.6" r="5.3" fill="#f0733a" style="animation-delay:1.49s,1.49s;animation-duration:.9s,4.30s"/><circle cx="446.6" cy="159.9" r="5.3" fill="#f0733a" style="animation-delay:1.54s,1.54s;animation-duration:.9s,4.75s"/><circle cx="677.8" cy="126.1" r="5.3" fill="#f0733a" style="animation-delay:1.59s,1.59s;animation-duration:.9s,5.20s"/><circle cx="513.2" cy="162.1" r="5.3" fill="#f0733a" style="animation-delay:1.65s,1.65s;animation-duration:.9s,5.65s"/><circle cx="641.8" cy="456" r="5.3" fill="#3fa9e0" style="animation-delay:1.71s,1.71s;animation-duration:.9s,6.10s"/><circle cx="843.7" cy="402.6" r="5.3" fill="#3fa9e0" style="animation-delay:1.76s,1.76s;animation-duration:.9s,3.40s"/><circle cx="657.8" cy="409.2" r="5.3" fill="#3fa9e0" style="animation-delay:1.81s,1.81s;animation-duration:.9s,3.85s"/><circle cx="748.8" cy="387.3" r="5.3" fill="#3fa9e0" style="animation-delay:1.87s,1.87s;animation-duration:.9s,4.30s"/><circle cx="501.9" cy="426.7" r="5.3" fill="#3fbf8f" style="animation-delay:1.93s,1.93s;animation-duration:.9s,4.75s"/><circle cx="814.1" cy="309.1" r="5.3" fill="#a970ff" style="animation-delay:1.98s,1.98s;animation-duration:.9s,5.20s"/><circle cx="833.4" cy="318" r="5.3" fill="#a970ff" style="animation-delay:2.04s,2.04s;animation-duration:.9s,5.65s"/><circle cx="641.7" cy="291.3" r="5.1" fill="#f0733a" style="animation-delay:2.09s,2.09s;animation-duration:.9s,6.10s"/><circle cx="667.1" cy="199.2" r="5.1" fill="#f0733a" style="animation-delay:2.15s,2.15s;animation-duration:.9s,3.40s"/><circle cx="496.5" cy="200.9" r="5.1" fill="#f0733a" style="animation-delay:0.00s,0.00s;animation-duration:.9s,3.85s"/><circle cx="441.1" cy="187" r="5.1" fill="#f0733a" style="animation-delay:0.06s,0.06s;animation-duration:.9s,4.30s"/><circle cx="586.3" cy="261.3" r="5.1" fill="#f0733a" style="animation-delay:0.11s,0.11s;animation-duration:.9s,4.75s"/><circle cx="651" cy="131.7" r="5.1" fill="#f0733a" style="animation-delay:0.17s,0.17s;animation-duration:.9s,5.20s"/><circle cx="551.3" cy="241.3" r="5.1" fill="#f0733a" style="animation-delay:0.22s,0.22s;animation-duration:.9s,5.65s"/><circle cx="579.7" cy="208.8" r="5.1" fill="#f0733a" style="animation-delay:0.28s,0.28s;animation-duration:.9s,6.10s"/><circle cx="555.7" cy="194.2" r="5.1" fill="#f0733a" style="animation-delay:0.33s,0.33s;animation-duration:.9s,3.40s"/><circle cx="584.8" cy="236.4" r="5.1" fill="#f0733a" style="animation-delay:0.39s,0.39s;animation-duration:.9s,3.85s"/><circle cx="411.4" cy="259.2" r="5.1" fill="#f0733a" style="animation-delay:0.44s,0.44s;animation-duration:.9s,4.30s"/><circle cx="445.7" cy="112.9" r="5.1" fill="#f0733a" style="animation-delay:0.49s,0.49s;animation-duration:.9s,4.75s"/><circle cx="386.2" cy="379" r="5.1" fill="#e0607a" style="animation-delay:0.55s,0.55s;animation-duration:.9s,5.20s"/><circle cx="463.4" cy="366.5" r="5.1" fill="#3fbf8f" style="animation-delay:0.60s,0.60s;animation-duration:.9s,5.65s"/><circle cx="681.4" cy="451.7" r="5.1" fill="#3fa9e0" style="animation-delay:0.66s,0.66s;animation-duration:.9s,6.10s"/><circle cx="783.4" cy="412.8" r="5.1" fill="#3fa9e0" style="animation-delay:0.71s,0.71s;animation-duration:.9s,3.40s"/><circle cx="847.2" cy="507" r="5.1" fill="#3fa9e0" style="animation-delay:0.77s,0.77s;animation-duration:.9s,3.85s"/><circle cx="524.3" cy="463.2" r="5.1" fill="#e0a03f" style="animation-delay:0.82s,0.82s;animation-duration:.9s,4.30s"/><circle cx="426.3" cy="444.6" r="5.1" fill="#e0607a" style="animation-delay:0.88s,0.88s;animation-duration:.9s,4.75s"/><circle cx="338.1" cy="365.7" r="5.1" fill="#e0607a" style="animation-delay:0.94s,0.94s;animation-duration:.9s,5.20s"/><circle cx="717.3" cy="352.2" r="5.1" fill="#a970ff" style="animation-delay:0.99s,0.99s;animation-duration:.9s,5.65s"/><circle cx="813.9" cy="193.4" r="5.1" fill="#a970ff" style="animation-delay:1.04s,1.04s;animation-duration:.9s,6.10s"/><circle cx="794.3" cy="295.4" r="5.1" fill="#a970ff" style="animation-delay:1.10s,1.10s;animation-duration:.9s,3.40s"/><circle cx="927.2" cy="257.7" r="5.1" fill="#a970ff" style="animation-delay:1.16s,1.16s;animation-duration:.9s,3.85s"/><circle cx="856.6" cy="232.1" r="5.1" fill="#a970ff" style="animation-delay:1.21s,1.21s;animation-duration:.9s,4.30s"/><circle cx="923.1" cy="227.9" r="5.1" fill="#a970ff" style="animation-delay:1.26s,1.26s;animation-duration:.9s,4.75s"/><circle cx="744.5" cy="189.7" r="4.9" fill="#f0733a" style="animation-delay:1.32s,1.32s;animation-duration:.9s,5.20s"/><circle cx="703.5" cy="132" r="4.9" fill="#f0733a" style="animation-delay:1.38s,1.38s;animation-duration:.9s,5.65s"/><circle cx="391" cy="283.7" r="4.9" fill="#f0733a" style="animation-delay:1.43s,1.43s;animation-duration:.9s,6.10s"/><circle cx="397.2" cy="160.1" r="4.9" fill="#f0733a" style="animation-delay:1.49s,1.49s;animation-duration:.9s,3.40s"/><circle cx="481.4" cy="262.7" r="4.9" fill="#f0733a" style="animation-delay:1.54s,1.54s;animation-duration:.9s,3.85s"/><circle cx="562.6" cy="216.1" r="4.9" fill="#f0733a" style="animation-delay:1.59s,1.59s;animation-duration:.9s,4.30s"/><circle cx="500.9" cy="244.3" r="4.9" fill="#f0733a" style="animation-delay:1.65s,1.65s;animation-duration:.9s,4.75s"/><circle cx="736.6" cy="147" r="4.9" fill="#f0733a" style="animation-delay:1.71s,1.71s;animation-duration:.9s,5.20s"/><circle cx="720.2" cy="194.2" r="4.9" fill="#f0733a" style="animation-delay:1.76s,1.76s;animation-duration:.9s,5.65s"/><circle cx="710.7" cy="254.7" r="4.9" fill="#f0733a" style="animation-delay:1.81s,1.81s;animation-duration:.9s,6.10s"/><circle cx="611.8" cy="54" r="4.9" fill="#f0733a" style="animation-delay:1.87s,1.87s;animation-duration:.9s,3.40s"/><circle cx="668.9" cy="283.6" r="4.9" fill="#f0733a" style="animation-delay:1.93s,1.93s;animation-duration:.9s,3.85s"/><circle cx="675.5" cy="240.1" r="4.9" fill="#f0733a" style="animation-delay:1.98s,1.98s;animation-duration:.9s,4.30s"/><circle cx="462.3" cy="311.1" r="4.9" fill="#f0733a" style="animation-delay:2.04s,2.04s;animation-duration:.9s,4.75s"/><circle cx="366.4" cy="158" r="4.9" fill="#f0733a" style="animation-delay:2.09s,2.09s;animation-duration:.9s,5.20s"/><circle cx="656.6" cy="97" r="4.9" fill="#f0733a" style="animation-delay:2.15s,2.15s;animation-duration:.9s,5.65s"/><circle cx="608.8" cy="169.1" r="4.9" fill="#f0733a" style="animation-delay:0.00s,0.00s;animation-duration:.9s,6.10s"/><circle cx="602.3" cy="206.6" r="4.9" fill="#f0733a" style="animation-delay:0.06s,0.06s;animation-duration:.9s,3.40s"/><circle cx="523.4" cy="227.7" r="4.9" fill="#f0733a" style="animation-delay:0.11s,0.11s;animation-duration:.9s,3.85s"/><circle cx="420.8" cy="99" r="4.9" fill="#f0733a" style="animation-delay:0.17s,0.17s;animation-duration:.9s,4.30s"/><circle cx="463.4" cy="235.3" r="4.9" fill="#f0733a" style="animation-delay:0.22s,0.22s;animation-duration:.9s,4.75s"/><circle cx="514.9" cy="190.1" r="4.9" fill="#f0733a" style="animation-delay:0.28s,0.28s;animation-duration:.9s,5.20s"/><circle cx="468.6" cy="174.6" r="4.9" fill="#f0733a" style="animation-delay:0.33s,0.33s;animation-duration:.9s,5.65s"/><circle cx="495.2" cy="296" r="4.9" fill="#f0733a" style="animation-delay:0.39s,0.39s;animation-duration:.9s,6.10s"/><circle cx="602.7" cy="276.5" r="4.9" fill="#f0733a" style="animation-delay:0.44s,0.44s;animation-duration:.9s,3.40s"/><circle cx="694.6" cy="318.6" r="4.9" fill="#f0733a" style="animation-delay:0.49s,0.49s;animation-duration:.9s,3.85s"/><circle cx="401.9" cy="342.7" r="4.9" fill="#3fbf8f" style="animation-delay:0.55s,0.55s;animation-duration:.9s,4.30s"/><circle cx="332.3" cy="293.2" r="4.9" fill="#3fbf8f" style="animation-delay:0.60s,0.60s;animation-duration:.9s,4.75s"/><circle cx="737.2" cy="453.2" r="4.9" fill="#3fa9e0" style="animation-delay:0.66s,0.66s;animation-duration:.9s,5.20s"/><circle cx="833.5" cy="429.2" r="4.9" fill="#3fa9e0" style="animation-delay:0.71s,0.71s;animation-duration:.9s,5.65s"/><circle cx="771.1" cy="471.8" r="4.9" fill="#3fa9e0" style="animation-delay:0.77s,0.77s;animation-duration:.9s,6.10s"/><circle cx="715.3" cy="498" r="4.9" fill="#3fa9e0" style="animation-delay:0.82s,0.82s;animation-duration:.9s,3.40s"/><circle cx="755.2" cy="411" r="4.9" fill="#3fa9e0" style="animation-delay:0.88s,0.88s;animation-duration:.9s,3.85s"/><circle cx="893.2" cy="405" r="4.9" fill="#3fa9e0" style="animation-delay:0.94s,0.94s;animation-duration:.9s,4.30s"/><circle cx="481.1" cy="408.8" r="4.9" fill="#3fbf8f" style="animation-delay:0.99s,0.99s;animation-duration:.9s,4.75s"/><circle cx="455.1" cy="416.6" r="4.9" fill="#e0607a" style="animation-delay:1.04s,1.04s;animation-duration:.9s,5.20s"/><circle cx="587.2" cy="502.4" r="4.9" fill="#e0a03f" style="animation-delay:1.10s,1.10s;animation-duration:.9s,5.65s"/><circle cx="489.2" cy="496.8" r="4.9" fill="#e0a03f" style="animation-delay:1.16s,1.16s;animation-duration:.9s,6.10s"/><circle cx="579.6" cy="550.7" r="4.9" fill="#e0a03f" style="animation-delay:1.21s,1.21s;animation-duration:.9s,3.40s"/><circle cx="401.4" cy="136.5" r="4.9" fill="#f0733a" style="animation-delay:1.26s,1.26s;animation-duration:.9s,3.85s"/><circle cx="880.3" cy="490.4" r="4.9" fill="#3fa9e0" style="animation-delay:1.32s,1.32s;animation-duration:.9s,4.30s"/><circle cx="906.4" cy="188.8" r="4.9" fill="#a970ff" style="animation-delay:1.38s,1.38s;animation-duration:.9s,4.75s"/><circle cx="882.3" cy="363.9" r="4.9" fill="#a970ff" style="animation-delay:1.43s,1.43s;animation-duration:.9s,5.20s"/><circle cx="788.5" cy="243.4" r="4.9" fill="#a970ff" style="animation-delay:1.49s,1.49s;animation-duration:.9s,5.65s"/><circle cx="871.3" cy="176.9" r="4.9" fill="#a970ff" style="animation-delay:1.54s,1.54s;animation-duration:.9s,6.10s"/><circle cx="817.6" cy="265.8" r="4.9" fill="#a970ff" style="animation-delay:1.59s,1.59s;animation-duration:.9s,3.40s"/><circle cx="875.2" cy="270.7" r="4.9" fill="#a970ff" style="animation-delay:1.65s,1.65s;animation-duration:.9s,3.85s"/><circle cx="666.8" cy="160.9" r="4.8" fill="#f0733a" style="animation-delay:1.71s,1.71s;animation-duration:.9s,4.30s"/><circle cx="678.2" cy="181.3" r="4.8" fill="#f0733a" style="animation-delay:1.76s,1.76s;animation-duration:.9s,4.75s"/><circle cx="688.5" cy="153.1" r="4.8" fill="#f0733a" style="animation-delay:1.81s,1.81s;animation-duration:.9s,5.20s"/><circle cx="415" cy="316" r="4.8" fill="#f0733a" style="animation-delay:1.87s,1.87s;animation-duration:.9s,5.65s"/><circle cx="578.8" cy="280.2" r="4.8" fill="#f0733a" style="animation-delay:1.93s,1.93s;animation-duration:.9s,6.10s"/><circle cx="424" cy="198.4" r="4.8" fill="#f0733a" style="animation-delay:1.98s,1.98s;animation-duration:.9s,3.40s"/><circle cx="636.1" cy="88.6" r="4.8" fill="#f0733a" style="animation-delay:2.04s,2.04s;animation-duration:.9s,3.85s"/><circle cx="441.2" cy="239.2" r="4.8" fill="#f0733a" style="animation-delay:2.09s,2.09s;animation-duration:.9s,4.30s"/><circle cx="543.8" cy="311.7" r="4.8" fill="#f0733a" style="animation-delay:2.15s,2.15s;animation-duration:.9s,4.75s"/><circle cx="581.7" cy="309.6" r="4.8" fill="#f0733a" style="animation-delay:0.00s,0.00s;animation-duration:.9s,5.20s"/><circle cx="719.8" cy="118.3" r="4.8" fill="#f0733a" style="animation-delay:0.06s,0.06s;animation-duration:.9s,5.65s"/><circle cx="690.2" cy="291.6" r="4.8" fill="#f0733a" style="animation-delay:0.11s,0.11s;animation-duration:.9s,6.10s"/><circle cx="608.4" cy="111.6" r="4.8" fill="#f0733a" style="animation-delay:0.17s,0.17s;animation-duration:.9s,3.40s"/><circle cx="532.7" cy="276.1" r="4.8" fill="#f0733a" style="animation-delay:0.22s,0.22s;animation-duration:.9s,3.85s"/><circle cx="598.8" cy="151.4" r="4.8" fill="#f0733a" style="animation-delay:0.28s,0.28s;animation-duration:.9s,4.30s"/><circle cx="478.1" cy="205.4" r="4.8" fill="#f0733a" style="animation-delay:0.33s,0.33s;animation-duration:.9s,4.75s"/><circle cx="535.7" cy="84.6" r="4.8" fill="#f0733a" style="animation-delay:0.39s,0.39s;animation-duration:.9s,5.20s"/><circle cx="475.9" cy="134" r="4.8" fill="#f0733a" style="animation-delay:0.44s,0.44s;animation-duration:.9s,5.65s"/><circle cx="477.4" cy="154.8" r="4.8" fill="#f0733a" style="animation-delay:0.49s,0.49s;animation-duration:.9s,6.10s"/><circle cx="406.9" cy="212" r="4.8" fill="#f0733a" style="animation-delay:0.55s,0.55s;animation-duration:.9s,3.40s"/><circle cx="538.6" cy="207.3" r="4.8" fill="#f0733a" style="animation-delay:0.60s,0.60s;animation-duration:.9s,3.85s"/><circle cx="490.4" cy="185.7" r="4.8" fill="#f0733a" style="animation-delay:0.66s,0.66s;animation-duration:.9s,4.30s"/><circle cx="557.7" cy="297" r="4.8" fill="#f0733a" style="animation-delay:0.71s,0.71s;animation-duration:.9s,4.75s"/><circle cx="533.2" cy="59.1" r="4.8" fill="#f0733a" style="animation-delay:0.77s,0.77s;animation-duration:.9s,5.20s"/><circle cx="644.8" cy="343.6" r="4.8" fill="#f0733a" style="animation-delay:0.82s,0.82s;animation-duration:.9s,5.65s"/><circle cx="374.1" cy="351.4" r="4.8" fill="#3fbf8f" style="animation-delay:0.88s,0.88s;animation-duration:.9s,6.10s"/><circle cx="740.2" cy="431.5" r="4.8" fill="#3fa9e0" style="animation-delay:0.94s,0.94s;animation-duration:.9s,3.40s"/><circle cx="697.1" cy="403" r="4.8" fill="#3fa9e0" style="animation-delay:0.99s,0.99s;animation-duration:.9s,3.85s"/><circle cx="711.1" cy="454" r="4.8" fill="#3fa9e0" style="animation-delay:1.04s,1.04s;animation-duration:.9s,4.30s"/><circle cx="734.3" cy="475.6" r="4.8" fill="#3fa9e0" style="animation-delay:1.10s,1.10s;animation-duration:.9s,4.75s"/><circle cx="769.1" cy="445.7" r="4.8" fill="#3fa9e0" style="animation-delay:1.16s,1.16s;animation-duration:.9s,5.20s"/><circle cx="725.2" cy="405.6" r="4.8" fill="#3fa9e0" style="animation-delay:1.21s,1.21s;animation-duration:.9s,5.65s"/><circle cx="699.6" cy="428.4" r="4.8" fill="#3fa9e0" style="animation-delay:1.26s,1.26s;animation-duration:.9s,6.10s"/><circle cx="912.7" cy="446.6" r="4.8" fill="#3fa9e0" style="animation-delay:1.32s,1.32s;animation-duration:.9s,3.40s"/><circle cx="544.7" cy="546.8" r="4.8" fill="#e0a03f" style="animation-delay:1.38s,1.38s;animation-duration:.9s,3.85s"/><circle cx="448.1" cy="464.5" r="4.8" fill="#e0607a" style="animation-delay:1.43s,1.43s;animation-duration:.9s,4.30s"/><circle cx="297.2" cy="464.5" r="4.8" fill="#e0607a" style="animation-delay:1.49s,1.49s;animation-duration:.9s,4.75s"/><circle cx="289.1" cy="408.3" r="4.8" fill="#e0607a" style="animation-delay:1.54s,1.54s;animation-duration:.9s,5.20s"/><circle cx="535.8" cy="386.5" r="4.8" fill="#3fbf8f" style="animation-delay:1.59s,1.59s;animation-duration:.9s,5.65s"/><circle cx="480.5" cy="545.7" r="4.8" fill="#e0a03f" style="animation-delay:1.65s,1.65s;animation-duration:.9s,6.10s"/><circle cx="464.7" cy="517.3" r="4.8" fill="#e0a03f" style="animation-delay:1.71s,1.71s;animation-duration:.9s,3.40s"/><circle cx="607.2" cy="532.5" r="4.8" fill="#e0a03f" style="animation-delay:1.76s,1.76s;animation-duration:.9s,3.85s"/><circle cx="849.8" cy="367.5" r="4.8" fill="#a970ff" style="animation-delay:1.81s,1.81s;animation-duration:.9s,4.30s"/><circle cx="947.4" cy="274.6" r="4.8" fill="#a970ff" style="animation-delay:1.87s,1.87s;animation-duration:.9s,4.75s"/><circle cx="758.5" cy="331.4" r="4.8" fill="#a970ff" style="animation-delay:1.93s,1.93s;animation-duration:.9s,5.20s"/><circle cx="804.7" cy="330.1" r="4.8" fill="#a970ff" style="animation-delay:1.98s,1.98s;animation-duration:.9s,5.65s"/><circle cx="908.1" cy="243.9" r="4.8" fill="#a970ff" style="animation-delay:2.04s,2.04s;animation-duration:.9s,6.10s"/><circle cx="894.6" cy="292.1" r="4.8" fill="#a970ff" style="animation-delay:2.09s,2.09s;animation-duration:.9s,3.40s"/><circle cx="826.7" cy="242.7" r="4.8" fill="#a970ff" style="animation-delay:2.15s,2.15s;animation-duration:.9s,3.85s"/><circle cx="842.9" cy="186" r="4.8" fill="#a970ff" style="animation-delay:0.00s,0.00s;animation-duration:.9s,4.30s"/><circle cx="559" cy="147.8" r="4.6" fill="#f0733a" style="animation-delay:0.06s,0.06s;animation-duration:.9s,4.75s"/><circle cx="681" cy="79.6" r="4.6" fill="#f0733a" style="animation-delay:0.11s,0.11s;animation-duration:.9s,5.20s"/><circle cx="378.4" cy="300.1" r="4.6" fill="#f0733a" style="animation-delay:0.17s,0.17s;animation-duration:.9s,5.65s"/><circle cx="485.2" cy="328.2" r="4.6" fill="#f0733a" style="animation-delay:0.22s,0.22s;animation-duration:.9s,6.10s"/><circle cx="381.5" cy="242.7" r="4.6" fill="#f0733a" style="animation-delay:0.28s,0.28s;animation-duration:.9s,3.40s"/><circle cx="623.4" cy="233.7" r="4.6" fill="#f0733a" style="animation-delay:0.33s,0.33s;animation-duration:.9s,3.85s"/><circle cx="518.3" cy="330.4" r="4.6" fill="#f0733a" style="animation-delay:0.39s,0.39s;animation-duration:.9s,4.30s"/><circle cx="704.9" cy="231.9" r="4.6" fill="#f0733a" style="animation-delay:0.44s,0.44s;animation-duration:.9s,4.75s"/><circle cx="589.8" cy="294.8" r="4.6" fill="#f0733a" style="animation-delay:0.49s,0.49s;animation-duration:.9s,5.20s"/><circle cx="428.1" cy="273.5" r="4.6" fill="#f0733a" style="animation-delay:0.55s,0.55s;animation-duration:.9s,5.65s"/><circle cx="444.5" cy="297.3" r="4.6" fill="#f0733a" style="animation-delay:0.60s,0.60s;animation-duration:.9s,6.10s"/><circle cx="567.7" cy="55" r="4.6" fill="#f0733a" style="animation-delay:0.66s,0.66s;animation-duration:.9s,3.40s"/><circle cx="555.5" cy="275.8" r="4.6" fill="#f0733a" style="animation-delay:0.71s,0.71s;animation-duration:.9s,3.85s"/><circle cx="650.2" cy="268.7" r="4.6" fill="#f0733a" style="animation-delay:0.77s,0.77s;animation-duration:.9s,4.30s"/><circle cx="692.8" cy="102.3" r="4.6" fill="#f0733a" style="animation-delay:0.82s,0.82s;animation-duration:.9s,4.75s"/><circle cx="449.2" cy="137.4" r="4.6" fill="#f0733a" style="animation-delay:0.88s,0.88s;animation-duration:.9s,5.20s"/><circle cx="581.7" cy="171.6" r="4.6" fill="#f0733a" style="animation-delay:0.94s,0.94s;animation-duration:.9s,5.65s"/><circle cx="535.7" cy="192.1" r="4.6" fill="#f0733a" style="animation-delay:0.99s,0.99s;animation-duration:.9s,6.10s"/><circle cx="579.9" cy="192.2" r="4.6" fill="#f0733a" style="animation-delay:1.04s,1.04s;animation-duration:.9s,3.40s"/><circle cx="488.4" cy="172.3" r="4.6" fill="#f0733a" style="animation-delay:1.10s,1.10s;animation-duration:.9s,3.85s"/><circle cx="482" cy="111.8" r="4.6" fill="#f0733a" style="animation-delay:1.16s,1.16s;animation-duration:.9s,4.30s"/><circle cx="633.8" cy="219.7" r="4.6" fill="#f0733a" style="animation-delay:1.21s,1.21s;animation-duration:.9s,4.75s"/><circle cx="593.1" cy="340.1" r="4.6" fill="#f0733a" style="animation-delay:1.26s,1.26s;animation-duration:.9s,5.20s"/><circle cx="419.2" cy="406.4" r="4.6" fill="#3fbf8f" style="animation-delay:1.32s,1.32s;animation-duration:.9s,5.65s"/><circle cx="567.1" cy="232.8" r="4.6" fill="#f0733a" style="animation-delay:1.38s,1.38s;animation-duration:.9s,6.10s"/><circle cx="693.8" cy="477.7" r="4.6" fill="#3fa9e0" style="animation-delay:1.43s,1.43s;animation-duration:.9s,3.40s"/><circle cx="800.4" cy="440.5" r="4.6" fill="#3fa9e0" style="animation-delay:1.49s,1.49s;animation-duration:.9s,3.85s"/><circle cx="766.1" cy="500" r="4.6" fill="#3fa9e0" style="animation-delay:1.54s,1.54s;animation-duration:.9s,4.30s"/><circle cx="870.3" cy="419.9" r="4.6" fill="#3fa9e0" style="animation-delay:1.59s,1.59s;animation-duration:.9s,4.75s"/><circle cx="920.4" cy="420.1" r="4.6" fill="#3fa9e0" style="animation-delay:1.65s,1.65s;animation-duration:.9s,5.20s"/><circle cx="810.2" cy="406.1" r="4.6" fill="#3fa9e0" style="animation-delay:1.71s,1.71s;animation-duration:.9s,5.65s"/><circle cx="506.7" cy="523.8" r="4.6" fill="#e0a03f" style="animation-delay:1.76s,1.76s;animation-duration:.9s,6.10s"/><circle cx="655.9" cy="545" r="4.6" fill="#e0a03f" style="animation-delay:1.81s,1.81s;animation-duration:.9s,3.40s"/><circle cx="561.3" cy="465.9" r="4.6" fill="#e0a03f" style="animation-delay:1.87s,1.87s;animation-duration:.9s,3.85s"/><circle cx="565.4" cy="259.3" r="4.6" fill="#f0733a" style="animation-delay:1.93s,1.93s;animation-duration:.9s,4.30s"/><circle cx="244.2" cy="272.5" r="4.6" fill="#3fbf8f" style="animation-delay:1.98s,1.98s;animation-duration:.9s,4.75s"/><circle cx="451.6" cy="435.8" r="4.6" fill="#e0607a" style="animation-delay:2.04s,2.04s;animation-duration:.9s,5.20s"/><circle cx="253.8" cy="320.3" r="4.6" fill="#3fbf8f" style="animation-delay:2.09s,2.09s;animation-duration:.9s,5.65s"/><circle cx="482.6" cy="373.4" r="4.6" fill="#3fbf8f" style="animation-delay:2.15s,2.15s;animation-duration:.9s,6.10s"/><circle cx="332" cy="320.2" r="4.6" fill="#3fbf8f" style="animation-delay:0.00s,0.00s;animation-duration:.9s,3.40s"/><circle cx="514.2" cy="554.5" r="4.6" fill="#e0a03f" style="animation-delay:0.06s,0.06s;animation-duration:.9s,3.85s"/><circle cx="523.5" cy="496.4" r="4.6" fill="#e0a03f" style="animation-delay:0.11s,0.11s;animation-duration:.9s,4.30s"/><circle cx="350.9" cy="336.6" r="4.6" fill="#3fbf8f" style="animation-delay:0.17s,0.17s;animation-duration:.9s,4.75s"/><circle cx="589.4" cy="576" r="4.6" fill="#e0a03f" style="animation-delay:0.22s,0.22s;animation-duration:.9s,5.20s"/><circle cx="763.7" cy="263.5" r="4.6" fill="#a970ff" style="animation-delay:0.28s,0.28s;animation-duration:.9s,5.65s"/><circle cx="842.6" cy="269" r="4.6" fill="#a970ff" style="animation-delay:0.33s,0.33s;animation-duration:.9s,6.10s"/><circle cx="915.9" cy="319.5" r="4.6" fill="#a970ff" style="animation-delay:0.39s,0.39s;animation-duration:.9s,3.40s"/><circle cx="955.8" cy="302.8" r="4.6" fill="#a970ff" style="animation-delay:0.44s,0.44s;animation-duration:.9s,3.85s"/><circle cx="831.8" cy="221.2" r="4.6" fill="#a970ff" style="animation-delay:0.49s,0.49s;animation-duration:.9s,4.30s"/><circle cx="824.6" cy="355.4" r="4.6" fill="#a970ff" style="animation-delay:0.55s,0.55s;animation-duration:.9s,4.75s"/><circle cx="897.8" cy="215.4" r="4.6" fill="#a970ff" style="animation-delay:0.60s,0.60s;animation-duration:.9s,5.20s"/><circle cx="908.4" cy="273.2" r="4.6" fill="#a970ff" style="animation-delay:0.66s,0.66s;animation-duration:.9s,5.65s"/><circle cx="870.4" cy="214" r="4.6" fill="#a970ff" style="animation-delay:0.71s,0.71s;animation-duration:.9s,6.10s"/><circle cx="410.7" cy="364.3" r="4.4" fill="#3fbf8f" style="animation-delay:0.77s,0.77s;animation-duration:.9s,3.40s"/><circle cx="602.8" cy="243.5" r="4.4" fill="#f0733a" style="animation-delay:0.82s,0.82s;animation-duration:.9s,3.85s"/><circle cx="613.6" cy="324.5" r="4.4" fill="#f0733a" style="animation-delay:0.88s,0.88s;animation-duration:.9s,4.30s"/><circle cx="734.1" cy="220" r="4.4" fill="#f0733a" style="animation-delay:0.94s,0.94s;animation-duration:.9s,4.75s"/><circle cx="633.3" cy="314.2" r="4.4" fill="#f0733a" style="animation-delay:0.99s,0.99s;animation-duration:.9s,5.20s"/><circle cx="370.7" cy="190.2" r="4.4" fill="#f0733a" style="animation-delay:1.04s,1.04s;animation-duration:.9s,5.65s"/><circle cx="383.3" cy="219.9" r="4.4" fill="#f0733a" style="animation-delay:1.10s,1.10s;animation-duration:.9s,6.10s"/><circle cx="518.6" cy="302.6" r="4.4" fill="#f0733a" style="animation-delay:1.16s,1.16s;animation-duration:.9s,3.40s"/><circle cx="460.8" cy="333.4" r="4.4" fill="#f0733a" style="animation-delay:1.21s,1.21s;animation-duration:.9s,3.85s"/><circle cx="641.1" cy="248.3" r="4.4" fill="#f0733a" style="animation-delay:1.26s,1.26s;animation-duration:.9s,4.30s"/><circle cx="497.2" cy="150.1" r="4.4" fill="#f0733a" style="animation-delay:1.32s,1.32s;animation-duration:.9s,4.75s"/><circle cx="517.1" cy="266.7" r="4.4" fill="#f0733a" style="animation-delay:1.38s,1.38s;animation-duration:.9s,5.20s"/><circle cx="549.5" cy="333.3" r="4.4" fill="#f0733a" style="animation-delay:1.43s,1.43s;animation-duration:.9s,5.65s"/><circle cx="569.3" cy="92" r="4.4" fill="#f0733a" style="animation-delay:1.49s,1.49s;animation-duration:.9s,6.10s"/><circle cx="701.4" cy="209.2" r="4.4" fill="#f0733a" style="animation-delay:1.54s,1.54s;animation-duration:.9s,3.40s"/><circle cx="626.7" cy="156.7" r="4.4" fill="#f0733a" style="animation-delay:1.59s,1.59s;animation-duration:.9s,3.85s"/><circle cx="656" cy="220.8" r="4.4" fill="#f0733a" style="animation-delay:1.65s,1.65s;animation-duration:.9s,4.30s"/><circle cx="448.7" cy="257.3" r="4.4" fill="#f0733a" style="animation-delay:1.71s,1.71s;animation-duration:.9s,4.75s"/><circle cx="418.2" cy="294.8" r="4.4" fill="#f0733a" style="animation-delay:1.76s,1.76s;animation-duration:.9s,5.20s"/><circle cx="588.9" cy="75.2" r="4.4" fill="#f0733a" style="animation-delay:1.81s,1.81s;animation-duration:.9s,5.65s"/><circle cx="613.2" cy="87.6" r="4.4" fill="#f0733a" style="animation-delay:1.87s,1.87s;animation-duration:.9s,6.10s"/><circle cx="624.6" cy="126.3" r="4.4" fill="#f0733a" style="animation-delay:1.93s,1.93s;animation-duration:.9s,3.40s"/><circle cx="570.5" cy="324.9" r="4.4" fill="#f0733a" style="animation-delay:1.98s,1.98s;animation-duration:.9s,3.85s"/><circle cx="696.7" cy="186.8" r="4.4" fill="#f0733a" style="animation-delay:2.04s,2.04s;animation-duration:.9s,4.30s"/><circle cx="748.1" cy="123.7" r="4.4" fill="#f0733a" style="animation-delay:2.09s,2.09s;animation-duration:.9s,4.75s"/><circle cx="721.5" cy="91.9" r="4.4" fill="#f0733a" style="animation-delay:2.15s,2.15s;animation-duration:.9s,5.20s"/><circle cx="708" cy="150.3" r="4.4" fill="#f0733a" style="animation-delay:0.00s,0.00s;animation-duration:.9s,5.65s"/><circle cx="504.9" cy="66.7" r="4.4" fill="#f0733a" style="animation-delay:0.06s,0.06s;animation-duration:.9s,6.10s"/><circle cx="540.9" cy="105.6" r="4.4" fill="#f0733a" style="animation-delay:0.11s,0.11s;animation-duration:.9s,3.40s"/><circle cx="506.2" cy="124.6" r="4.4" fill="#f0733a" style="animation-delay:0.17s,0.17s;animation-duration:.9s,3.85s"/><circle cx="443.7" cy="207.4" r="4.4" fill="#f0733a" style="animation-delay:0.22s,0.22s;animation-duration:.9s,4.30s"/><circle cx="539.8" cy="158.3" r="4.4" fill="#f0733a" style="animation-delay:0.28s,0.28s;animation-duration:.9s,4.75s"/><circle cx="497.8" cy="275.9" r="4.4" fill="#f0733a" style="animation-delay:0.33s,0.33s;animation-duration:.9s,5.20s"/><circle cx="503.4" cy="314.9" r="4.4" fill="#f0733a" style="animation-delay:0.39s,0.39s;animation-duration:.9s,5.65s"/><circle cx="506.3" cy="177.1" r="4.4" fill="#f0733a" style="animation-delay:0.44s,0.44s;animation-duration:.9s,6.10s"/><circle cx="463.4" cy="70.1" r="4.4" fill="#f0733a" style="animation-delay:0.49s,0.49s;animation-duration:.9s,3.40s"/><circle cx="557.9" cy="124.2" r="4.4" fill="#f0733a" style="animation-delay:0.55s,0.55s;animation-duration:.9s,3.85s"/><circle cx="520.8" cy="142.3" r="4.4" fill="#f0733a" style="animation-delay:0.60s,0.60s;animation-duration:.9s,4.30s"/><circle cx="537.7" cy="132.5" r="4.4" fill="#f0733a" style="animation-delay:0.66s,0.66s;animation-duration:.9s,4.75s"/><circle cx="562.3" cy="168.7" r="4.4" fill="#f0733a" style="animation-delay:0.71s,0.71s;animation-duration:.9s,5.20s"/><circle cx="430.6" cy="225.9" r="4.4" fill="#f0733a" style="animation-delay:0.77s,0.77s;animation-duration:.9s,5.65s"/><circle cx="524.8" cy="117" r="4.4" fill="#f0733a" style="animation-delay:0.82s,0.82s;animation-duration:.9s,6.10s"/><circle cx="602.4" cy="224.5" r="4.4" fill="#f0733a" style="animation-delay:0.88s,0.88s;animation-duration:.9s,3.40s"/><circle cx="678.6" cy="218.5" r="4.4" fill="#f0733a" style="animation-delay:0.94s,0.94s;animation-duration:.9s,3.85s"/><circle cx="617.8" cy="350.1" r="4.4" fill="#f0733a" style="animation-delay:0.99s,0.99s;animation-duration:.9s,4.30s"/><circle cx="665.5" cy="307.3" r="4.4" fill="#f0733a" style="animation-delay:1.04s,1.04s;animation-duration:.9s,4.75s"/></g>
<g><circle class="s" r="2.6" fill="#3fbf8f"><animateMotion dur="2.60s" begin="0.00s" repeatCount="indefinite" path="M350.9 336.6L292.6 324.1"/></circle><circle class="s" r="2.6" fill="#3fbf8f"><animateMotion dur="2.97s" begin="0.60s" repeatCount="indefinite" path="M271.7 292.2L287.1 263.6"/></circle><circle class="s" r="2.6" fill="#f0733a"><animateMotion dur="3.34s" begin="1.20s" repeatCount="indefinite" path="M518.6 302.6L471.9 284.3"/></circle><circle class="s" r="2.6" fill="#a970ff"><animateMotion dur="3.71s" begin="1.80s" repeatCount="indefinite" path="M789.8 270.9L759.3 294"/></circle><circle class="s" r="2.6" fill="#f0733a"><animateMotion dur="4.08s" begin="2.40s" repeatCount="indefinite" path="M626.2 182.5L658.5 174.3"/></circle><circle class="s" r="2.6" fill="#f0733a"><animateMotion dur="4.45s" begin="3.00s" repeatCount="indefinite" path="M448.7 257.3L504.3 230.7"/></circle><circle class="s" r="2.6" fill="#3fa9e0"><animateMotion dur="4.82s" begin="3.60s" repeatCount="indefinite" path="M800.4 440.5L828.8 481.3"/></circle><circle class="s" r="2.6" fill="#e0607a"><animateMotion dur="5.19s" begin="4.20s" repeatCount="indefinite" path="M487.2 449.8L383.2 457.9"/></circle><circle class="s" r="2.6" fill="#a970ff"><animateMotion dur="5.56s" begin="4.80s" repeatCount="indefinite" path="M908.1 243.9L863.7 253.3"/></circle><circle class="s" r="2.6" fill="#f0733a"><animateMotion dur="5.93s" begin="5.40s" repeatCount="indefinite" path="M649.4 149L669 110.8"/></circle></g>
<g><text class="l" x="269.2" y="341.6" text-anchor="end" fill="#3fbf8f" style="animation-delay:2.17s">To-Do</text><text class="l" x="273.2" y="259.6" text-anchor="end" fill="#3fbf8f" style="animation-delay:2.24s">scripts</text><line class="ll" x1="471.9" y1="284.3" x2="377.9" y2="284.3" stroke="#f0733a" style="animation-delay:2.31s"/><text class="l" x="377.9" y="288.3" text-anchor="end" fill="#f0733a" style="animation-delay:2.31s">Foundation</text><line class="ll" x1="759.3" y1="294" x2="759.3" y2="368" stroke="#a970ff" style="animation-delay:2.38s"/><text class="l" x="759.3" y="372" text-anchor="middle" fill="#a970ff" style="animation-delay:2.38s">scripts</text><line class="ll" x1="828.8" y1="481.3" x2="877.3" y2="509.3" stroke="#3fa9e0" style="animation-delay:2.45s"/><text class="l" x="877.3" y="513.3" text-anchor="start" fill="#3fa9e0" style="animation-delay:2.45s">Project-level (in this …</text><line class="ll" x1="383.2" y1="457.9" x2="348.6" y2="477.9" stroke="#e0607a" style="animation-delay:2.52s"/><text class="l" x="348.6" y="481.9" text-anchor="end" fill="#e0607a" style="animation-delay:2.52s">Terms and Conditions</text><line class="ll" x1="863.7" y1="253.3" x2="937.7" y2="253.3" stroke="#a970ff" style="animation-delay:2.59s"/><text class="l" x="937.7" y="257.3" text-anchor="start" fill="#a970ff" style="animation-delay:2.59s">core.ts</text><line class="ll" x1="649.4" y1="149" x2="696.4" y2="67.6" stroke="#f0733a" style="animation-delay:2.66s"/><text class="l" x="696.4" y="71.6" text-anchor="start" fill="#f0733a" style="animation-delay:2.66s">CameraSource</text><line class="ll" x1="658.5" y1="174.3" x2="705.5" y2="92.9" stroke="#f0733a" style="animation-delay:2.73s"/><text class="l" x="705.5" y="96.9" text-anchor="start" fill="#f0733a" style="animation-delay:2.73s">Settings</text><line class="ll" x1="541.9" y1="416.1" x2="504.9" y2="480.2" stroke="#3fbf8f" style="animation-delay:2.80s"/><text class="l" x="504.9" y="484.2" text-anchor="end" fill="#3fbf8f" style="animation-delay:2.80s">README.md</text><line class="ll" x1="459.9" y1="269" x2="378.5" y2="222" stroke="#f0733a" style="animation-delay:2.87s"/><text class="l" x="378.5" y="226" text-anchor="end" fill="#f0733a" style="animation-delay:2.87s">PerceptionRecord</text><line class="ll" x1="513" y1="211.9" x2="466" y2="130.5" stroke="#f0733a" style="animation-delay:2.94s"/><text class="l" x="466" y="134.5" text-anchor="end" fill="#f0733a" style="animation-delay:2.94s">AmbientAwarenessSession</text><text class="l" x="815.6" y="534.1" text-anchor="start" fill="#3fa9e0" style="animation-delay:3.01s">Global Constraints</text><line class="ll" x1="799.2" y1="222.4" x2="880.6" y2="175.4" stroke="#a970ff" style="animation-delay:3.08s"/><text class="l" x="880.6" y="179.4" text-anchor="start" fill="#a970ff" style="animation-delay:3.08s">devDependencies</text><line class="ll" x1="465.3" y1="193.3" x2="391.3" y2="193.3" stroke="#f0733a" style="animation-delay:3.15s"/><text class="l" x="391.3" y="197.3" text-anchor="end" fill="#f0733a" style="animation-delay:3.15s">Phrasing</text><line class="ll" x1="556.8" y1="496.7" x2="556.8" y2="590.7" stroke="#e0a03f" style="animation-delay:3.22s"/><text class="l" x="556.8" y="594.7" text-anchor="middle" fill="#e0a03f" style="animation-delay:3.22s">sweep-done-todo.mjs</text></g>
</g>
<circle cx="24" cy="644" r="4.5" fill="#f0733a"/><text class="g" x="34" y="648" fill="#f0733a">app · Swift/SwiftUI</text><circle cx="183.39999999999998" cy="644" r="4.5" fill="#a970ff"/><text class="g" x="193.39999999999998" y="648" fill="#a970ff">website · Astro</text><circle cx="316.4" cy="644" r="4.5" fill="#3fa9e0"/><text class="g" x="326.4" y="648" fill="#3fa9e0">docs</text><circle cx="376.79999999999995" cy="644" r="4.5" fill="#e0a03f"/><text class="g" x="386.79999999999995" y="648" fill="#e0a03f">tools · scripts · CI</text><circle cx="542.8" cy="644" r="4.5" fill="#e0607a"/><text class="g" x="552.8" y="648" fill="#e0607a">audits · legal · models · security</text><circle cx="801.1999999999999" cy="644" r="4.5" fill="#3fbf8f"/><text class="g" x="811.1999999999999" y="648" fill="#3fbf8f">root orientation docs</text>
</svg>
