<svg xmlns="http://www.w3.org/2000/svg" viewBox="0 0 1200 660" width="1200" height="660" role="img" aria-labelledby="t d">
<title id="t">SenseBridge knowledge graph</title>
<desc id="d">340 of the most connected symbols in the SenseBridge repository, laid out as a force-directed graph and joined by 654 extracted relationships — imports, calls, definitions, and references. Nodes are coloured by subsystem: app · Swift/SwiftUI, website · Astro, docs, tools · scripts · CI, audits · legal · models · security, root orientation docs. The 16 most connected are named. This is the still version, shown when the reader prefers reduced motion. Generated by tools/graph-visual.mjs from the Graphify knowledge graph at commit 0cd991d.</desc>
<style>
.w{fill:none;stroke:#7f8ca0;stroke-opacity:.28;stroke-width:.9}
.l{font:600 12px ui-sans-serif,-apple-system,"Segoe UI",Roboto,sans-serif}
.ll{stroke-width:.8;stroke-opacity:.5}
.g{font:500 11px ui-sans-serif,-apple-system,"Segoe UI",Roboto,sans-serif;opacity:.85}
</style>
<g id="brain">
<g><path class="w" d="M410.1 158.9Q448.6 175.1 480.7 201.9M558.4 159.8Q522.7 186.7 480.7 201.9M548.9 389Q583.3 399.1 613.3 418.9M409.7 181.2Q449.8 168.7 491.8 168.5M621.5 230.1Q573.1 254.5 519.6 263.7M583.6 204.8Q604.4 214.6 621.5 230.1M661.7 269.5Q649.5 248.8 643.9 225.5M650.8 255.3Q658.3 272.9 660.3 292M639.5 280.8Q646.1 257.3 659.3 236.7M674.3 254.5Q683.2 267.9 687.7 283.3M630.1 244.2Q631.8 254.1 630.6 264.1M572.9 173.8Q601.3 167.9 630.1 170.6M524.1 192.2Q557.2 182.5 591.6 183M520 413.9Q505.1 398 495.6 378.4M580.6 384.3Q537.7 387.7 495.6 378.4M683.9 397.8Q660.1 412.6 633 419.7M510.2 236.4Q467.6 247.7 423.6 246.1M504.8 272.6Q519.8 265 536.3 262.1M510.2 236.4Q482.9 224.6 460.3 205.3M593.1 224.5Q572.8 231.6 551.3 232.4M524.4 131.2Q531.7 168.5 527.7 206.2M579 119.9Q530.3 128.8 481.1 123.1M536.2 423.3Q527.4 419.8 520 413.9M536.2 423.3Q566.4 430.7 593.1 446.6M625.4 437.7Q617.9 429.2 613.3 418.9M665.6 428.7Q646.2 436.2 625.4 437.7M694.2 428.2Q653.9 420.2 617.7 400.7M617.7 400.7Q597.9 395.3 580.6 384.3M665.6 428.7Q672.4 411.9 683.9 397.8M665.6 428.7Q679.7 443 688.9 460.7M520.9 383.9Q560.8 386.8 598.1 401.3M580.6 384.3Q590.6 391.5 598.1 401.3M563 310.6Q538.5 304.6 516.8 291.6M509.4 182.5Q558.2 186.4 603.6 204.5M613.3 315.5Q583.7 286.3 563.9 249.7M604.2 269.4Q599 237 603.6 204.5M669.9 199.6Q688.2 208.6 703 222.5M670.4 219.5Q686.9 218.6 703 222.5M566.9 134.4Q537.7 121.3 513.6 100.2M516.2 220.1Q551.4 225 583.6 240.1M433.2 140.8Q415.6 140.3 398.9 134.6M504.8 272.6Q487 266.2 471.9 254.9M504.8 272.6Q481.1 306 448.6 331M537.3 155.3Q566.3 132.7 600.6 119.5M538.1 221.7Q500.6 209.3 468.3 186.4M543.5 79.3Q518.4 97.5 489.1 107.5M602.3 144.9Q618.6 173.4 625.9 205.5M469.5 143.1Q498.3 121.5 532.1 109.3M565.4 207.7Q552.8 216.7 538.1 221.7M472.9 221.1Q508.4 206.3 546.6 202.6M507.6 251.9Q479.8 213.7 464.5 169.1M504.8 272.6Q515.3 288.9 520.5 307.6M472.9 221.1Q463.8 238.2 450 251.9M537.5 296.7Q556.5 286.2 577.7 281.7M697.8 118.8Q677.9 118.6 659 112.6M634.8 555.7Q640.8 540.9 650.9 528.5M841.2 209.9Q867.2 206.5 893 210.9M896.6 180.7Q871.2 175.7 848.3 163.4M809.8 238.6Q845.4 241.3 878.6 254.4M772.3 261.9Q798.5 255.5 825.5 257.1M868.3 299.7Q852.4 318.4 831.7 331.7M847.8 310.5Q874 298.6 902.5 295M866.1 324.8Q859.6 334.9 850.5 342.7M889.1 352.8Q887.9 333 892.6 313.8M884.1 335.9Q897 329 911.3 326.2M543.7 406.4Q536.7 436.8 521 463.8M520 413.9Q557.3 414.2 592.8 425.4M418.6 404.3Q434.2 388.2 453.9 377.4M507.8 400.3Q545 402.9 579.8 416.2M475 371.6Q537.9 389.7 592.8 425.4M484.8 405.4Q467.3 393.7 453.9 377.4M543.7 406.4Q600.9 400.6 657.3 411.9M543.7 406.4Q496.6 398.6 453.9 377.4M579.8 416.2Q645.7 396.6 714.5 397.2M657.3 411.9Q626.1 423.5 592.8 425.4M715.1 434.5Q750.1 428.7 785.3 433.5M657.3 411.9Q615.8 429.5 571 434.2M492.3 441.6Q548.1 430.8 604.7 436.9M639.3 457Q603.4 450.7 571 434.2M593.1 446.6Q668.6 434.9 744.3 445.9M817.2 444.8Q824 460.1 826 476.8M435 462.6Q442.2 452.5 452 445"/><path class="w" d="M546.4 135.8Q518.5 173.8 480.7 201.9M552.7 265.7Q511.9 239.2 480.7 201.9M548.9 389Q580.4 408.8 604.7 436.9M558.4 159.8Q525.8 169.1 491.8 168.5M572.9 173.8Q513.7 205.5 447.9 218.4M583.6 204.8Q534.9 201.8 489.2 184.7M674.3 254.5Q656.9 242.3 643.9 225.5M639.5 280.8Q626.7 256.8 621.5 230.1M661.7 269.5Q658 253.3 659.3 236.7M685.9 241.2Q690 262.1 687.7 283.3M630.1 244.2Q641.3 248.2 650.8 255.3M407.2 290.5Q438.7 278.5 472.4 276.3M591.6 183Q584.1 168.1 581.2 151.7M617.7 400.7Q555 398.7 495.6 378.4M343.7 307.3Q317.8 311.4 291.9 307.7M715.1 434.5Q672.9 433.3 633 419.7M460.3 205.3Q445 228.5 423.6 246.1M500 317.2Q514 286.9 536.3 262.1M593.1 224.5Q552.5 236.7 510.2 236.4M579.8 261.6Q563.4 249.1 551.3 232.4M593.1 224.5Q559 220.3 527.7 206.2M579 119.9Q562.1 90 554.8 56.5M536.2 423.3Q525.6 404.7 520.9 383.9M536.2 423.3Q565.5 407.7 598.1 401.3M625.4 437.7Q618.8 419.8 617.7 400.7M660.3 443.8Q642.4 443.4 625.4 437.7M683.9 397.8Q651 404.2 617.7 400.7M665.6 428.7Q639.6 418.3 617.7 400.7M665.6 428.7Q690.8 427.9 715.1 434.5M660.3 443.8Q661.8 435.9 665.6 428.7M475 371.6Q538.8 377.2 598.1 401.3M724.7 458.8Q757.8 455 790.6 461M431.1 276.7Q432.3 255.8 439.5 236.1M509.4 182.5Q489.1 187.5 468.3 186.4M579.8 261.6Q571 256.8 563.9 249.7M546.6 202.6Q575.2 199.3 603.6 204.5M669.9 199.6Q671.6 209.5 670.4 219.5M498.6 83.3Q484.6 79.7 472.2 72.1M532.1 109.3Q522.2 106.1 513.6 100.2M494.1 224.6Q540 225.6 583.6 240.1M432.1 170.5Q412.8 155 398.9 134.6M537.5 296.7Q501.6 280.7 471.9 254.9M500 317.2Q475.3 328 448.6 331M533.4 333.6Q502.7 317.5 478.1 293.2M546.6 202.6Q506.2 200.4 468.3 186.4M515.6 166Q501.4 158.3 490 146.7M633.4 132Q635.2 169.3 625.9 205.5M469.5 143.1Q458.8 149.3 446.8 152M546.6 202.6Q577.6 187.2 611.7 181.5M611.7 181.5Q606.9 172.9 604.8 163.3M507.6 251.9Q525.9 272.1 537.5 296.7M504.8 272.6Q511.3 305 508 337.9M450 251.9Q468.2 243.9 488 241.5M542.6 247.9Q554.7 234.8 570.1 225.8M697.8 118.8Q688.8 128.7 677.2 135.6M817.9 279.7Q814.5 299.6 805.4 317.7M841.2 209.9Q827.7 226.6 809.8 238.6M870 208Q881.3 192.4 896.6 180.7M878.9 232.7Q884.3 220.7 893 210.9M848.3 281Q835.1 270.8 825.5 257.1M868.3 299.7Q885 294.8 902.5 295M847.8 310.5Q851.6 326.4 850.5 342.7M866.1 324.8Q888.8 322.1 911.3 326.2M867.2 361.6Q847.2 349.3 831.7 331.7M889.1 352.8Q898.2 337.8 911.3 326.2M558.7 466.9Q535.4 443.3 520 413.9M520 413.9Q564.1 419 604.7 436.9M452 445Q432.2 427.2 418.6 404.3M507.8 400.3Q552.2 406.5 592.8 425.4M475 371.6Q474.2 399.3 465.4 425.5M543.7 406.4Q514.2 410.3 484.8 405.4M543.7 406.4Q576.5 417.1 604.7 436.9M580.6 384.3Q563.8 398.1 543.7 406.4M579.8 416.2Q588.7 430.4 593.1 446.6M660.3 443.8Q625.2 439.7 592.8 425.4M660.3 443.8Q687 435 715.1 434.5M657.3 411.9Q627.8 434.1 593.1 446.6M580.6 384.3Q596.6 408.8 604.7 436.9M639.3 457Q615.4 455.3 593.1 446.6M435 462.6Q512.8 442.7 593.1 446.6M817.2 444.8Q838.8 455.6 856.2 472.2M435 462.6Q462.1 447.8 492.3 441.6"/><path class="w" d="M453.7 270.5Q462.1 234.2 480.7 201.9M396.7 348Q427.7 268.7 480.7 201.9M548.9 389Q518.1 402 484.8 405.4M552.7 265.7Q515 221.7 491.8 168.5M545 316.1Q573.8 325 598.7 341.9M524.1 192.2Q506.1 191.1 489.2 184.7M685.9 241.2Q663.7 236.5 643.9 225.5M661.7 269.5Q638.6 252.8 621.5 230.1M674.3 254.5Q665.5 246.7 659.3 236.7M630.6 264.1Q660.6 269.4 687.7 283.3M661.7 269.5Q651.4 276.8 639.5 280.8M472.4 276.3Q497.4 252.3 528.4 236.7M591.6 183Q609.9 173.9 630.1 170.6M436.4 424.5Q462.5 397 495.6 378.4M536.2 423.3Q584.3 414.2 633 419.7M665.6 428.7Q648.6 426.6 633 419.7M536.3 262.1Q530.4 250 528.4 236.7M577.7 281.7Q555.5 275 536.3 262.1M579.8 261.6Q543.1 254.2 510.2 236.4M499.7 286.4Q521.5 255.5 551.3 232.4M503.5 124.2Q521.8 163.4 527.7 206.2M546.6 202.6Q556.6 158.8 579 119.9M536.2 423.3Q557.5 416.5 579.8 416.2M536.2 423.3Q501 429.7 465.4 425.5M625.4 437.7Q615 438.9 604.7 436.9M688.9 460.7Q655.4 454 625.4 437.7M613.3 418.9Q614.1 409.5 617.7 400.7M660.3 443.8Q635.8 425.4 617.7 400.7M665.6 428.7Q660.2 420.9 657.3 411.9M715.1 434.5Q704 449.6 688.9 460.7M694.2 428.2Q644.1 422 598.1 401.3M285.1 246.4Q269.9 256.3 252.4 261.2M488.2 262.3Q460.7 273.8 431.1 276.7M509.4 182.5Q476.4 191 442.3 189.5M488 241.5Q526.6 239.9 563.9 249.7M552.7 265.7Q490.2 330.3 411.4 373.8M669.9 199.6Q699.2 179 733.2 167.9M514.8 147.3Q501.9 116.5 498.6 83.3M446.8 152Q476.3 121.1 513.6 100.2M504.8 272.6Q541.8 250.4 583.6 240.1M409.7 181.2Q400.8 158.7 398.9 134.6M494.1 224.6Q504.8 220.7 516.2 220.1M472.9 221.1Q463.5 259.6 443.3 293.6M504.8 272.6Q523.7 301 533.4 333.6M604.3 251.3Q596.7 238.7 593.1 224.5M515.6 166Q538.9 146.4 566.9 134.4M653.3 144.9Q644.1 177.3 625.9 205.5M433.2 140.8Q427.5 118.1 428.7 94.7M546.6 202.6Q572.8 178.6 604.8 163.3M611.7 181.5Q604.3 163.9 602.3 144.9M507.6 251.9Q503.4 199.1 514.8 147.3M504.8 272.6Q485 249.2 472.9 221.1M500.8 206.5Q497 225 488 241.5M537.5 296.7Q536.4 271.9 542.6 247.9M681.5 98.4Q676.2 85.7 674.8 71.9M817.9 279.7Q848.6 273.9 879.6 277.3M841.2 209.9Q861.8 218.5 878.9 232.7M870 208Q897.8 206.5 924.9 213.3M878.9 232.7Q854.1 234.4 829.9 228.8M829.9 228.8Q817.9 247.5 800.9 261.9M868.3 299.7Q862.6 322.5 850.5 342.7M847.8 310.5Q880.7 313.6 911.3 326.2M867.2 361.6Q863.9 343.3 866.1 324.8M884.1 335.9Q857.6 337.7 831.7 331.7M884.1 335.9Q890.2 314.1 902.5 295M558.7 466.9Q565.4 440 579.8 416.2M520 413.9Q575.7 397.3 633.8 397.8M492.3 441.6Q452.7 428.5 418.6 404.3M507.8 400.3Q553.9 417.1 593.1 446.6M475 371.6Q464.9 376.1 453.9 377.4M537.5 368.8Q612.9 372.3 683.9 397.8M543.7 406.4Q588.1 395.3 633.8 397.8M460.8 398.2Q521.7 398.3 579.8 416.2M660.3 443.8Q618 436 579.8 416.2M571 434.2Q581.2 428.2 592.8 425.4M613.3 418.9Q593.3 429.7 571 434.2M660.3 443.8Q656.4 428.1 657.3 411.9M660.3 443.8Q643.6 422.8 633.8 397.8M660.3 443.8Q614.9 445.7 571 434.2M492.3 441.6Q543.1 436.5 593.1 446.6M660.3 443.8Q711.7 448.1 759.5 467.3M452 445Q411.3 465.1 366.5 472.4"/><path class="w" d="M454.8 127.4Q473.3 162.7 480.7 201.9M452 445Q496.3 409.7 548.9 389M548.9 389Q500.5 390.3 453.9 377.4M453.7 270.5Q446.9 244.9 447.9 218.4M639.5 280.8Q594.9 305.5 545 316.1M433.2 140.8Q464.5 158.6 489.2 184.7M630.6 264.1Q634.4 243.8 643.9 225.5M674.3 254.5Q646.1 246.3 621.5 230.1M685.9 241.2Q672.3 240.9 659.3 236.7M650.8 255.3Q671.4 266.5 687.7 283.3M674.3 254.5Q658.9 270.3 639.5 280.8M472.4 276.3Q488.3 253.5 510.2 236.4M576.6 76.1Q568.6 127 546.1 173.4M537.5 368.8Q517.3 376.7 495.6 378.4M520 413.9Q576.9 408.3 633 419.7M660.3 443.8Q644.8 433.8 633 419.7M536.3 262.1Q521.3 251.2 510.2 236.4M565.4 207.7Q554.9 237.1 536.3 262.1M450 251.9Q478.9 239.6 510.2 236.4M570.1 225.8Q561.2 230.5 551.3 232.4M500.8 206.5Q514.2 204.3 527.7 206.2M611.7 181.5Q590.7 153.2 579 119.9M536.2 423.3Q564.7 420.1 592.8 425.4M520 413.9Q574.5 417.9 625.4 437.7M625.4 437.7Q626.6 417.1 633.8 397.8M492.3 441.6Q558.6 429.7 625.4 437.7M617.7 400.7Q569.8 414.6 520 413.9M639.3 457Q624.3 430.5 617.7 400.7M665.6 428.7Q635.8 437.4 604.7 436.9M660.3 443.8Q675.9 450.1 688.9 460.7M660.3 443.8Q626 427.2 598.1 401.3M285.1 246.4Q290.3 261.4 290.8 277.3M540.2 185.6Q520 227.9 488.2 262.3M546.6 202.6Q526.5 195.3 509.4 182.5M499.7 286.4Q529 263.2 563.9 249.7M396.7 348Q406 359.8 411.4 373.8M669.9 199.6Q695.8 222.2 714 251.4M462.5 98.7Q465.4 84.7 472.2 72.1M543.5 79.3Q530.1 92 513.6 100.2M651.9 166.2Q623.3 208.3 583.6 240.1M464.5 169.1Q439.4 147.5 421.7 119.5M542.6 247.9Q516.6 239.9 494.1 224.6M499.7 286.4Q472 294.2 443.3 293.6M520.5 307.6Q528.9 319.6 533.4 333.6M577.7 281.7Q588.7 264.5 604.3 251.3M504.8 272.6Q502.2 218.5 515.6 166M633.6 303.3Q606.6 321.6 575.4 331.2M579.8 261.6Q556 244.8 538.1 221.7M546.6 202.6Q570.1 169.6 602.3 144.9M602.3 144.9Q616.9 136.1 633.4 132M585.1 311.5Q599.5 311.4 613.3 315.5M504.8 272.6Q541.9 271.7 577.7 281.7M500.8 206.5Q536.9 211 570.1 225.8M514.8 147.3Q544.6 173.7 565.4 207.7M612.2 530Q608.8 549.4 599.8 567M817.9 279.7Q802.1 304.6 779.6 323.8M866.8 185.9Q881.8 196.4 893 210.9M870 208Q876.3 219.7 878.9 232.7M878.9 232.7Q867.6 248.3 852.3 259.9M852.3 259.9Q826.7 264.8 800.9 261.9M868.3 299.7Q891.8 309.7 911.3 326.2M866.1 324.8Q878.5 317.3 892.6 313.8M884.1 335.9Q874.3 331.7 866.1 324.8M889.1 352.8Q858.8 346.6 831.7 331.7M867.2 361.6Q887.5 362 906.7 368.4M558.7 466.9Q579.5 448.5 604.7 436.9M520 413.9Q559 424.8 593.1 446.6M520.9 383.9Q436.9 376.1 358.9 344M507.8 400.3Q496.7 404.6 484.8 405.4M475 371.6Q528.8 370 580.6 384.3M537.5 368.8Q587.8 376.1 633.8 397.8M543.7 406.4Q595.3 424.5 639.3 457M460.8 398.2Q535.7 406.8 604.7 436.9M639.3 457Q606.5 441.1 579.8 416.2M465.4 425.5Q529.1 415.9 592.8 425.4M660.3 443.8Q634.9 434.9 613.3 418.9M660.3 443.8Q632 444.5 604.7 436.9M633.8 397.8Q688.6 387.6 743.9 394M571 434.2Q583 438.7 593.1 446.6M580.6 384.3Q591.5 414.5 593.1 446.6M436.4 424.5Q388.6 431.9 340.7 425M492.3 441.6Q472.4 446.3 452 445"/><path class="w" d="M524.1 192.2Q503.1 200.3 480.7 201.9M492.3 441.6Q516.7 411.1 548.9 389M524.1 192.2Q506.2 182.8 491.8 168.5M453.7 270.5Q486.1 262.2 519.6 263.7M583.6 204.8Q615.3 210.6 643.9 225.5M432.1 170.5Q461.7 173.3 489.2 184.7M661.7 269.5Q662.7 280.9 660.3 292M685.9 241.2Q652.9 240.5 621.5 230.1M630.6 264.1Q642.9 248.2 659.3 236.7M630.1 244.2Q637.5 261.8 639.5 280.8M685.9 241.2Q665.7 264.5 639.5 280.8M472.4 276.3Q508.6 248.4 551.3 232.4M546.1 173.4Q542 206.4 528.4 236.7M495.6 378.4Q557.5 389.8 613.3 418.9M520.9 383.9Q579.6 393.4 633 419.7M633 419.7Q623.9 411.3 617.7 400.7M536.3 262.1Q494 239.4 460.3 205.3M593.1 224.5Q561.7 235.5 528.4 236.7M499.7 286.4Q501.2 260.6 510.2 236.4M565.4 207.7Q560.2 221.1 551.3 232.4M570.1 225.8Q547.4 219.2 527.7 206.2M633.4 132Q605.3 130 579 119.9M536.2 423.3Q581.9 423.8 625.4 437.7M520.9 383.9Q577.2 403 625.4 437.7M625.4 437.7Q597.9 440 571 434.2M543.7 406.4Q586.9 415.9 625.4 437.7M617.7 400.7Q607.1 414.9 592.8 425.4M537.5 368.8Q580 378.7 617.7 400.7M665.6 428.7Q647.4 415.6 633.8 397.8M688.9 460.7Q638.2 450.3 592.8 425.4M598.1 401.3Q615.7 396.9 633.8 397.8M516.8 291.6Q499.8 304.4 479.8 311.7M540.2 185.6Q573.3 190.3 603.6 204.5M563.9 249.7Q500.7 252.2 439.5 236.1M563.6 189.7Q568.3 219.7 563.9 249.7M669.9 199.6Q657.5 193.7 647.4 184.5M669.9 199.6Q693.3 190.1 718.5 187.8M514.8 147.3Q485 126.9 462.5 98.7M532.1 109.3Q523 89.3 520.2 67.5M599.3 295.4Q587.3 268.9 583.6 240.1M471.9 254.9Q491.4 234.2 516.2 220.1M503.5 124.2Q483.9 100.5 472.2 72.1M546.4 135.8Q584.3 118.4 625.6 112.8M488 241.5Q486.9 268.1 478.1 293.2M454.8 127.4Q470.5 114.9 489.1 107.5M472.9 221.1Q475.9 182.6 490 146.7M633.6 303.3Q632.2 320 625.9 335.6M488 241.5Q511.6 227.8 538.1 221.7M488 241.5Q514.4 217.7 546.6 202.6M653.3 144.9Q627.8 148.7 602.3 144.9M558.8 289.6Q567.2 274 579.8 261.6M500 317.2Q499.1 294.5 504.8 272.6M500 317.2Q497.5 301.8 499.7 286.4M558.4 159.8Q604.9 174.7 644.9 202.6M612.2 530Q618.7 515.3 629.3 503.2M817.9 279.7Q805.8 246.9 803.9 211.9M878.9 232.7Q869.3 210.2 866.8 185.9M924.9 213.3Q908.8 214.5 893 210.9M878.9 232.7Q867.2 259.1 848.3 281M772.3 261.9Q786.6 259.8 800.9 261.9M847.8 310.5Q858 316.3 866.1 324.8M866.1 324.8Q849.4 330.8 831.7 331.7M848.3 281Q860.5 301.6 866.1 324.8M867.2 361.6Q857.4 353.4 850.5 342.7M867.2 361.6Q850.2 362.1 833.8 357.6M558.7 466.9Q574.4 454.2 593.1 446.6M520 413.9Q488.3 434.6 452 445M520.9 383.9Q578.4 382.4 633.8 397.8M507.8 400.3Q479.1 392.9 453.9 377.4M543.7 406.4Q506.7 394.2 475 371.6M537.5 368.8Q496.3 379.4 453.9 377.4M543.7 406.4Q559.4 418.3 571 434.2M460.8 398.2Q530.6 412.5 593.1 446.6M436.4 424.5Q507.5 409.6 579.8 416.2M683.9 397.8Q726.3 384.7 770.6 384.6M639.3 457Q623.4 439.9 613.3 418.9M604.7 436.9Q669.3 419.5 736.1 421.9M633.8 397.8Q605.1 420.7 571 434.2M435 462.6Q500.9 438.2 571 434.2M694.2 428.2Q756.9 427.3 817.2 444.8M436.4 424.5Q465.6 428.9 492.3 441.6M492.3 441.6Q436.8 451.7 380.7 445.1"/><path class="w" d="M433.2 140.8Q461.5 167.8 480.7 201.9M543.7 406.4Q545 397.3 548.9 389M433.2 140.8Q464.6 150.3 491.8 168.5M453.7 270.5Q502.8 286.5 545 316.1M583.6 204.8Q575.9 190.1 572.9 173.8M409.7 181.2Q449.7 177 489.2 184.7M674.3 254.5Q670.1 274.3 660.3 292M630.6 264.1Q623.5 247.8 621.5 230.1M650.8 255.3Q653.7 245.4 659.3 236.7M630.1 244.2Q647.8 254.5 661.7 269.5M630.6 264.1Q636.3 271.8 639.5 280.8M472.4 276.3Q464.5 256.1 462.9 234.5M546.1 173.4Q532.9 207.6 510.2 236.4M495.6 378.4Q537.5 400.6 571 434.2M507.8 400.3Q571.9 400.6 633 419.7M633 419.7Q615.1 436.1 593.1 446.6M536.3 262.1Q541.6 246.1 551.3 232.4M579.8 261.6Q552.2 253 528.4 236.7M570.1 225.8Q540.9 235.6 510.2 236.4M460.3 205.3Q495.1 174.5 537.3 155.3M542.6 247.9Q532 228.2 527.7 206.2M618.4 94.5Q600.6 110.2 579 119.9M536.2 423.3Q575.3 405.9 617.7 400.7M579.8 416.2Q604.2 423.5 625.4 437.7M625.4 437.7Q609.9 444.6 593.1 446.6M580.6 384.3Q607 407.6 625.4 437.7M617.7 400.7Q691 396.7 762.2 414.3M543.7 406.4Q580.3 398 617.7 400.7M665.6 428.7Q654.6 444.8 639.3 457M688.9 460.7Q645 455.1 604.7 436.9M598.1 401.3Q665.7 420.6 724.7 458.8M431.1 276.7Q458.1 290.5 479.8 311.7M546.6 202.6Q542.1 194.6 540.2 185.6M488 241.5Q463.3 242.4 439.5 236.1M542.6 247.9Q553.4 247.2 563.9 249.7M611.7 181.5Q629.8 180.3 647.4 184.5M546.6 202.6Q608 191.9 669.9 199.6M520.2 67.5Q519.4 84.3 513.6 100.2M433.2 140.8Q408.4 152.6 381.2 156.6M410.1 158.9Q412.9 138.3 421.7 119.5M471.9 254.9Q480.7 238.1 494.1 224.6M443.3 293.6Q419.2 280 400.2 259.9M546.4 135.8Q549.2 123.3 555.6 112.2M500.8 206.5Q496 251.6 478.1 293.2M454.8 127.4Q488.1 142.1 515.6 166M619.2 286Q616.5 245.2 625.9 205.5M566.6 97.7Q598.6 118.8 622.9 148.4M499.7 286.4Q514 251.2 538.1 221.7M500.8 206.5Q523.4 201.1 546.6 202.6M507.6 251.9Q550.8 275.9 585.1 311.5M504.8 272.6Q494.1 258.3 488 241.5M520.5 307.6Q516.5 323.7 508 337.9M740.5 144.3Q725.5 157.6 707.3 165.9M552.7 265.7Q618.2 274.9 678.1 302.9M612.2 530Q588.8 529.3 566.7 521.7M820.6 300.8Q803.4 295.8 788.4 286M833.4 189.4Q864.8 195.7 893 210.9M920.3 238.5Q904.6 226.7 893 210.9M825.5 257.1Q813.6 261.3 800.9 261.9M848.3 281Q823.2 275 800.9 261.9M847.8 310.5Q870.4 308.8 892.6 313.8M866.1 324.8Q852.4 343.6 833.8 357.6M889.1 352.8Q875.5 340.5 866.1 324.8M884.1 335.9Q867.8 341.8 850.5 342.7M884.1 335.9Q860.6 350.5 833.8 357.6M520 413.9Q432.7 409.7 350.4 380M520.9 383.9Q522.7 399 520 413.9M460.8 398.2Q489.8 386.5 520.9 383.9M507.8 400.3Q543 386.8 580.6 384.3M484.8 405.4Q533.1 403.7 579.8 416.2M543.7 406.4Q562.5 408.6 579.8 416.2M543.7 406.4Q571.4 422.8 593.1 446.6M460.8 398.2Q387.8 387.8 321.1 356.4M580.6 384.3Q582.6 400.3 579.8 416.2M683.9 397.8Q650.2 413.6 613.3 418.9M492.3 441.6Q551.1 421.2 613.3 418.9M633.8 397.8Q622.2 419.5 604.7 436.9M633.8 397.8Q617.1 425.3 593.1 446.6M580.6 384.3Q579.5 410 571 434.2M817.2 444.8Q854.1 432 893.2 430.6M435 462.6Q432.8 443.4 436.4 424.5M580.6 384.3Q649.2 353 724 343.3"/><path class="w" d="M432.1 170.5Q458.8 182.6 480.7 201.9M548.9 389Q573.6 403.9 592.8 425.4M432.1 170.5Q461.8 165 491.8 168.5M447.9 218.4Q487.1 235.7 519.6 263.7M583.6 204.8Q609.8 221 630.1 244.2M558.4 159.8Q525.7 177.4 489.2 184.7M685.9 241.2Q676.9 268.5 660.3 292M650.8 255.3Q634.3 244.9 621.5 230.1M659.3 236.7Q677 257.9 687.7 283.3M630.1 244.2Q653 246 674.3 254.5M650.8 255.3Q647.1 268.9 639.5 280.8M524.1 192.2Q539 234.5 540.9 279.3M546.1 173.4Q553.1 202.5 551.3 232.4M495.6 378.4Q548.6 382.2 598.1 401.3M579.8 416.2Q606.7 414 633 419.7M543.7 406.4Q589.3 406.4 633 419.7M604.3 251.3Q571.1 261.8 536.3 262.1M570.1 225.8Q550.1 234.4 528.4 236.7M565.4 207.7Q540 226.2 510.2 236.4M423.7 206.2Q475.7 198.4 527.7 206.2M689 265.6Q603.9 248 527.7 206.2M845.2 400.7Q865.4 400.4 884.8 406M536.2 423.3Q571.5 425 604.7 436.9M592.8 425.4Q610 429.1 625.4 437.7M715.1 434.5Q670.5 442.8 625.4 437.7M520.9 383.9Q570.6 385 617.7 400.7M617.7 400.7Q613.9 419.8 604.7 436.9M665.6 428.7Q621.8 428.9 579.8 416.2M665.6 428.7Q618.7 438.5 571 434.2M688.9 460.7Q726.7 473.6 759.1 497.1M537.5 368.8Q570.2 380.5 598.1 401.3M563 310.6Q521.5 317.4 479.8 311.7M611.7 181.5Q576.3 188.9 540.2 185.6M670.4 219.5Q619.4 242.6 563.9 249.7M565.4 207.7Q567.8 228.8 563.9 249.7M604.8 163.3Q627.7 170.7 647.4 184.5M611.7 181.5Q642.2 186.2 669.9 199.6M489.1 107.5Q500.8 102 513.6 100.2M432.1 170.5Q405.6 167.4 381.2 156.6M410.1 158.9Q402.7 147.6 398.9 134.6M471.9 254.9Q444.1 234.2 423.7 206.2M450 251.9Q425.7 259.6 400.2 259.9M555.6 112.2Q578.6 112.5 600.6 119.5M468.3 186.4Q455.5 189.9 442.3 189.5M490 146.7Q486.6 127.2 489.1 107.5M625.9 335.6Q618.8 311.3 619.2 286M514.8 147.3Q537 118.6 566.6 97.7M563.6 189.7Q553.3 207.6 538.1 221.7M450 251.9Q494.6 220 546.6 202.6M507.6 251.9Q536 266.9 558.8 289.6M504.8 272.6Q497.8 239.9 500.8 206.5M520.5 307.6Q547.2 290.4 577.7 281.7M464.5 169.1Q515.6 172 563.6 189.7M678.1 302.9Q680.8 283.4 689 265.6M535.4 535.8Q550 526.4 566.7 521.7M853.9 235.7Q871.6 220.4 893 210.9M878.9 232.7Q852.9 214.5 833.4 189.4M920.3 238.5Q899.2 238.7 878.9 232.7M829.9 228.8Q829.8 243.3 825.5 257.1M868.3 299.7Q869.1 312.4 866.1 324.8M847.8 310.5Q841.3 322.3 831.7 331.7M866.1 324.8Q882.1 307.2 902.5 295M867.2 361.6Q876.3 335.8 892.6 313.8M889.1 352.8Q869 350.6 850.5 342.7M889.1 352.8Q861.8 359.3 833.8 357.6M520 413.9Q494.3 396.1 475 371.6M460.8 398.2Q491.6 401.6 520 413.9M580.6 384.3Q550.7 388.6 520.9 383.9M543.7 406.4Q525.3 406 507.8 400.3M484.8 405.4Q540.3 407.3 592.8 425.4M543.7 406.4Q569.7 412.2 592.8 425.4M543.7 406.4Q506 421.8 465.4 425.5M465.4 425.5Q456 402.3 453.9 377.4M592.8 425.4Q649.9 447.1 698.1 484.6M715.1 434.5Q696.7 418.5 683.9 397.8M657.3 411.9Q632.9 428.3 604.7 436.9M639.3 457Q620.5 449.5 604.7 436.9M580.6 384.3Q608.2 387.1 633.8 397.8M694.2 428.2Q645 445 593.1 446.6M817.2 444.8Q835 431.9 855.8 424.8M580.6 384.3Q511.5 415.2 436.4 424.5"/><path class="w" d="M583.6 204.8Q531.9 211.1 480.7 201.9M548.9 389Q590.8 407.6 625.4 437.7M583.6 204.8Q535 193.5 491.8 168.5M545 316.1Q528.4 291.8 519.6 263.7M583.6 204.8Q623.8 215.1 659.3 236.7M552.7 265.7Q514.9 230 489.2 184.7M630.6 264.1Q647.5 275.8 660.3 292M621.5 230.1Q644.2 201.1 674.4 180.1M661.7 269.5Q675.7 274.5 687.7 283.3M630.1 244.2Q657.8 238.5 685.9 241.2M572.9 173.8Q575.4 162.1 581.2 151.7M524.1 192.2Q549.6 167.7 581.2 151.7M546.1 173.4Q509.1 210.2 462.9 234.5M495.6 378.4Q414.3 354.2 343.7 307.3M694.2 428.2Q663 428.5 633 419.7M528.4 236.7Q476.7 249.3 423.6 246.1M579.8 261.6Q558.1 265.1 536.3 262.1M565.4 207.7Q549.1 225 528.4 236.7M551.3 232.4Q538.5 194.9 537.3 155.3M527.7 206.2Q470.7 223.6 411.2 223.5M579 119.9Q592.7 94.2 613.4 73.7M536.2 423.3Q456.7 419.2 382 391.9M536.2 423.3Q583.1 403.2 633.8 397.8M625.4 437.7Q680.6 454.8 728.4 487.4M657.3 411.9Q643.3 427.2 625.4 437.7M507.8 400.3Q562.8 392.3 617.7 400.7M617.7 400.7Q607.9 402.5 598.1 401.3M665.6 428.7Q629 432.5 592.8 425.4M665.6 428.7Q630.7 443.1 593.1 446.6M520 413.9Q558.1 401.7 598.1 401.3M543.7 406.4Q570.5 399.8 598.1 401.3M431.1 276.7Q475.1 277.7 516.8 291.6M488.2 262.3Q525.1 250.3 563.9 249.7M604.2 269.4Q582.6 262.6 563.9 249.7M669.9 199.6Q637.1 207 603.6 204.5M669.9 199.6Q697.4 200.8 723.3 210.1M670.4 219.5Q696.1 210.8 723.3 210.1M490 146.7Q498.3 121.7 513.6 100.2M409.7 181.2Q393.6 171 381.2 156.6M454.8 127.4Q427.4 135.2 398.9 134.6M558.8 289.6Q512.7 278.8 471.9 254.9M448.6 331Q443.1 312.7 443.3 293.6M555.6 112.2Q549.7 135.1 537.3 155.3M546.6 202.6Q493.5 203.9 442.3 189.5M500.8 206.5Q487.5 157.9 489.1 107.5M633.6 303.3Q622.4 255 625.9 205.5M565.4 207.7Q589.7 173.7 622.9 148.4M542.6 247.9Q538.4 235.1 538.1 221.7M520.5 307.6Q525.7 253.1 546.6 202.6M507.6 251.9Q508.7 285.1 500 317.2M504.8 272.6Q475.8 266.4 450 251.9M472.9 221.1Q485.8 211.7 500.8 206.5M577.7 281.7Q569.7 254.3 570.1 225.8M678.1 302.9Q683.5 318.1 684.2 334.2M482.8 547.5Q484.4 533.3 490.1 520.2M853.9 235.7Q866.2 232.3 878.9 232.7M896.6 180.7Q897.1 196.1 893 210.9M878.9 232.7Q896.6 244.9 910 261.7M852.3 259.9Q838.7 260.5 825.5 257.1M868.3 299.7Q881.5 304.9 892.6 313.8M847.8 310.5Q844.3 335.1 833.8 357.6M866.1 324.8Q889.7 343.6 906.7 368.4M884.1 335.9Q886.7 324.2 892.6 313.8M867.2 361.6Q886.6 340.6 911.3 326.2M507.8 400.3Q519.2 431.1 521 463.8M520 413.9Q550.1 410.6 579.8 416.2M418.6 404.3Q497 407.8 571 434.2M507.8 400.3Q437.4 392.8 372.4 364.9M475 371.6Q402.5 360.7 336.3 329M484.8 405.4Q530.1 413.3 571 434.2M543.7 406.4Q579.4 407.4 613.3 418.9M543.7 406.4Q458.8 380.9 385.1 331.6M580.6 384.3Q516.7 390.4 453.9 377.4M592.8 425.4Q599.6 430.3 604.7 436.9M660.3 443.8Q668.6 419 683.9 397.8M657.3 411.9Q644.5 406.6 633.8 397.8M452 445Q527.7 429.5 604.7 436.9M660.3 443.8Q650.8 452 639.3 457M660.3 443.8Q626.9 450.2 593.1 446.6M817.2 444.8Q847 443.1 876 450.3M435 462.6Q386.4 467.2 338.5 457.3"/></g>
<g></g>
<g><circle cx="480.7" cy="201.9" r="9.6" fill="#f0733a"/><circle cx="291.9" cy="307.7" r="9.2" fill="#3fbf8f"/><circle cx="290.8" cy="277.3" r="9.1" fill="#3fbf8f"/><circle cx="803.9" cy="211.9" r="8.4" fill="#a970ff"/><circle cx="491.8" cy="168.5" r="8.4" fill="#f0733a"/><circle cx="546.6" cy="202.6" r="7.9" fill="#f0733a"/><circle cx="856.2" cy="472.2" r="7.9" fill="#3fa9e0"/><circle cx="380.7" cy="445.1" r="7.4" fill="#e0607a"/><circle cx="866.1" cy="324.8" r="7.1" fill="#a970ff"/><circle cx="633.6" cy="303.3" r="7" fill="#f0733a"/><circle cx="579" cy="119.9" r="7" fill="#f0733a"/><circle cx="543.7" cy="406.4" r="6.9" fill="#3fbf8f"/><circle cx="489.2" cy="184.7" r="6.9" fill="#f0733a"/><circle cx="527.7" cy="206.2" r="6.8" fill="#f0733a"/><circle cx="504.8" cy="272.6" r="6.7" fill="#f0733a"/><circle cx="820" cy="420.7" r="6.7" fill="#3fa9e0"/><circle cx="779.6" cy="323.8" r="6.7" fill="#a970ff"/><circle cx="536.3" cy="262.1" r="6.6" fill="#f0733a"/><circle cx="587.7" cy="541.2" r="6.6" fill="#e0a03f"/><circle cx="625.4" cy="437.7" r="6.5" fill="#3fa9e0"/><circle cx="829.9" cy="228.8" r="6.5" fill="#a970ff"/><circle cx="520" cy="413.9" r="6.4" fill="#3fbf8f"/><circle cx="563.9" cy="249.7" r="6.4" fill="#f0733a"/><circle cx="855.8" cy="424.8" r="6.4" fill="#3fa9e0"/><circle cx="660.3" cy="443.8" r="6.4" fill="#3fa9e0"/><circle cx="617.7" cy="400.7" r="6.3" fill="#3fa9e0"/><circle cx="604.7" cy="436.9" r="6.3" fill="#3fa9e0"/><circle cx="593.1" cy="446.6" r="6.3" fill="#3fa9e0"/><circle cx="453.9" cy="377.4" r="6.3" fill="#3fbf8f"/><circle cx="669.9" cy="199.6" r="6.2" fill="#f0733a"/><circle cx="592.8" cy="425.4" r="6.2" fill="#3fa9e0"/><circle cx="580.6" cy="384.3" r="6.2" fill="#a970ff"/><circle cx="407.2" cy="290.5" r="6.1" fill="#f0733a"/><circle cx="515.6" cy="166" r="6.1" fill="#f0733a"/><circle cx="554.8" cy="56.5" r="6.1" fill="#f0733a"/><circle cx="634.8" cy="555.7" r="6.1" fill="#e0a03f"/><circle cx="817.9" cy="279.7" r="6.1" fill="#a970ff"/><circle cx="696.7" cy="197.2" r="6" fill="#f0733a"/><circle cx="462.9" cy="234.5" r="6" fill="#f0733a"/><circle cx="579.8" cy="416.2" r="6" fill="#3fa9e0"/><circle cx="338.5" cy="457.3" r="6" fill="#e0607a"/><circle cx="369.2" cy="183.7" r="6" fill="#f0733a"/><circle cx="893" cy="210.9" r="6" fill="#a970ff"/><circle cx="841.2" cy="209.9" r="6" fill="#a970ff"/><circle cx="536.2" cy="423.3" r="5.9" fill="#3fbf8f"/><circle cx="602.3" cy="144.9" r="5.9" fill="#f0733a"/><circle cx="618.4" cy="94.5" r="5.9" fill="#f0733a"/><circle cx="876" cy="450.3" r="5.9" fill="#3fa9e0"/><circle cx="665.6" cy="428.7" r="5.9" fill="#3fa9e0"/><circle cx="633.8" cy="397.8" r="5.9" fill="#3fa9e0"/><circle cx="571" cy="434.2" r="5.9" fill="#3fa9e0"/><circle cx="598.1" cy="401.3" r="5.9" fill="#3fa9e0"/><circle cx="385.1" cy="331.6" r="5.9" fill="#3fbf8f"/><circle cx="515.3" cy="558.6" r="5.9" fill="#e0a03f"/><circle cx="576.6" cy="76.1" r="5.8" fill="#f0733a"/><circle cx="546.1" cy="173.4" r="5.8" fill="#f0733a"/><circle cx="625.9" cy="205.5" r="5.8" fill="#f0733a"/><circle cx="370.9" cy="241.7" r="5.8" fill="#f0733a"/><circle cx="884.8" cy="406" r="5.8" fill="#3fa9e0"/><circle cx="366.5" cy="472.4" r="5.8" fill="#e0607a"/><circle cx="509.4" cy="182.5" r="5.6" fill="#f0733a"/><circle cx="471.9" cy="254.9" r="5.6" fill="#f0733a"/><circle cx="533.4" cy="333.6" r="5.6" fill="#f0733a"/><circle cx="581.2" cy="151.7" r="5.6" fill="#f0733a"/><circle cx="683.3" cy="158.7" r="5.6" fill="#f0733a"/><circle cx="633" cy="419.7" r="5.6" fill="#3fa9e0"/><circle cx="597.1" cy="503.2" r="5.6" fill="#e0a03f"/><circle cx="879.6" cy="277.3" r="5.6" fill="#a970ff"/><circle cx="870" cy="208" r="5.6" fill="#a970ff"/><circle cx="751.6" cy="293.8" r="5.6" fill="#a970ff"/><circle cx="948" cy="306.1" r="5.6" fill="#a970ff"/><circle cx="513.6" cy="100.2" r="5.5" fill="#f0733a"/><circle cx="448.6" cy="331" r="5.5" fill="#f0733a"/><circle cx="468.3" cy="186.4" r="5.5" fill="#f0733a"/><circle cx="630.1" cy="170.6" r="5.5" fill="#f0733a"/><circle cx="572.9" cy="173.8" r="5.5" fill="#f0733a"/><circle cx="708.2" cy="141.3" r="5.5" fill="#f0733a"/><circle cx="340.7" cy="425" r="5.5" fill="#e0607a"/><circle cx="285.1" cy="246.4" r="5.5" fill="#3fbf8f"/><circle cx="458" cy="514" r="5.5" fill="#e0a03f"/><circle cx="878.9" cy="232.7" r="5.5" fill="#a970ff"/><circle cx="770.2" cy="346.4" r="5.5" fill="#a970ff"/><circle cx="847.8" cy="310.5" r="5.5" fill="#a970ff"/><circle cx="350.4" cy="380" r="5.4" fill="#3fbf8f"/><circle cx="540.2" cy="185.6" r="5.4" fill="#f0733a"/><circle cx="566.6" cy="97.7" r="5.4" fill="#f0733a"/><circle cx="469.5" cy="143.1" r="5.4" fill="#f0733a"/><circle cx="639.5" cy="280.8" r="5.4" fill="#f0733a"/><circle cx="538.1" cy="221.7" r="5.4" fill="#f0733a"/><circle cx="653.3" cy="144.9" r="5.4" fill="#f0733a"/><circle cx="740.5" cy="144.3" r="5.4" fill="#f0733a"/><circle cx="577.7" cy="281.7" r="5.4" fill="#f0733a"/><circle cx="697.8" cy="118.8" r="5.4" fill="#f0733a"/><circle cx="288.8" cy="427" r="5.4" fill="#e0607a"/><circle cx="250.6" cy="294.1" r="5.4" fill="#3fbf8f"/><circle cx="507.8" cy="400.3" r="5.4" fill="#3fbf8f"/><circle cx="492.3" cy="441.6" r="5.4" fill="#e0607a"/><circle cx="612.2" cy="530" r="5.4" fill="#e0a03f"/><circle cx="482.8" cy="547.5" r="5.4" fill="#e0a03f"/><circle cx="949.4" cy="259.3" r="5.4" fill="#a970ff"/><circle cx="920.3" cy="238.5" r="5.4" fill="#a970ff"/><circle cx="848.3" cy="281" r="5.4" fill="#a970ff"/><circle cx="439.5" cy="236.1" r="5.2" fill="#f0733a"/><circle cx="583.6" cy="240.1" r="5.2" fill="#f0733a"/><circle cx="718.5" cy="187.8" r="5.2" fill="#f0733a"/><circle cx="478.1" cy="293.2" r="5.2" fill="#f0733a"/><circle cx="510.2" cy="236.4" r="5.2" fill="#f0733a"/><circle cx="545" cy="316.1" r="5.2" fill="#f0733a"/><circle cx="621.5" cy="230.1" r="5.2" fill="#f0733a"/><circle cx="565.4" cy="207.7" r="5.2" fill="#f0733a"/><circle cx="627" cy="54" r="5.2" fill="#f0733a"/><circle cx="520.9" cy="383.9" r="5.2" fill="#3fbf8f"/><circle cx="893.2" cy="430.6" r="5.2" fill="#3fa9e0"/><circle cx="867.1" cy="497.2" r="5.2" fill="#3fa9e0"/><circle cx="613.3" cy="418.9" r="5.2" fill="#3fa9e0"/><circle cx="548.9" cy="389" r="5.2" fill="#f0733a"/><circle cx="495.6" cy="378.4" r="5.2" fill="#3fbf8f"/><circle cx="809.8" cy="238.6" r="5.2" fill="#a970ff"/><circle cx="867.2" cy="361.6" r="5.2" fill="#a970ff"/><circle cx="516.8" cy="291.6" r="5.1" fill="#f0733a"/><circle cx="443.3" cy="293.6" r="5.1" fill="#f0733a"/><circle cx="537.3" cy="155.3" r="5.1" fill="#f0733a"/><circle cx="472.4" cy="276.3" r="5.1" fill="#f0733a"/><circle cx="423.6" cy="246.1" r="5.1" fill="#f0733a"/><circle cx="551.3" cy="232.4" r="5.1" fill="#f0733a"/><circle cx="583.6" cy="204.8" r="5.1" fill="#f0733a"/><circle cx="659.3" cy="236.7" r="5.1" fill="#f0733a"/><circle cx="674.4" cy="180.1" r="5.1" fill="#f0733a"/><circle cx="613.3" cy="315.5" r="5.1" fill="#f0733a"/><circle cx="579.8" cy="261.6" r="5.1" fill="#f0733a"/><circle cx="657.3" cy="411.9" r="5.1" fill="#3fa9e0"/><circle cx="807.5" cy="398.2" r="5.1" fill="#3fa9e0"/><circle cx="639.3" cy="457" r="5.1" fill="#3fa9e0"/><circle cx="724.7" cy="458.8" r="5.1" fill="#3fa9e0"/><circle cx="853.9" cy="235.7" r="5.1" fill="#a970ff"/><circle cx="800.9" cy="261.9" r="5.1" fill="#a970ff"/><circle cx="479.8" cy="311.7" r="5" fill="#f0733a"/><circle cx="732.6" cy="234.5" r="5" fill="#f0733a"/><circle cx="442.3" cy="189.5" r="5" fill="#f0733a"/><circle cx="528.4" cy="236.7" r="5" fill="#f0733a"/><circle cx="604.3" cy="251.3" r="5" fill="#f0733a"/><circle cx="489.1" cy="107.5" r="5" fill="#f0733a"/><circle cx="630.1" cy="244.2" r="5" fill="#f0733a"/><circle cx="611.7" cy="181.5" r="5" fill="#f0733a"/><circle cx="500.8" cy="206.5" r="5" fill="#f0733a"/><circle cx="450" cy="251.9" r="5" fill="#f0733a"/><circle cx="520.5" cy="307.6" r="5" fill="#f0733a"/><circle cx="472.9" cy="221.1" r="5" fill="#f0733a"/><circle cx="514.8" cy="147.3" r="5" fill="#f0733a"/><circle cx="677.2" cy="135.6" r="5" fill="#f0733a"/><circle cx="411.4" cy="373.8" r="5" fill="#e0607a"/><circle cx="475" cy="371.6" r="5" fill="#3fbf8f"/><circle cx="683.9" cy="397.8" r="5" fill="#3fa9e0"/><circle cx="759.1" cy="497.1" r="5" fill="#3fa9e0"/><circle cx="830.5" cy="508.7" r="5" fill="#3fa9e0"/><circle cx="521" cy="463.8" r="5" fill="#e0a03f"/><circle cx="452" cy="445" r="5" fill="#e0607a"/><circle cx="396.7" cy="348" r="5" fill="#e0607a"/><circle cx="724" cy="343.3" r="5" fill="#a970ff"/><circle cx="781.2" cy="229.8" r="5" fill="#a970ff"/><circle cx="852.3" cy="259.9" r="5" fill="#a970ff"/><circle cx="833.8" cy="357.6" r="5" fill="#a970ff"/><circle cx="911.3" cy="326.2" r="5" fill="#a970ff"/><circle cx="889.1" cy="352.8" r="5" fill="#a970ff"/><circle cx="723.3" cy="210.1" r="4.8" fill="#f0733a"/><circle cx="703" cy="222.5" r="4.8" fill="#f0733a"/><circle cx="462.5" cy="98.7" r="4.8" fill="#f0733a"/><circle cx="494.1" cy="224.6" r="4.8" fill="#f0733a"/><circle cx="421.7" cy="119.5" r="4.8" fill="#f0733a"/><circle cx="598.7" cy="341.9" r="4.8" fill="#f0733a"/><circle cx="570.9" cy="351.4" r="4.8" fill="#f0733a"/><circle cx="619.2" cy="286" r="4.8" fill="#f0733a"/><circle cx="575.4" cy="331.2" r="4.8" fill="#f0733a"/><circle cx="750.9" cy="187.8" r="4.8" fill="#f0733a"/><circle cx="423.1" cy="313.8" r="4.8" fill="#f0733a"/><circle cx="532.1" cy="109.3" r="4.8" fill="#f0733a"/><circle cx="355.6" cy="212.8" r="4.8" fill="#f0733a"/><circle cx="377.1" cy="274.1" r="4.8" fill="#f0733a"/><circle cx="736" cy="119.2" r="4.8" fill="#f0733a"/><circle cx="661.7" cy="269.5" r="4.8" fill="#f0733a"/><circle cx="674.3" cy="254.5" r="4.8" fill="#f0733a"/><circle cx="660.3" cy="292" r="4.8" fill="#f0733a"/><circle cx="648.7" cy="85.3" r="4.8" fill="#f0733a"/><circle cx="604.8" cy="163.3" r="4.8" fill="#f0733a"/><circle cx="585.1" cy="311.5" r="4.8" fill="#f0733a"/><circle cx="488" cy="241.5" r="4.8" fill="#f0733a"/><circle cx="500" cy="317.2" r="4.8" fill="#f0733a"/><circle cx="707.3" cy="165.9" r="4.8" fill="#f0733a"/><circle cx="570.1" cy="225.8" r="4.8" fill="#f0733a"/><circle cx="537.5" cy="296.7" r="4.8" fill="#f0733a"/><circle cx="542.6" cy="247.9" r="4.8" fill="#f0733a"/><circle cx="552.7" cy="265.7" r="4.8" fill="#f0733a"/><circle cx="678.1" cy="302.9" r="4.8" fill="#f0733a"/><circle cx="713.9" cy="95.9" r="4.8" fill="#f0733a"/><circle cx="372.4" cy="364.9" r="4.8" fill="#3fbf8f"/><circle cx="336.3" cy="329" r="4.8" fill="#3fbf8f"/><circle cx="714.5" cy="397.2" r="4.8" fill="#3fa9e0"/><circle cx="826" cy="476.8" r="4.8" fill="#3fa9e0"/><circle cx="770.6" cy="384.6" r="4.8" fill="#3fa9e0"/><circle cx="736.1" cy="421.9" r="4.8" fill="#3fa9e0"/><circle cx="743.9" cy="394" r="4.8" fill="#3fa9e0"/><circle cx="797.7" cy="488.1" r="4.8" fill="#3fa9e0"/><circle cx="484.8" cy="405.4" r="4.8" fill="#3fbf8f"/><circle cx="465.4" cy="425.5" r="4.8" fill="#e0607a"/><circle cx="629.3" cy="503.2" r="4.8" fill="#e0a03f"/><circle cx="535.4" cy="535.8" r="4.8" fill="#e0a03f"/><circle cx="492.2" cy="491.4" r="4.8" fill="#e0a03f"/><circle cx="592.8" cy="91.2" r="4.8" fill="#f0733a"/><circle cx="845.8" cy="448.5" r="4.8" fill="#3fa9e0"/><circle cx="932.6" cy="283" r="4.8" fill="#a970ff"/><circle cx="820.6" cy="300.8" r="4.8" fill="#a970ff"/><circle cx="801.7" cy="349.4" r="4.8" fill="#a970ff"/><circle cx="940.5" cy="339.1" r="4.8" fill="#a970ff"/><circle cx="833.4" cy="189.4" r="4.8" fill="#a970ff"/><circle cx="884.1" cy="335.9" r="4.8" fill="#a970ff"/><circle cx="603.6" cy="204.5" r="4.6" fill="#f0733a"/><circle cx="670.4" cy="219.5" r="4.6" fill="#f0733a"/><circle cx="647.4" cy="184.5" r="4.6" fill="#f0733a"/><circle cx="472.2" cy="72.1" r="4.6" fill="#f0733a"/><circle cx="555.6" cy="112.2" r="4.6" fill="#f0733a"/><circle cx="613.4" cy="73.7" r="4.6" fill="#f0733a"/><circle cx="593.1" cy="224.5" r="4.6" fill="#f0733a"/><circle cx="454.8" cy="127.4" r="4.6" fill="#f0733a"/><circle cx="566.9" cy="134.4" r="4.6" fill="#f0733a"/><circle cx="625.9" cy="335.6" r="4.6" fill="#f0733a"/><circle cx="591.6" cy="183" r="4.6" fill="#f0733a"/><circle cx="446.8" cy="152" r="4.6" fill="#f0733a"/><circle cx="604.2" cy="269.4" r="4.6" fill="#f0733a"/><circle cx="432.1" cy="170.5" r="4.6" fill="#f0733a"/><circle cx="464.7" cy="323.5" r="4.6" fill="#f0733a"/><circle cx="643.9" cy="225.5" r="4.6" fill="#f0733a"/><circle cx="685.9" cy="241.2" r="4.6" fill="#f0733a"/><circle cx="630.6" cy="264.1" r="4.6" fill="#f0733a"/><circle cx="650.8" cy="255.3" r="4.6" fill="#f0733a"/><circle cx="650.9" cy="341.5" r="4.6" fill="#f0733a"/><circle cx="507.6" cy="251.9" r="4.6" fill="#f0733a"/><circle cx="384.2" cy="211.8" r="4.6" fill="#f0733a"/><circle cx="558.8" cy="289.6" r="4.6" fill="#f0733a"/><circle cx="508" cy="337.9" r="4.6" fill="#f0733a"/><circle cx="599.3" cy="295.4" r="4.6" fill="#f0733a"/><circle cx="499.7" cy="286.4" r="4.6" fill="#f0733a"/><circle cx="464.5" cy="169.1" r="4.6" fill="#f0733a"/><circle cx="689" cy="265.6" r="4.6" fill="#f0733a"/><circle cx="659" cy="112.6" r="4.6" fill="#f0733a"/><circle cx="681.5" cy="98.4" r="4.6" fill="#f0733a"/><circle cx="358.9" cy="344" r="4.6" fill="#3fbf8f"/><circle cx="728.4" cy="487.4" r="4.6" fill="#3fa9e0"/><circle cx="694.2" cy="428.2" r="4.6" fill="#3fa9e0"/><circle cx="715.1" cy="434.5" r="4.6" fill="#3fa9e0"/><circle cx="762.2" cy="414.3" r="4.6" fill="#3fa9e0"/><circle cx="759.5" cy="467.3" r="4.6" fill="#3fa9e0"/><circle cx="744.3" cy="445.9" r="4.6" fill="#3fa9e0"/><circle cx="688.9" cy="460.7" r="4.6" fill="#3fa9e0"/><circle cx="845.2" cy="400.7" r="4.6" fill="#3fa9e0"/><circle cx="535.7" cy="496" r="4.6" fill="#e0a03f"/><circle cx="435" cy="462.6" r="4.6" fill="#e0607a"/><circle cx="273.4" cy="401.5" r="4.6" fill="#e0607a"/><circle cx="291.5" cy="456.7" r="4.6" fill="#e0607a"/><circle cx="537.5" cy="368.8" r="4.6" fill="#3fbf8f"/><circle cx="519.5" cy="515.4" r="4.6" fill="#e0a03f"/><circle cx="548.4" cy="576" r="4.6" fill="#e0a03f"/><circle cx="650.9" cy="528.5" r="4.6" fill="#e0a03f"/><circle cx="788.4" cy="286" r="4.6" fill="#a970ff"/><circle cx="924.9" cy="213.3" r="4.6" fill="#a970ff"/><circle cx="878.6" cy="254.4" r="4.6" fill="#a970ff"/><circle cx="825.5" cy="257.1" r="4.6" fill="#a970ff"/><circle cx="868.3" cy="299.7" r="4.6" fill="#a970ff"/><circle cx="902.5" cy="295" r="4.6" fill="#a970ff"/><circle cx="906.7" cy="368.4" r="4.6" fill="#a970ff"/><circle cx="773.7" cy="304.5" r="4.6" fill="#a970ff"/><circle cx="488.2" cy="262.3" r="4.4" fill="#f0733a"/><circle cx="733.2" cy="167.9" r="4.4" fill="#f0733a"/><circle cx="498.6" cy="83.3" r="4.4" fill="#f0733a"/><circle cx="411.2" cy="223.5" r="4.4" fill="#f0733a"/><circle cx="524.4" cy="131.2" r="4.4" fill="#f0733a"/><circle cx="400.2" cy="259.9" r="4.4" fill="#f0733a"/><circle cx="546.4" cy="135.8" r="4.4" fill="#f0733a"/><circle cx="481.1" cy="123.1" r="4.4" fill="#f0733a"/><circle cx="447.9" cy="218.4" r="4.4" fill="#f0733a"/><circle cx="490" cy="146.7" r="4.4" fill="#f0733a"/><circle cx="622.9" cy="148.4" r="4.4" fill="#f0733a"/><circle cx="524.1" cy="192.2" r="4.4" fill="#f0733a"/><circle cx="540.9" cy="279.3" r="4.4" fill="#f0733a"/><circle cx="503.5" cy="124.2" r="4.4" fill="#f0733a"/><circle cx="663.5" cy="320.1" r="4.4" fill="#f0733a"/><circle cx="433.2" cy="140.8" r="4.4" fill="#f0733a"/><circle cx="428.7" cy="94.7" r="4.4" fill="#f0733a"/><circle cx="687.7" cy="283.3" r="4.4" fill="#f0733a"/><circle cx="633.4" cy="132" r="4.4" fill="#f0733a"/><circle cx="651.9" cy="166.2" r="4.4" fill="#f0733a"/><circle cx="563.6" cy="189.7" r="4.4" fill="#f0733a"/><circle cx="409.7" cy="181.2" r="4.4" fill="#f0733a"/><circle cx="543.5" cy="79.3" r="4.4" fill="#f0733a"/><circle cx="558.4" cy="159.8" r="4.4" fill="#f0733a"/><circle cx="644.9" cy="202.6" r="4.4" fill="#f0733a"/><circle cx="684.2" cy="334.2" r="4.4" fill="#f0733a"/><circle cx="674.8" cy="71.9" r="4.4" fill="#f0733a"/><circle cx="418.6" cy="404.3" r="4.4" fill="#3fbf8f"/><circle cx="381.2" cy="156.6" r="4.4" fill="#f0733a"/><circle cx="698.1" cy="484.6" r="4.4" fill="#3fa9e0"/><circle cx="817.2" cy="444.8" r="4.4" fill="#3fa9e0"/><circle cx="785.3" cy="433.5" r="4.4" fill="#3fa9e0"/><circle cx="792.9" cy="516.4" r="4.4" fill="#3fa9e0"/><circle cx="902.5" cy="467.2" r="4.4" fill="#3fa9e0"/><circle cx="790.6" cy="461" r="4.4" fill="#3fa9e0"/><circle cx="568.1" cy="496" r="4.4" fill="#e0a03f"/><circle cx="561.2" cy="553" r="4.4" fill="#e0a03f"/><circle cx="558.7" cy="466.9" r="4.4" fill="#e0a03f"/><circle cx="398.9" cy="134.6" r="4.4" fill="#f0733a"/><circle cx="260.7" cy="327.2" r="4.4" fill="#3fbf8f"/><circle cx="436.4" cy="424.5" r="4.4" fill="#e0607a"/><circle cx="252.4" cy="261.2" r="4.4" fill="#3fbf8f"/><circle cx="460.8" cy="398.2" r="4.4" fill="#3fbf8f"/><circle cx="321.1" cy="356.4" r="4.4" fill="#3fbf8f"/><circle cx="599.8" cy="567" r="4.4" fill="#e0a03f"/><circle cx="566.7" cy="521.7" r="4.4" fill="#e0a03f"/><circle cx="343.7" cy="307.3" r="4.4" fill="#3fbf8f"/><circle cx="490.1" cy="520.2" r="4.4" fill="#e0a03f"/><circle cx="805.4" cy="317.7" r="4.4" fill="#a970ff"/><circle cx="866.8" cy="185.9" r="4.4" fill="#a970ff"/><circle cx="896.6" cy="180.7" r="4.4" fill="#a970ff"/><circle cx="848.3" cy="163.4" r="4.4" fill="#a970ff"/><circle cx="910" cy="261.7" r="4.4" fill="#a970ff"/><circle cx="772.3" cy="261.9" r="4.4" fill="#a970ff"/><circle cx="892.6" cy="313.8" r="4.4" fill="#a970ff"/><circle cx="831.7" cy="331.7" r="4.4" fill="#a970ff"/><circle cx="850.5" cy="342.7" r="4.4" fill="#a970ff"/><circle cx="382" cy="391.9" r="4.3" fill="#3fbf8f"/><circle cx="431.1" cy="276.7" r="4.3" fill="#f0733a"/><circle cx="563" cy="310.6" r="4.3" fill="#f0733a"/><circle cx="714" cy="251.4" r="4.3" fill="#f0733a"/><circle cx="520.2" cy="67.5" r="4.3" fill="#f0733a"/><circle cx="516.2" cy="220.1" r="4.3" fill="#f0733a"/><circle cx="423.7" cy="206.2" r="4.3" fill="#f0733a"/><circle cx="410.1" cy="158.9" r="4.3" fill="#f0733a"/><circle cx="625.6" cy="112.8" r="4.3" fill="#f0733a"/><circle cx="600.6" cy="119.5" r="4.3" fill="#f0733a"/><circle cx="460.3" cy="205.3" r="4.3" fill="#f0733a"/><circle cx="453.7" cy="270.5" r="4.3" fill="#f0733a"/><circle cx="519.6" cy="263.7" r="4.3" fill="#f0733a"/></g>
<g></g>
<g><line class="ll" x1="480.7" y1="201.9" x2="399.3" y2="154.9" stroke="#f0733a" style="animation-delay:2.17s"/><text class="l" x="399.3" y="158.9" text-anchor="end" fill="#f0733a" style="animation-delay:2.17s">Foundation</text><text class="l" x="275.9" y="311.7" text-anchor="end" fill="#3fbf8f" style="animation-delay:2.24s">To-Do</text><text class="l" x="274.8" y="281.3" text-anchor="end" fill="#3fbf8f" style="animation-delay:2.31s">scripts</text><line class="ll" x1="803.9" y1="211.9" x2="885.3" y2="164.9" stroke="#a970ff" style="animation-delay:2.38s"/><text class="l" x="885.3" y="168.9" text-anchor="start" fill="#a970ff" style="animation-delay:2.38s">scripts</text><line class="ll" x1="491.8" y1="168.5" x2="410.4" y2="121.5" stroke="#f0733a" style="animation-delay:2.45s"/><text class="l" x="410.4" y="125.5" text-anchor="end" fill="#f0733a" style="animation-delay:2.45s">SenseBridgeCore</text><text class="l" x="870.1" y="484.2" text-anchor="start" fill="#3fa9e0" style="animation-delay:2.52s">Project-level (in this …</text><line class="ll" x1="380.7" y1="445.1" x2="332.2" y2="473.1" stroke="#e0607a" style="animation-delay:2.59s"/><text class="l" x="332.2" y="477.1" text-anchor="end" fill="#e0607a" style="animation-delay:2.59s">Terms and Conditions</text><line class="ll" x1="866.1" y1="324.8" x2="922.1" y2="324.8" stroke="#a970ff" style="animation-delay:2.66s"/><text class="l" x="922.1" y="328.8" text-anchor="start" fill="#a970ff" style="animation-delay:2.66s">core.ts</text><line class="ll" x1="633.6" y1="303.3" x2="670.6" y2="367.4" stroke="#f0733a" style="animation-delay:2.73s"/><text class="l" x="670.6" y="371.4" text-anchor="start" fill="#f0733a" style="animation-delay:2.73s">CameraSource</text><line class="ll" x1="579" y1="119.9" x2="579" y2="25.9" stroke="#f0733a" style="animation-delay:2.80s"/><text class="l" x="579" y="29.9" text-anchor="middle" fill="#f0733a" style="animation-delay:2.80s">Settings</text><line class="ll" x1="543.7" y1="406.4" x2="506.7" y2="470.5" stroke="#3fbf8f" style="animation-delay:2.87s"/><text class="l" x="506.7" y="474.5" text-anchor="end" fill="#3fbf8f" style="animation-delay:2.87s">README.md</text><line class="ll" x1="489.2" y1="184.7" x2="433.2" y2="184.7" stroke="#f0733a" style="animation-delay:2.94s"/><text class="l" x="433.2" y="188.7" text-anchor="end" fill="#f0733a" style="animation-delay:2.94s">Testing</text><line class="ll" x1="504.8" y1="272.6" x2="423.4" y2="225.6" stroke="#f0733a" style="animation-delay:3.01s"/><text class="l" x="423.4" y="229.6" text-anchor="end" fill="#f0733a" style="animation-delay:3.01s">AmbientAwarenessSession</text><line class="ll" x1="820" y1="420.7" x2="914" y2="420.7" stroke="#3fa9e0" style="animation-delay:3.08s"/><text class="l" x="914" y="424.7" text-anchor="start" fill="#3fa9e0" style="animation-delay:3.08s">Global Constraints</text><line class="ll" x1="779.6" y1="323.8" x2="816.6" y2="387.9" stroke="#a970ff" style="animation-delay:3.15s"/><text class="l" x="816.6" y="391.9" text-anchor="start" fill="#a970ff" style="animation-delay:3.15s">devDependencies</text><line class="ll" x1="536.3" y1="262.1" x2="454.9" y2="309.1" stroke="#f0733a" style="animation-delay:3.22s"/><text class="l" x="454.9" y="313.1" text-anchor="end" fill="#f0733a" style="animation-delay:3.22s">Phrasing</text></g>
</g>
<circle cx="24" cy="644" r="4.5" fill="#f0733a"/><text class="g" x="34" y="648" fill="#f0733a">app · Swift/SwiftUI</text><circle cx="183.39999999999998" cy="644" r="4.5" fill="#a970ff"/><text class="g" x="193.39999999999998" y="648" fill="#a970ff">website · Astro</text><circle cx="316.4" cy="644" r="4.5" fill="#3fa9e0"/><text class="g" x="326.4" y="648" fill="#3fa9e0">docs</text><circle cx="376.79999999999995" cy="644" r="4.5" fill="#e0a03f"/><text class="g" x="386.79999999999995" y="648" fill="#e0a03f">tools · scripts · CI</text><circle cx="542.8" cy="644" r="4.5" fill="#e0607a"/><text class="g" x="552.8" y="648" fill="#e0607a">audits · legal · models · security</text><circle cx="801.1999999999999" cy="644" r="4.5" fill="#3fbf8f"/><text class="g" x="811.1999999999999" y="648" fill="#3fbf8f">root orientation docs</text>
</svg>
